{"glyphs":{"0":{"ha":576,"x_min":0,"x_max":0,"o":"m 223 -7 b 400 98 286 -7 345 28 b 518 340 451 163 490 243 b 549 557 538 413 549 486 b 489 766 549 646 529 716 b 347 833 456 808 409 830 b 157 739 279 833 216 802 b 77 626 125 705 98 668 b -6 273 22 522 -6 404 b 25 111 -6 210 5 155 b 223 -7 61 33 127 -7 z m 222 69 b 183 94 205 69 193 77 b 164 194 170 117 164 151 b 183 368 164 249 170 307 b 252 589 200 450 223 523 b 298 672 265 619 280 647 b 374 727 325 709 350 727 b 430 696 393 727 412 717 b 471 551 457 663 471 615 b 461 450 471 519 467 485 b 380 216 447 369 420 292 b 321 127 363 184 343 154 b 222 69 286 89 254 69 z "},"1":{"ha":366,"x_min":0,"x_max":0,"o":"m 214 -6 b 254 3 228 -5 241 -3 b 252 37 252 11 252 22 b 295 345 252 109 266 212 b 357 576 313 427 334 505 b 475 810 397 700 436 778 b 373 845 446 833 412 845 b 292 821 343 845 316 837 b 258 787 275 810 264 798 l 232 758 b 155 690 211 736 185 713 b -1 614 104 650 52 625 b -5 593 -4 607 -5 600 b 26 545 -5 574 5 557 b 69 532 40 536 54 532 b 174 583 102 532 138 549 b 127 387 155 515 139 450 b 100 144 109 292 100 211 b 109 62 100 111 103 83 b 173 1 117 34 138 14 b 214 -6 186 -3 200 -6 z "},"2":{"ha":591,"x_min":0,"x_max":0,"o":"m 114 -6 b 250 5 149 -5 195 -2 b 372 16 298 11 338 15 b 443 13 404 16 428 15 b 490 -1 461 10 477 5 b 500 50 496 17 500 35 b 376 128 498 99 457 125 b 243 124 319 128 275 127 b 334 214 267 143 296 173 b 450 353 378 262 417 309 b 609 684 552 488 606 599 b 590 755 609 707 603 730 b 528 822 574 783 553 806 b 424 846 503 838 468 846 b 294 822 380 846 336 838 b 188 758 250 806 215 785 b 146 664 160 728 146 697 b 204 543 146 623 165 583 b 256 629 213 572 231 601 b 336 693 279 652 305 674 b 418 722 370 713 397 722 b 448 699 438 722 448 714 b 336 482 448 657 410 585 b 97 219 258 376 178 288 b -21 141 51 181 12 155 b -29 78 -26 121 -29 100 b 16 9 -26 45 -12 22 b 114 -6 38 -1 71 -6 z "},"3":{"ha":564,"x_min":0,"x_max":0,"o":"m 141 -11 b 380 70 227 -11 306 16 b 474 168 418 98 450 131 b 510 278 498 205 510 242 b 415 412 510 336 478 381 b 404 417 412 414 408 416 b 495 494 435 439 465 464 b 606 682 569 566 606 629 b 598 730 606 696 604 711 b 550 809 589 760 572 787 b 441 855 519 840 483 855 b 305 823 399 855 353 844 b 176 738 254 801 211 772 b 114 641 146 710 125 677 b 106 590 109 623 106 606 b 118 536 106 571 111 553 b 208 460 134 501 163 476 b 384 751 216 599 275 696 b 414 760 396 758 406 760 b 439 726 431 760 439 749 b 387 589 439 690 422 644 b 182 416 333 503 264 446 b 171 382 174 412 171 400 b 182 345 171 368 175 356 b 234 350 201 348 219 350 b 294 338 260 350 279 346 b 322 289 313 327 322 311 b 311 243 322 275 318 259 b 250 167 298 214 277 189 b 110 114 207 132 161 114 b -23 165 62 114 18 132 b -49 106 -40 146 -49 125 b -24 49 -49 86 -41 67 b 141 -11 15 9 70 -11 z "},"4":{"ha":618,"x_min":0,"x_max":0,"o":"m 471 -6 b 511 3 485 -5 498 -3 b 508 43 509 12 508 26 b 552 345 508 107 523 208 b 614 576 570 427 590 504 b 732 810 654 700 694 779 b 630 845 703 833 669 845 b 549 821 600 845 572 837 b 436 600 511 795 474 722 b 374 330 409 511 388 421 b 187 321 366 330 304 328 b 256 389 205 331 229 353 b 329 506 281 422 305 461 b 389 641 353 551 372 595 b 418 767 408 692 418 734 b 316 845 418 819 384 845 b 271 839 300 845 286 843 b 273 828 272 836 273 832 b 258 758 273 812 268 789 b 206 621 246 715 229 670 b 127 473 179 562 153 513 b -8 321 77 393 32 342 b 50 224 0 272 19 239 b 137 209 69 214 98 209 b 271 219 168 209 213 212 b 361 228 309 224 339 227 b 357 146 358 197 357 170 b 369 54 357 108 361 77 b 430 1 377 31 397 13 b 471 -6 444 -3 457 -6 z "},"5":{"ha":583,"x_min":0,"x_max":0,"o":"m 174 -11 b 297 9 215 -11 256 -4 b 413 70 338 24 377 43 b 507 169 453 100 484 132 b 543 278 531 206 543 243 b 503 375 543 316 530 348 b 401 425 475 402 441 418 b 326 431 376 429 351 431 b 222 419 282 431 248 427 b 342 701 230 471 269 565 l 406 709 b 537 720 458 716 501 720 b 625 703 574 720 604 714 b 633 751 631 721 633 737 b 552 829 633 794 606 820 b 486 832 536 831 513 832 b 382 827 458 832 424 831 b 280 822 330 823 296 822 b 157 845 230 822 189 829 b 150 787 152 825 150 805 b 165 734 150 767 155 749 b 119 616 149 706 134 667 b 96 472 104 562 96 514 b 193 343 96 386 129 343 b 217 345 201 343 209 343 b 267 350 236 348 253 350 b 355 286 326 350 355 328 b 344 242 355 273 351 258 b 283 167 331 215 311 190 b 143 114 239 132 193 114 b 10 165 96 114 51 132 b -16 120 -7 146 -16 130 l -16 104 b 9 49 -16 85 -7 66 b 174 -11 47 9 102 -11 z "},"6":{"ha":551,"x_min":0,"x_max":0,"o":"m 199 -10 b 309 14 236 -10 273 -2 b 416 91 348 32 384 57 b 502 228 455 131 484 176 b 518 319 513 258 518 289 b 483 431 518 365 506 402 b 348 488 452 469 407 488 b 248 469 315 488 281 481 b 298 552 264 498 281 526 b 350 625 315 578 332 602 b 408 687 368 647 387 667 b 477 740 429 706 452 724 b 558 785 501 756 528 771 b 440 833 520 816 481 831 b 346 803 414 833 383 823 b 202 683 296 776 248 736 b 85 509 158 632 119 574 b 12 321 52 445 27 382 b -5 205 1 279 -5 239 b 13 119 -5 170 1 141 b 71 42 27 91 47 65 b 145 -3 96 19 121 4 b 199 -10 163 -8 181 -10 z m 172 137 b 132 144 159 137 145 140 b 205 389 133 206 157 288 l 240 404 b 335 429 278 421 310 429 b 384 380 368 429 384 413 b 366 307 384 359 378 334 b 311 216 353 274 334 243 b 229 151 285 186 258 164 b 172 137 209 142 190 137 z "},"7":{"ha":486,"x_min":0,"x_max":0,"o":"m 119 -10 b 178 7 141 -10 161 -5 b 240 160 181 32 202 83 b 377 407 278 239 324 321 b 549 644 436 501 494 581 b 587 727 574 672 587 699 b 559 782 587 749 578 767 b 463 808 539 798 507 806 l 434 808 b 312 801 401 808 361 806 b 195 795 258 797 218 795 b 66 816 142 795 98 803 b 58 765 60 797 58 780 b 146 677 58 717 87 688 b 226 671 168 673 194 671 b 441 690 264 671 337 677 b 271 515 391 652 334 593 b 111 283 211 439 157 362 b 21 91 62 201 33 138 b 19 73 20 85 19 79 b 37 26 19 57 25 41 b 119 -10 58 2 85 -10 z "},"8":{"ha":521,"x_min":0,"x_max":0,"o":"m 140 -10 b 336 50 203 -10 268 10 b 431 132 375 73 406 100 b 466 228 454 162 466 195 b 341 393 466 288 425 342 b 469 483 395 424 437 454 b 559 610 505 516 536 559 b 574 675 568 634 574 655 b 544 752 574 702 564 728 b 489 798 532 766 513 782 b 427 829 465 815 444 825 b 394 831 416 831 406 831 b 251 797 350 831 302 820 b 132 719 203 775 164 749 b 83 656 110 699 94 677 b 67 606 73 634 68 618 b 67 589 67 595 67 589 b 80 528 67 568 71 548 b 121 473 89 509 102 490 b 187 425 139 454 161 439 b 109 370 166 413 140 395 b 24 292 78 347 50 321 b -42 149 -20 241 -42 193 b -2 60 -42 116 -28 86 b 50 20 9 48 27 35 b 106 -7 73 4 92 -5 b 140 -10 117 -9 128 -10 z m 237 454 b 208 513 218 469 208 489 b 221 566 208 529 212 547 b 277 645 233 592 252 619 b 383 719 315 684 350 708 b 402 692 396 715 402 706 b 337 565 402 665 380 623 b 277 492 319 540 298 516 b 237 454 258 472 245 459 z m 147 87 b 135 112 139 92 135 100 b 198 245 135 140 156 184 b 254 319 216 272 235 296 b 296 363 271 340 286 355 b 328 293 317 342 328 319 b 258 165 327 253 304 210 b 147 87 222 129 185 102 z "},"9":{"ha":479,"x_min":0,"x_max":0,"o":"m 118 -10 b 213 19 145 -10 177 -1 b 356 140 262 45 310 86 b 473 313 399 191 439 248 b 547 502 507 376 531 439 b 563 619 557 545 563 583 b 546 704 563 653 557 682 b 488 779 533 730 513 755 b 414 825 463 802 438 818 b 359 833 395 830 377 833 b 142 732 276 831 204 798 b 57 595 102 691 74 645 b 40 504 45 564 40 533 b 75 391 40 457 52 420 b 212 334 105 353 151 334 b 311 353 243 334 276 340 b 208 198 274 288 239 237 b 0 37 152 128 83 75 b 118 -10 38 5 77 -10 z m 227 393 b 175 446 192 393 175 410 b 193 519 175 466 181 490 b 252 611 208 553 227 583 b 387 685 294 659 339 684 b 427 678 399 685 413 683 b 416 604 426 656 422 631 b 391 522 410 578 401 550 b 353 434 380 492 368 463 l 345 430 b 321 419 337 427 330 423 b 292 408 312 415 302 411 b 261 398 282 404 271 401 b 237 393 251 395 243 394 b 227 393 232 393 228 393 z "},"\u0000":{"ha":0,"x_min":0,"x_max":0,"o":""}," ":{"ha":646,"x_min":0,"x_max":0,"o":""},"!":{"ha":428,"x_min":0,"x_max":0,"o":"m 138 257 b 180 262 153 257 168 259 b 177 296 178 268 177 279 b 197 417 178 328 184 368 b 319 720 229 538 269 640 b 401 809 346 764 373 794 b 301 832 372 825 338 832 b 182 797 248 832 208 821 b 121 712 163 779 142 751 b 67 588 101 675 83 633 b 20 366 36 501 20 427 b 31 302 20 338 24 317 b 97 262 39 283 62 269 b 138 257 111 258 124 257 z m 88 -12 b 123 -3 102 -12 114 -8 b 144 46 134 3 142 20 b 146 85 145 58 146 71 b 165 204 149 136 155 176 b 144 211 159 206 152 209 b 117 217 135 213 126 215 b 87 219 107 218 98 219 b 37 207 67 219 51 215 b 6 160 24 199 14 183 b -6 83 -2 136 -6 109 b -1 36 -6 65 -4 50 b 36 1 3 22 16 10 b 88 -12 53 -7 70 -12 z "},"\"":{"ha":402,"x_min":0,"x_max":0,"o":"m 256 398 b 373 534 334 430 373 476 b 357 608 373 556 368 581 b 274 702 332 671 304 702 b 223 675 256 702 239 693 b 195 604 204 654 195 631 b 210 557 195 585 199 570 b 261 433 244 518 261 477 b 256 398 261 422 260 410 z m 56 398 b 173 534 134 431 173 476 b 157 608 173 556 168 581 b 116 682 143 644 130 668 b 74 702 102 695 88 702 b 23 675 56 702 39 693 b -5 602 4 654 -5 630 b 10 557 -5 585 0 570 b 61 433 44 517 61 475 b 56 398 61 421 60 410 z "},"#":{"ha":765,"x_min":0,"x_max":0,"o":"m 209 -10 b 233 -7 217 -10 224 -9 b 232 8 232 -3 232 2 b 277 238 232 55 247 132 l 395 250 b 383 144 387 209 383 174 b 390 95 383 126 385 109 b 448 37 396 72 416 53 b 505 22 467 27 486 22 b 529 25 513 22 521 24 b 528 43 528 30 528 35 b 576 262 528 87 544 161 b 664 252 610 262 639 259 b 673 286 670 264 673 275 b 604 343 673 315 650 334 b 660 484 621 391 640 438 b 736 473 691 483 717 479 b 745 507 742 486 745 498 b 697 559 745 532 729 549 b 812 704 737 636 776 684 b 770 733 799 715 785 726 b 724 749 755 741 740 746 b 681 754 709 753 695 754 b 596 724 646 754 618 744 b 500 569 567 695 534 644 b 393 562 465 567 429 565 b 530 770 443 675 488 745 b 491 802 518 783 505 793 b 447 821 477 810 462 816 b 401 827 431 825 416 827 b 315 792 366 827 337 815 b 190 552 277 752 235 672 b 156 553 180 552 169 553 b 115 557 143 554 130 555 b 74 565 101 559 87 562 b 67 528 70 551 67 539 b 157 456 67 490 97 466 b 121 330 143 414 131 372 b 1 344 73 332 33 337 b -4 309 -3 331 -4 319 b 100 233 -4 265 31 240 b 90 123 93 192 90 155 b 96 70 90 102 92 84 b 152 6 102 45 121 24 b 209 -10 170 -5 189 -10 z m 308 340 b 351 460 321 380 336 420 l 459 471 b 418 347 444 430 430 389 z "},"$":{"ha":644,"x_min":0,"x_max":0,"o":"m 210 -102 b 222 -91 217 -102 221 -98 b 231 -5 222 -67 226 -39 b 372 36 280 -1 327 12 b 475 113 414 56 448 83 b 522 211 506 148 522 180 b 380 292 522 265 474 292 b 348 292 369 292 358 292 l 310 292 b 357 429 325 337 340 382 b 425 420 378 422 400 420 b 502 432 449 420 475 424 b 568 484 526 439 548 456 b 610 581 587 512 602 544 b 616 641 614 601 616 621 b 593 734 616 676 608 707 b 522 792 579 756 555 776 b 594 898 547 837 572 872 b 546 903 576 901 560 903 b 454 857 500 903 469 888 l 435 819 b 376 825 412 823 393 825 b 184 718 321 825 257 789 b 87 589 144 678 112 635 b 47 451 60 540 47 494 b 62 365 47 419 52 391 b 227 248 87 300 142 261 b 201 109 216 201 208 155 b 154 95 184 103 169 98 b 121 89 139 92 128 90 b 109 89 114 89 110 89 b 54 140 73 89 54 106 b 61 160 54 148 56 155 b 42 162 54 161 48 162 b 1 130 18 162 4 151 b 0 111 1 123 0 117 b 157 -5 0 45 52 7 b 189 -7 168 -6 178 -7 l 189 -40 b 194 -97 189 -75 191 -94 b 207 -102 197 -101 201 -102 z m 372 467 b 497 747 412 572 454 665 b 500 728 499 743 500 736 b 491 674 500 715 497 697 b 444 562 481 637 465 600 b 372 467 420 519 397 488 z m 241 306 b 213 372 222 318 213 340 b 285 568 213 424 237 489 b 375 686 312 612 342 651 b 330 574 360 652 345 614 b 283 445 314 533 298 490 b 241 306 268 399 254 353 z m 264 138 b 294 243 273 172 283 207 l 325 243 b 381 233 361 243 380 240 l 382 229 b 362 200 382 222 376 212 b 264 138 344 182 311 161 z "},"%":{"ha":629,"x_min":0,"x_max":0,"o":"m 94 -12 b 195 163 111 33 144 90 b 430 471 251 243 329 346 b 547 621 484 539 523 589 b 599 707 580 664 597 692 b 601 723 600 714 601 720 b 579 777 601 743 593 760 b 524 817 565 793 547 806 b 463 831 502 826 481 831 b 468 815 467 825 468 820 b 437 747 468 799 458 776 l 35 199 b 2 127 20 178 9 154 b -5 77 -3 107 -5 91 b 75 -7 -5 32 21 4 b 92 -12 85 -9 91 -11 z m 162 543 b 212 562 180 543 196 549 b 256 612 229 575 243 591 b 283 675 268 632 277 653 b 292 734 290 697 292 717 b 288 770 292 747 291 759 b 220 822 281 793 259 810 b 184 827 207 825 195 827 b 57 738 131 826 88 796 b 35 656 42 711 35 684 b 45 610 35 640 38 624 b 129 545 63 574 91 553 b 153 543 138 543 146 543 z m 169 587 b 146 607 159 587 151 594 b 140 642 142 616 140 627 b 161 718 140 671 147 696 b 221 758 179 745 199 758 b 248 725 239 758 248 747 b 237 675 248 710 245 694 b 169 587 215 617 193 587 z m 404 -12 b 454 9 420 -12 436 -5 b 525 123 486 33 509 71 b 533 180 530 142 533 161 b 515 239 533 209 527 229 b 460 268 500 252 482 262 b 425 273 448 271 436 273 b 347 244 396 273 370 264 b 298 184 326 228 310 208 b 275 102 283 155 275 127 b 286 56 275 85 279 69 b 327 9 296 36 310 20 b 399 -12 348 -5 372 -12 z m 410 33 b 387 54 399 33 392 40 b 382 83 383 62 382 72 b 420 186 382 127 395 161 b 462 204 435 198 448 204 b 490 169 480 204 490 193 b 478 121 490 156 486 140 b 410 33 456 62 433 33 z "},"&":{"ha":736,"x_min":0,"x_max":0,"o":"m 161 -12 b 264 4 191 -12 226 -6 b 424 68 318 18 372 39 b 590 -10 486 16 541 -10 b 656 13 616 -10 638 -3 b 709 106 682 33 699 64 b 676 100 699 102 688 100 b 528 144 636 100 587 115 b 562 188 541 159 552 173 b 582 231 570 203 577 217 b 588 271 586 245 588 258 b 493 379 588 321 557 357 b 428 235 481 330 460 282 b 355 342 399 269 374 305 b 429 397 375 358 399 376 b 551 490 479 431 520 463 b 645 605 591 526 623 564 b 658 659 654 621 658 640 b 646 715 658 678 654 696 b 583 797 633 747 612 775 b 464 835 549 822 509 835 b 424 831 451 835 437 833 b 209 724 328 816 256 781 b 151 562 170 679 151 625 b 195 385 151 506 165 447 b 82 294 149 352 111 322 b 3 189 46 261 20 227 b -6 159 -3 176 -6 166 l -6 146 b 18 68 -6 119 1 93 b 161 -12 50 15 98 -12 z m 311 468 b 308 511 309 482 308 497 b 459 736 308 607 358 682 l 461 737 b 487 722 473 732 481 727 b 496 707 493 716 496 711 b 498 698 497 703 498 700 b 484 659 498 688 493 675 l 467 631 b 311 468 436 578 385 524 z m 170 69 b 157 92 161 73 157 81 b 168 130 157 102 161 115 b 263 263 192 179 224 224 b 345 150 288 223 315 185 b 170 69 298 113 239 86 z "},"'":{"ha":202,"x_min":0,"x_max":0,"o":"m 56 398 b 173 534 134 431 173 476 b 157 608 173 556 168 581 b 116 682 143 644 130 668 b 74 702 102 695 88 702 b 23 675 56 702 39 693 b -5 602 4 654 -5 630 b 10 557 -5 585 0 570 b 61 433 44 517 61 475 b 56 398 61 421 60 410 z "},"(":{"ha":545,"x_min":0,"x_max":0,"o":"m 216 -90 b 263 -87 237 -90 252 -89 b 180 149 208 -43 180 35 b 205 357 180 215 189 283 b 279 583 222 434 247 509 b 387 778 311 659 347 724 b 518 902 429 836 473 877 b 460 907 500 905 481 907 b 347 881 422 907 385 899 b 237 806 308 863 271 838 b 72 558 171 741 116 659 b -6 206 20 438 -6 321 b -1 127 -6 178 -5 152 b 36 15 5 84 18 47 b 216 -90 74 -55 134 -90 z "},")":{"ha":545,"x_min":0,"x_max":0,"o":"m 56 -90 b 281 20 136 -86 210 -50 b 371 132 313 52 344 90 b 492 414 426 217 466 311 b 517 607 509 485 517 549 b 475 805 517 688 503 753 b 294 907 436 873 376 907 b 248 905 275 907 259 907 b 294 850 266 890 281 872 b 321 773 305 827 315 802 b 330 700 327 744 330 720 b 330 662 330 680 330 667 b 306 462 330 602 322 534 b 233 235 288 383 264 308 b 124 41 201 162 165 97 b -7 -84 83 -16 39 -58 b 46 -90 11 -88 28 -90 z "},"*":{"ha":338,"x_min":0,"x_max":0,"o":"m 163 492 b 190 524 180 492 189 503 b 202 600 191 546 195 571 b 260 565 226 588 245 576 b 283 556 269 559 276 556 b 296 560 288 556 292 557 b 307 573 300 563 304 567 b 311 593 309 579 311 586 b 308 617 311 601 310 608 b 293 646 306 626 300 635 b 265 675 286 656 276 666 b 294 722 277 690 287 705 b 306 764 302 737 305 751 b 293 806 306 782 302 795 b 273 816 287 812 280 816 b 246 800 263 816 254 810 b 178 731 225 774 202 751 b 151 808 165 758 156 783 b 126 834 147 825 139 834 b 101 824 117 834 109 831 b 80 797 92 817 85 808 b 73 772 76 789 73 781 b 71 751 71 764 71 756 b 79 695 71 731 73 713 b 31 663 61 686 45 675 b 1 627 17 650 7 638 b -5 608 -2 619 -4 612 b -6 595 -5 602 -6 598 b 4 570 -6 584 -3 575 b 18 564 7 566 12 564 b 40 571 24 564 32 566 b 99 598 56 580 75 589 b 119 519 99 564 106 538 b 163 492 132 500 147 492 z "},"+":{"ha":396,"x_min":0,"x_max":0,"o":"m 160 92 b 234 173 203 93 227 119 b 237 220 236 188 237 203 l 279 221 b 360 216 310 221 337 220 b 367 258 365 231 367 245 b 353 303 367 276 362 292 b 241 335 334 324 297 335 l 231 335 b 230 382 231 352 230 368 b 244 457 230 415 235 440 b 197 465 227 462 210 465 b 123 410 157 465 133 446 b 117 344 119 393 117 371 l 117 329 l 86 328 b 33 332 66 328 48 330 b 2 342 21 334 11 338 b -5 292 -3 323 -5 307 b 71 217 -5 248 20 223 b 112 215 84 216 98 215 l 123 215 l 123 185 b 117 99 123 151 121 122 b 160 92 134 95 148 92 z "},",":{"ha":272,"x_min":0,"x_max":0,"o":"m 94 -55 b 216 35 145 -55 186 -25 b 245 121 235 72 244 100 b 240 148 245 131 243 140 b 178 181 230 170 210 181 b 116 163 156 181 136 175 b 81 113 96 150 85 134 b 54 31 77 83 68 56 b -7 -28 39 4 19 -16 b 94 -55 31 -46 64 -55 z "},"-":{"ha":394,"x_min":0,"x_max":0,"o":"m 140 174 b 277 181 222 179 267 181 b 359 175 305 181 333 179 b 366 223 363 191 366 207 b 332 278 363 248 353 267 b 262 294 314 288 290 292 l 233 294 b 159 290 217 294 193 293 b 83 288 127 288 102 288 b 1 302 44 288 17 292 b -6 254 -3 283 -6 268 b 1 215 -6 237 -3 224 b 88 174 14 190 42 176 z "},".":{"ha":216,"x_min":0,"x_max":0,"o":"m 94 0 b 123 12 106 0 116 4 b 141 52 130 20 136 33 l 158 117 b 189 190 166 145 177 170 b 144 214 177 198 162 205 b 87 227 123 222 104 227 b 42 210 69 227 54 221 b 11 157 31 198 20 180 b -6 78 -1 128 -6 102 b 3 48 -6 67 -3 57 b 52 10 15 32 31 20 b 94 0 66 3 81 0 z "},"/":{"ha":629,"x_min":0,"x_max":0,"o":"m 94 -12 b 195 163 112 34 146 92 b 430 471 251 243 329 346 b 585 674 511 574 562 641 b 599 707 593 688 598 699 b 600 725 600 715 600 721 b 579 777 600 743 593 760 b 524 816 565 793 547 806 b 463 831 502 826 481 831 b 468 819 466 827 467 823 b 453 772 467 803 462 788 b 35 199 448 764 309 572 b 2 127 20 180 9 156 b -5 77 -3 109 -5 92 b 53 -1 -5 40 14 14 b 92 -12 60 -3 73 -7 z "},":":{"ha":334,"x_min":0,"x_max":0,"o":"m 94 -27 b 123 -16 106 -27 116 -23 b 141 25 130 -7 136 6 l 158 90 b 189 163 166 118 177 142 b 144 186 177 171 162 178 b 87 199 123 195 104 199 b 42 182 69 199 54 194 b 11 130 31 171 20 153 b -6 51 -1 101 -6 75 b 3 21 -6 40 -3 30 b 52 -17 15 5 31 -7 b 94 -27 66 -24 81 -27 z m 212 229 b 241 240 224 229 234 233 b 267 310 250 250 258 274 b 307 421 277 358 291 395 b 205 458 270 446 236 458 b 129 389 172 458 146 435 b 112 308 117 358 112 332 b 121 277 112 296 115 287 b 170 239 132 262 149 249 b 212 229 184 232 198 229 z "},";":{"ha":365,"x_min":0,"x_max":0,"o":"m 243 229 b 271 240 255 229 264 233 b 297 310 281 250 289 274 b 338 421 308 358 321 395 b 235 458 300 446 267 458 b 159 389 203 458 177 435 b 142 308 148 358 142 332 b 152 277 142 296 145 287 b 200 239 163 262 179 249 b 243 229 214 232 229 229 z m 93 -55 b 216 35 145 -55 186 -25 b 244 124 235 73 244 102 b 226 166 244 142 238 157 b 178 181 214 176 198 181 b 115 162 156 181 135 175 b 81 113 95 149 84 133 b 54 31 77 83 68 56 b -7 -28 39 4 19 -16 b 93 -55 31 -46 64 -55 z "},"<":{"ha":316,"x_min":0,"x_max":0,"o":"m 212 201 b 216 220 214 208 216 214 b 215 232 216 224 216 228 b 199 258 213 243 208 251 b 78 320 187 269 146 290 b 289 475 117 346 187 397 b 235 507 277 496 259 507 b 76 427 201 507 148 480 l 37 400 b 12 367 28 393 20 382 b -6 313 0 345 -6 327 b 1 296 -6 303 -3 298 b 212 201 6 294 77 262 z "},"=":{"ha":395,"x_min":0,"x_max":0,"o":"m 140 274 b 193 277 157 275 174 276 b 241 279 211 278 227 279 b 277 281 256 280 268 281 b 360 275 307 281 335 279 b 366 317 364 290 366 304 b 298 389 366 356 344 380 b 233 394 281 392 260 394 b 160 391 221 394 197 393 b 83 387 132 388 106 387 b 1 401 47 387 20 392 b -6 354 -3 383 -6 368 b 54 279 -6 313 14 288 b 116 274 71 275 91 274 z m 116 105 b 241 111 134 105 176 107 l 277 112 b 360 106 310 112 338 110 b 366 154 364 121 366 138 b 264 225 363 199 329 222 b 160 222 222 225 187 224 b 83 219 125 220 100 219 b 1 233 45 219 18 224 b -6 182 -3 215 -6 198 b 88 106 -6 134 25 109 z "},">":{"ha":317,"x_min":0,"x_max":0,"o":"m 50 201 b 83 208 59 201 71 203 b 207 281 109 216 150 241 l 245 308 b 271 342 254 315 262 326 b 289 395 283 363 289 381 b 280 412 289 405 286 410 l 71 507 b 66 484 68 498 66 491 b 73 463 66 477 68 471 b 205 388 81 447 125 422 b -7 233 185 375 115 323 b 12 212 -1 224 5 217 b 32 203 19 208 26 204 b 50 201 39 202 44 201 z "},"?":{"ha":488,"x_min":0,"x_max":0,"o":"m 278 232 b 359 377 296 270 323 318 b 420 481 388 421 408 456 b 460 652 447 536 460 593 b 394 793 460 705 438 752 b 312 839 368 817 340 833 b 247 846 291 844 269 846 b 120 822 203 846 161 838 b 25 758 79 806 47 784 b -4 682 6 734 -4 709 b 75 543 -4 636 22 590 b 115 629 80 573 93 602 b 186 696 136 657 160 680 b 250 724 213 714 235 724 l 259 724 b 281 718 268 724 275 722 b 298 680 292 710 298 697 b 220 498 298 646 273 586 l 147 378 b 133 335 138 362 133 348 b 254 238 133 293 173 260 b 278 232 267 234 275 232 z m 159 -13 b 188 -1 172 -13 181 -9 b 214 68 197 9 205 33 b 254 180 224 117 238 154 b 152 217 217 205 183 217 b 109 201 134 217 119 212 b 76 147 96 188 85 170 b 59 66 64 117 59 90 b 68 36 59 56 62 45 b 117 -2 79 20 96 7 b 159 -13 132 -9 146 -13 z "},"@":{"ha":945,"x_min":0,"x_max":0,"o":"m 360 -10 b 488 13 405 -10 448 -3 b 553 52 513 23 535 36 b 578 70 566 62 574 68 b 541 98 568 88 555 98 b 507 83 531 98 520 93 b 388 48 475 60 436 48 b 284 72 352 48 317 56 b 189 153 243 90 212 117 b 155 275 166 189 155 230 b 174 389 155 311 161 349 b 248 535 191 439 215 488 b 366 654 281 582 321 621 b 571 722 431 699 500 722 b 792 610 671 722 744 685 b 829 471 817 569 829 523 b 749 227 829 395 802 314 b 682 151 720 176 697 151 b 675 170 677 152 675 158 b 692 265 675 194 681 225 b 708 327 699 298 705 318 b 711 354 710 337 711 346 b 692 408 711 374 705 393 b 568 454 665 439 625 454 l 569 437 b 555 359 569 418 564 391 b 519 265 545 326 533 295 b 445 170 494 214 470 182 b 424 162 436 165 429 162 b 398 187 415 162 406 170 b 388 239 391 201 388 219 b 427 383 388 282 401 330 b 506 505 448 427 475 468 b 602 584 536 539 568 566 b 644 600 622 594 635 600 b 656 596 648 600 652 598 b 662 587 659 594 661 591 b 663 577 663 583 663 579 b 651 525 663 567 659 549 b 644 495 646 510 644 500 b 686 460 644 477 658 466 b 716 545 699 481 709 510 b 721 584 720 559 721 572 b 710 633 721 604 718 620 b 643 665 699 651 677 661 b 570 672 613 669 589 672 b 522 669 549 672 533 671 b 408 619 485 663 447 646 b 279 479 356 583 313 536 b 221 284 241 412 221 347 b 294 130 221 213 245 161 b 422 87 336 101 378 87 b 537 163 466 88 504 114 b 573 119 547 146 559 131 b 656 87 601 98 629 87 b 796 191 707 87 753 121 b 916 530 876 315 916 429 b 893 649 916 573 908 612 b 783 777 871 703 834 745 b 587 827 728 810 662 827 b 469 815 547 827 507 823 b 361 779 431 806 395 795 b 262 725 326 764 293 746 b 176 655 231 704 203 680 b 104 574 150 630 125 603 b 50 486 83 546 65 517 b 12 395 34 456 21 426 b -4 318 2 361 -3 335 b -5 287 -5 301 -5 290 b 32 145 -5 232 7 184 b 137 45 56 104 92 71 b 360 -10 202 8 277 -10 z "},"A":{"ha":926,"x_min":0,"x_max":0,"o":"m -120 -270 b 26 -230 -72 -270 -23 -257 b 211 -62 75 -202 136 -146 b 441 235 286 22 362 121 b 634 243 515 241 580 243 l 661 243 b 635 55 644 161 635 98 b 684 -64 635 -3 651 -43 b 740 -79 700 -74 719 -79 b 824 -56 765 -79 793 -72 b 805 18 812 -41 805 -16 b 931 492 806 105 848 262 b 995 666 952 550 974 608 b 1031 782 1016 724 1027 763 b 1034 811 1032 792 1034 802 b 1006 905 1034 844 1024 876 b 915 999 984 940 954 971 b 842 1037 878 1024 854 1037 b 628 972 787 1030 715 1009 b 414 863 543 937 472 901 b 315 770 360 828 327 797 b 306 723 309 755 306 739 b 326 659 306 699 313 677 b 392 627 342 637 363 627 b 481 747 399 659 429 699 b 770 939 564 822 661 886 b 528 561 642 736 562 611 b 329 281 454 450 388 357 b -52 218 175 267 48 246 b -341 26 -208 175 -304 111 b -358 -28 -351 3 -357 -15 b -359 -55 -359 -42 -359 -51 b -322 -168 -359 -95 -347 -133 b -214 -253 -296 -206 -260 -235 b -155 -269 -191 -262 -172 -267 b -120 -270 -138 -269 -127 -270 z m 481 290 b 623 507 530 364 578 436 b 741 700 667 576 707 641 b 823 844 776 758 803 806 l 823 841 b 689 355 823 822 779 660 b 671 293 680 324 674 304 b 481 290 587 293 524 292 z m -186 -140 b -232 -126 -205 -140 -220 -136 b -260 -62 -251 -113 -260 -91 b -251 -12 -260 -46 -257 -30 b 146 211 -218 85 -85 160 b 296 237 205 224 255 233 b 196 131 280 218 247 182 b -186 -140 16 -50 -111 -140 z "},"B":{"ha":913,"x_min":0,"x_max":0,"o":"m 161 -208 b 336 -185 212 -208 271 -200 b 568 -107 415 -168 492 -142 b 848 155 717 -40 810 47 b 861 229 857 180 861 205 b 842 317 861 260 855 289 b 724 435 819 366 779 406 b 631 468 696 449 665 460 b 770 570 679 495 726 529 b 882 701 815 612 852 655 b 939 861 920 758 939 812 b 906 961 939 899 928 932 b 677 1044 863 1016 786 1044 b 441 1003 600 1043 521 1029 b 241 901 360 977 294 943 b 179 835 214 880 194 858 b 149 743 159 803 149 772 b 182 670 149 713 160 688 b 238 644 196 657 214 648 b 294 763 241 683 259 722 b 419 864 328 802 369 836 b 620 926 490 905 557 926 b 752 866 679 926 724 905 b 767 830 762 852 766 840 b 768 812 768 820 768 814 b 731 697 768 777 755 739 b 624 572 705 653 670 612 b 475 483 578 534 528 503 b 570 688 505 560 536 629 b 671 816 606 752 640 795 b 572 845 644 835 611 845 b 456 800 524 845 486 830 b 378 680 431 774 406 734 b 303 503 349 622 324 564 b 239 224 260 384 239 290 b 260 156 239 189 246 166 b 340 128 286 138 312 128 b 383 136 355 128 369 131 b 382 149 382 139 382 144 b 429 355 382 186 398 254 b 463 357 441 357 452 357 b 539 347 490 357 515 354 b 631 296 576 337 606 320 b 659 257 642 285 652 271 b 669 220 665 242 669 230 b 669 202 669 210 669 204 b 660 151 669 186 666 169 b 239 71 491 131 351 104 b 19 -43 123 36 50 -2 b -4 -104 3 -63 -4 -83 b 23 -165 -4 -127 5 -147 b 161 -208 51 -193 97 -208 z m 157 -113 l 141 -113 b 90 -84 106 -113 90 -104 b 132 -32 90 -66 104 -50 b 416 67 188 3 282 36 b 562 98 471 80 519 90 b 646 111 606 105 634 110 b 412 -41 608 61 530 11 b 264 -93 362 -62 313 -80 b 157 -113 216 -106 180 -113 z "},"C":{"ha":647,"x_min":0,"x_max":0,"o":"m 271 -172 b 524 -26 351 -172 435 -123 b 708 235 591 47 653 135 b 711 248 710 239 711 243 b 698 272 711 259 707 267 b 684 275 693 275 689 275 b 661 262 675 275 667 271 b 629 209 661 260 650 243 b 424 -32 562 104 493 24 b 270 -98 370 -76 318 -98 b 163 47 199 -98 163 -50 b 263 425 163 146 197 271 b 376 646 295 499 333 572 b 496 820 416 714 456 772 b 617 909 546 880 587 909 b 645 884 635 909 645 901 b 589 722 645 846 626 792 b 506 602 564 677 537 637 b 407 530 473 565 439 541 b 510 464 431 486 466 464 b 569 476 529 464 549 468 b 666 541 604 490 636 511 b 748 658 701 574 728 613 b 776 779 766 699 776 739 b 690 966 776 848 747 911 b 543 1036 643 1011 594 1035 b 521 1034 535 1036 528 1036 b 336 922 460 1020 398 983 b 174 705 278 865 224 792 b 54 439 123 618 83 530 b -4 137 15 325 -4 224 b 22 6 -4 85 5 41 b 118 -106 43 -36 75 -73 b 182 -147 138 -122 160 -136 b 239 -170 205 -160 224 -168 b 271 -172 255 -171 265 -172 z "},"D":{"ha":882,"x_min":0,"x_max":0,"o":"m 56 -207 b 259 -178 115 -207 183 -197 b 731 140 457 -130 614 -23 b 865 405 791 224 836 313 b 904 642 891 487 904 566 b 884 789 904 694 897 743 b 761 972 861 867 819 928 b 532 1042 699 1019 623 1042 b 282 988 448 1042 365 1023 b 92 859 199 953 136 910 b 45 745 60 824 45 786 b 60 684 45 724 50 704 b 153 618 79 649 110 627 b 203 741 156 659 172 699 b 315 850 233 782 270 819 b 456 916 360 882 407 903 b 526 926 479 922 503 926 b 648 878 577 926 618 910 b 709 671 689 836 709 766 b 653 364 709 581 691 477 b 542 138 621 267 584 191 b -35 -16 268 115 75 64 b -88 -66 -58 -33 -76 -49 b -108 -104 -100 -83 -107 -95 b -109 -120 -109 -113 -109 -118 b -57 -188 -109 -149 -92 -172 b 56 -207 -29 -201 9 -207 z m 230 128 b 269 136 243 129 256 131 b 269 149 269 139 269 144 b 289 263 269 172 275 210 b 357 473 305 329 328 399 b 453 684 388 553 420 623 b 557 816 490 749 524 793 b 458 845 530 836 496 845 b 342 800 410 845 372 830 b 264 680 317 774 292 734 b 189 503 235 622 210 564 b 125 225 146 384 125 292 b 226 128 125 161 159 128 z m 47 -140 b -1 -132 26 -140 11 -138 b -26 -102 -18 -125 -26 -115 b 9 -52 -26 -86 -14 -70 b 176 22 41 -26 97 -2 b 492 79 263 48 369 68 b 377 -19 456 41 417 9 b 248 -88 336 -47 293 -70 b 102 -133 202 -106 153 -121 b 47 -140 81 -138 63 -140 z "},"E":{"ha":663,"x_min":0,"x_max":0,"o":"m 275 -172 b 533 -26 354 -172 439 -123 b 725 235 603 47 667 134 b 728 249 727 240 728 244 b 715 272 728 260 724 267 b 703 275 711 275 707 275 b 679 262 692 275 684 271 b 645 208 679 260 667 242 b 433 -33 575 103 504 23 b 364 -75 410 -50 387 -64 b 311 -93 339 -87 321 -92 b 291 -93 300 -93 293 -93 b 207 -48 255 -93 227 -78 b 180 52 189 -22 180 12 b 193 138 180 79 184 108 b 273 278 208 190 235 237 b 432 378 316 325 369 358 b 563 404 477 394 521 402 b 564 420 564 410 564 415 b 542 467 564 440 557 456 b 458 486 523 479 495 486 l 431 486 b 399 568 410 504 399 532 b 465 766 399 623 421 689 b 547 877 490 808 517 845 b 641 937 585 917 616 937 b 658 932 647 937 652 935 b 667 907 663 929 667 921 b 650 835 667 888 661 864 b 599 730 637 798 619 763 b 481 619 562 670 522 633 b 553 589 498 599 522 589 b 593 593 565 589 578 590 b 751 724 663 609 715 652 b 779 833 770 760 779 797 b 766 903 779 857 774 880 b 677 1000 749 943 720 975 b 543 1038 632 1025 587 1038 b 465 1015 519 1038 494 1031 b 355 930 428 995 391 966 b 260 804 317 891 286 849 b 214 648 230 748 214 696 b 315 466 214 574 248 513 b 192 418 269 454 228 437 b 98 350 155 398 124 375 b 35 269 71 325 50 298 b 3 189 18 239 8 212 b -3 128 -1 165 -3 145 b 31 -2 -3 83 8 39 b 187 -147 63 -63 115 -111 b 244 -170 210 -160 229 -168 b 275 -172 259 -171 269 -172 z "},"F":{"ha":625,"x_min":0,"x_max":0,"o":"m 211 845 b 298 859 237 851 267 856 b 379 863 330 861 357 863 b 425 863 401 863 416 863 b 618 858 477 863 542 862 b 801 853 688 854 749 853 b 930 858 857 853 900 854 b 1069 899 994 865 1040 878 b 1109 977 1096 918 1109 944 b 1078 1083 1109 1006 1099 1042 b 903 1001 1063 1028 1004 1001 b 778 1009 871 1001 829 1004 l 687 1019 b 455 1040 589 1033 511 1040 b 246 976 353 1040 283 1018 b 210 861 222 948 210 910 z m 57 -193 b 280 -25 144 -193 218 -137 b 393 290 321 48 358 153 b 452 292 416 292 437 292 b 564 279 475 292 512 288 b 598 393 568 311 579 349 b 611 446 607 417 611 435 b 542 491 611 475 588 491 b 515 490 534 491 525 490 b 516 475 516 485 516 480 b 508 431 516 464 513 449 l 497 397 b 479 338 488 374 481 353 b 436 339 465 338 450 339 l 406 338 l 436 465 b 486 671 456 555 473 624 b 543 810 505 737 524 784 b 488 822 526 818 508 822 b 368 770 445 822 405 804 b 262 537 330 732 294 655 b 212 320 242 462 225 389 b 44 222 149 301 93 269 b -58 75 -1 180 -35 131 b -85 -47 -77 33 -85 -8 b 1 -184 -85 -119 -57 -164 b 57 -193 18 -190 37 -193 z m 28 -117 l 19 -117 b 0 -106 12 -117 5 -113 b -10 -80 -5 -98 -9 -90 b -13 -56 -12 -70 -13 -62 b 6 35 -13 -27 -7 3 b 73 157 22 79 45 120 b 161 241 102 195 132 224 b 203 255 176 250 190 254 b 173 150 195 221 184 186 b 134 43 161 113 148 78 b 88 -49 119 9 104 -22 b 52 -100 75 -72 63 -89 b 28 -117 41 -111 33 -116 z "},"G":{"ha":815,"x_min":0,"x_max":0,"o":"m 597 -190 b 636 -184 610 -190 623 -188 b 630 -136 632 -174 630 -159 b 645 -2 630 -101 635 -56 b 691 174 655 55 671 114 b 804 360 725 272 762 334 b 699 384 772 376 737 384 b 544 355 661 384 609 374 b 404 328 481 337 434 328 b 345 337 384 328 364 331 b 340 288 341 318 340 302 b 413 214 340 238 364 214 b 549 242 444 214 489 223 l 522 186 b 460 66 500 142 480 102 b 272 -98 397 -43 335 -98 b 163 47 199 -98 163 -50 b 263 425 163 144 197 269 b 375 646 294 498 331 572 b 496 820 416 715 456 773 b 593 904 537 869 570 897 b 617 909 604 907 612 909 b 645 881 635 909 645 900 b 618 784 645 859 636 827 b 550 659 600 740 577 698 b 407 530 501 589 454 545 b 509 464 431 486 466 464 b 568 476 528 464 548 468 b 665 541 603 490 635 511 b 748 658 701 574 728 614 b 776 779 766 699 776 739 b 690 966 776 849 747 911 b 543 1036 642 1011 593 1035 b 427 994 510 1036 471 1022 b 250 823 366 956 307 899 b 106 574 195 749 147 666 b 16 306 65 482 35 393 b -4 139 3 245 -4 190 b 0 73 -4 116 -3 94 b 62 -55 7 28 28 -15 b 182 -147 96 -94 136 -124 b 237 -170 205 -160 223 -168 b 266 -172 250 -171 260 -172 b 505 38 347 -172 427 -102 b 498 -45 500 7 498 -21 b 500 -93 498 -62 498 -78 b 545 -174 505 -130 519 -157 b 597 -190 561 -184 578 -190 z "},"H":{"ha":1002,"x_min":0,"x_max":0,"o":"m 93 -237 b 581 252 269 -237 431 -75 b 629 251 608 252 625 252 l 655 251 l 656 250 b 696 249 681 250 694 250 b 715 248 703 249 710 249 b 742 247 725 248 734 248 b 720 99 728 187 720 138 b 749 5 720 56 730 25 b 848 -27 774 -16 806 -27 b 918 -14 876 -27 899 -23 b 897 57 904 -2 897 22 b 1013 517 897 130 936 283 b 1078 732 1048 628 1069 699 b 1097 829 1090 777 1097 810 b 1074 895 1097 854 1089 877 b 982 935 1053 922 1022 935 b 946 930 970 935 958 933 b 843 570 941 869 907 749 b 755 300 803 454 774 364 l 751 300 l 750 300 b 724 302 734 300 725 301 b 706 302 715 302 709 302 b 690 303 696 302 691 302 b 668 304 677 303 670 303 b 645 304 653 304 646 304 l 604 304 b 729 658 652 418 693 535 b 796 932 760 765 782 856 b 798 954 798 940 798 947 b 778 1014 798 977 791 997 b 705 1057 761 1034 736 1048 b 658 1062 690 1060 674 1062 b 599 1054 638 1062 618 1059 b 424 984 540 1036 481 1013 b 264 888 359 951 306 920 b 193 805 223 856 199 829 b 189 775 191 794 189 785 b 201 725 189 758 193 741 b 254 668 213 698 231 679 b 290 660 265 663 277 660 l 294 660 b 312 713 294 675 300 693 b 359 775 323 732 339 753 b 427 842 378 797 401 819 b 510 906 453 864 481 885 b 601 962 539 926 570 945 b 431 301 566 701 509 481 b 122 258 321 296 218 281 b -149 113 -12 225 -102 176 b -183 6 -172 78 -183 43 b -159 -87 -183 -26 -176 -56 b -62 -191 -138 -128 -106 -163 b 93 -237 -14 -222 39 -237 z m 6 -113 b -43 -96 -13 -113 -30 -107 b -81 -7 -68 -76 -81 -47 b -66 58 -81 14 -76 36 b 33 161 -47 100 -14 134 b 340 242 108 204 210 231 l 406 247 b 36 -109 307 48 183 -71 b 6 -113 25 -111 15 -113 z "},"I":{"ha":464,"x_min":0,"x_max":0,"o":"m 82 -168 b 215 -150 110 -168 154 -162 b 349 -132 279 -138 323 -132 b 408 -143 373 -132 393 -136 b 417 -104 414 -125 417 -112 b 410 -62 417 -85 414 -71 b 355 -33 401 -47 382 -37 b 311 -31 344 -31 330 -31 b 263 -34 296 -31 280 -32 b 385 390 267 39 308 180 b 519 761 455 581 500 704 b 549 885 539 821 549 862 b 545 916 549 896 547 906 b 643 928 587 922 620 926 b 736 915 686 928 717 924 b 748 956 743 935 747 949 b 740 1001 748 977 745 992 b 625 1038 724 1026 686 1038 b 473 1025 585 1038 534 1033 b 339 1013 405 1017 361 1013 l 313 1013 b 224 1029 281 1013 251 1019 b 214 964 217 1006 214 984 b 262 897 216 930 232 907 b 328 887 279 890 301 887 b 372 890 342 887 357 888 b 286 615 358 836 329 745 b 144 116 208 380 160 213 b 135 16 138 81 135 47 b 144 -50 135 -10 138 -32 b 81 -54 125 -52 104 -54 b 2 -39 50 -54 24 -48 b -6 -97 -3 -60 -6 -79 b 82 -168 -6 -144 23 -168 z "},"J":{"ha":676,"x_min":0,"x_max":0,"o":"m 159 -190 b 318 -127 212 -190 265 -169 b 469 49 371 -85 421 -26 b 592 289 515 119 555 199 b 674 550 627 375 654 462 b 703 779 693 636 703 712 b 628 994 703 887 677 958 b 468 1038 584 1023 531 1038 b 321 994 409 1038 359 1023 b 237 880 283 965 256 927 b 214 750 222 839 214 795 b 221 681 214 726 216 703 b 309 552 237 613 266 570 b 356 542 325 545 340 542 b 391 546 368 542 379 543 b 371 645 378 571 371 604 b 380 735 371 675 374 705 b 418 867 389 784 402 827 b 486 958 444 927 467 958 b 517 931 498 958 509 949 b 533 829 528 909 533 875 b 519 687 533 789 528 742 b 416 330 500 570 465 450 l 388 330 b 79 280 282 330 180 313 b -113 154 -18 248 -81 205 b -136 99 -126 132 -134 114 b -138 66 -138 84 -138 73 b -104 -42 -138 30 -127 -6 b 5 -145 -78 -83 -41 -118 b 153 -190 53 -172 102 -187 z m 64 -67 b 13 -50 45 -67 28 -62 b -30 14 -8 -35 -22 -14 b -35 52 -33 26 -35 39 b 52 192 -35 107 -5 154 b 182 248 87 215 130 233 b 393 277 250 267 320 277 b 163 -32 323 125 247 22 b 64 -67 127 -56 94 -67 z "},"K":{"ha":847,"x_min":0,"x_max":0,"o":"m 869 -193 b 1021 -67 937 -193 987 -151 b 779 41 935 -67 854 -31 b 659 195 731 86 691 138 b 600 359 627 252 608 307 b 773 446 647 372 705 401 b 968 597 842 490 907 540 b 1119 775 1033 657 1083 716 b 1164 908 1149 825 1164 869 b 1085 1026 1164 962 1138 1001 b 1038 1040 1070 1032 1055 1037 b 924 802 1013 952 975 873 b 831 683 901 768 870 728 b 618 477 757 595 686 526 b 651 623 632 527 643 576 b 664 732 659 671 663 707 b 665 779 665 756 665 772 b 627 956 665 856 652 915 b 530 1023 606 986 574 1008 b 433 1038 498 1034 466 1038 b 234 942 345 1038 279 1006 b 176 743 195 888 176 823 b 200 630 177 702 185 664 b 246 568 212 602 227 582 b 318 542 267 551 291 542 b 353 546 330 542 342 543 b 333 645 340 572 333 606 b 342 735 333 672 336 702 b 381 867 350 780 363 823 b 452 958 406 927 429 958 b 496 833 481 949 496 908 b 482 687 496 792 491 743 b 361 288 460 559 420 427 b 54 177 239 263 137 226 b -101 -24 -50 115 -101 48 b -58 -127 -101 -62 -87 -97 b 50 -186 -29 -157 7 -177 b 105 -193 70 -191 88 -193 b 368 -39 197 -193 285 -142 b 513 194 420 23 468 101 b 653 -85 539 77 586 -16 b 806 -181 694 -128 746 -160 b 869 -193 829 -189 850 -193 z m 33 -60 b -10 -49 16 -60 1 -56 b -26 -18 -21 -41 -26 -31 b 3 49 -26 1 -17 23 b 191 176 45 96 108 138 b 331 225 233 195 279 211 b 212 45 294 153 254 93 b 33 -60 151 -25 92 -60 z "},"L":{"ha":628,"x_min":0,"x_max":0,"o":"m 750 -269 b 926 -138 825 -266 884 -222 b 896 -142 918 -140 908 -142 b 675 -73 857 -142 783 -119 b 587 -35 646 -61 617 -48 b 426 33 528 -9 475 14 b 507 197 450 72 477 127 b 591 427 537 267 565 344 b 663 808 639 580 663 707 b 633 956 663 872 653 921 b 551 1019 616 983 589 1004 b 441 1038 518 1031 481 1038 b 291 994 382 1038 332 1023 b 203 880 253 965 224 928 b 171 730 181 833 171 783 b 189 630 171 695 177 661 b 231 568 199 602 214 582 b 302 542 252 551 276 542 b 338 546 315 542 327 543 b 322 628 328 567 322 595 b 337 735 322 659 327 695 b 382 865 348 781 363 825 b 454 958 411 927 435 958 b 480 939 464 958 473 951 b 496 861 490 922 496 896 b 410 456 496 769 467 634 b 307 187 377 353 342 263 b 255 93 288 149 271 118 b 107 117 197 109 148 117 b 30 105 78 117 52 113 b -51 34 -7 92 -35 68 b -67 -43 -62 11 -67 -15 b -50 -117 -67 -69 -62 -94 b 109 -193 -24 -168 28 -193 b 199 -177 138 -193 168 -188 b 336 -84 249 -159 295 -128 b 525 -199 419 -138 481 -176 b 741 -269 610 -245 682 -269 z m 51 -58 b 18 -52 37 -58 26 -56 b -9 -10 -1 -43 -9 -29 b 58 39 -9 22 13 39 b 182 5 92 39 133 27 b 51 -58 137 -37 93 -58 z "},"M":{"ha":1143,"x_min":0,"x_max":0,"o":"m -66 -316 b 62 -263 -24 -316 20 -298 b 357 262 147 -193 245 -18 b 530 781 429 441 486 614 b 511 656 524 748 518 706 b 489 493 503 605 496 551 b 468 321 481 435 474 378 b 454 180 461 265 456 218 b 449 89 450 141 449 111 b 475 -36 449 35 458 -7 b 520 -77 490 -61 505 -75 b 551 -81 536 -79 546 -81 b 630 -58 574 -81 600 -73 l 640 -7 b 745 343 662 100 697 216 b 1030 905 818 535 913 722 b 938 537 1014 811 983 688 b 873 300 909 444 888 366 b 838 55 850 208 839 125 b 886 -64 838 -3 853 -43 b 942 -79 902 -74 921 -79 b 1026 -56 967 -79 995 -72 b 1007 18 1014 -41 1007 -16 b 1166 581 1008 117 1061 304 b 1221 736 1196 664 1214 715 b 1236 811 1230 768 1236 793 b 1208 905 1236 844 1226 876 b 1117 999 1186 940 1156 971 b 1047 1037 1082 1023 1059 1036 b 890 810 1004 985 951 909 b 718 495 827 708 770 603 b 595 176 661 376 620 270 b 656 627 601 283 621 433 b 680 792 672 716 680 771 b 669 882 680 821 676 850 b 621 983 659 922 642 956 b 528 1034 596 1015 565 1031 b 453 1020 507 1034 482 1029 b 281 947 401 1005 344 980 b 127 848 218 913 166 880 b 64 772 89 818 68 793 b 62 747 62 762 62 754 b 76 690 62 728 66 709 b 132 633 90 663 109 644 b 170 625 144 628 157 625 l 172 625 b 188 677 172 641 178 658 b 231 740 198 697 212 718 b 295 806 249 762 271 783 b 374 870 319 828 346 849 b 461 926 401 890 431 909 b 413 791 446 886 430 842 b 329 557 380 696 352 618 b -48 -78 205 227 79 16 b -217 -140 -104 -119 -160 -140 b -316 -121 -250 -140 -283 -134 b -281 -177 -306 -140 -294 -159 b -238 -229 -269 -195 -254 -213 b -188 -273 -222 -246 -206 -260 b -132 -304 -170 -286 -151 -296 b -85 -316 -112 -311 -96 -315 b -66 -316 -74 -316 -68 -316 z "},"N":{"ha":1002,"x_min":0,"x_max":0,"o":"m 21 -316 b 150 -263 64 -316 107 -298 b 461 302 239 -190 343 -1 b 631 844 543 516 600 696 b 600 392 610 673 600 523 b 753 -73 600 108 651 -47 b 785 -79 762 -77 772 -79 b 865 -56 804 -79 831 -71 b 851 -24 857 -46 852 -36 b 850 1 850 -14 850 -5 b 930 300 850 58 877 157 b 1009 492 954 360 980 425 b 1085 666 1034 550 1060 608 b 1129 782 1110 724 1124 762 b 1135 823 1133 796 1135 810 b 1028 999 1135 887 1099 945 b 961 1037 995 1023 972 1036 b 884 703 946 937 920 825 l 836 542 b 730 148 783 378 747 248 b 717 325 721 197 717 256 b 724 486 717 374 720 428 b 745 684 728 528 735 595 b 755 788 752 737 755 772 b 745 882 755 819 752 850 b 703 983 736 922 723 956 b 623 1033 682 1014 655 1030 l 614 1034 b 540 1020 595 1034 570 1029 b 368 947 485 1003 428 979 b 214 848 307 914 256 881 b 152 772 177 818 156 793 b 149 747 150 762 149 754 b 163 690 149 728 154 709 b 220 633 178 663 196 644 b 260 625 231 628 245 625 b 319 740 260 654 279 692 b 462 870 355 784 403 827 b 549 926 490 890 519 909 b 500 791 534 886 518 842 b 313 308 433 593 371 432 b 39 -78 223 119 132 -10 b -130 -140 -16 -119 -73 -140 b -229 -121 -163 -140 -195 -134 b -194 -177 -218 -140 -207 -159 b -151 -229 -181 -195 -166 -213 b -100 -273 -135 -246 -119 -260 b -44 -304 -83 -286 -64 -296 b 3 -315 -24 -311 -9 -315 b 21 -316 14 -316 20 -316 z "},"O":{"ha":787,"x_min":0,"x_max":0,"o":"m 289 -189 b 543 -44 376 -189 462 -140 b 671 159 591 12 633 79 b 753 409 708 239 736 322 b 771 579 765 469 771 526 b 612 963 771 751 718 879 b 414 1030 553 1008 488 1030 b 231 982 351 1030 290 1014 b 80 840 168 947 118 900 b -7 530 22 751 -7 647 b 31 329 -7 456 6 389 b 2 127 12 258 2 191 b 156 -153 2 -5 53 -99 b 289 -189 199 -176 243 -189 z m 220 -90 b 185 -62 205 -90 193 -81 b 174 7 178 -44 174 -21 b 191 170 174 47 180 101 b 264 159 214 162 238 159 b 385 184 300 159 340 167 b 407 217 399 190 407 201 b 397 243 407 227 404 236 b 269 216 351 225 309 216 b 203 227 246 216 224 220 b 431 674 248 427 324 576 b 486 717 453 693 471 707 l 508 728 b 454 777 490 749 472 765 b 406 798 435 788 419 795 b 370 802 391 800 380 802 b 290 782 344 802 317 795 b 172 668 239 755 199 718 b 62 425 129 589 92 508 b 56 518 58 450 56 481 b 98 708 58 585 73 648 b 206 859 124 770 160 821 b 411 933 268 909 336 933 b 540 893 460 933 503 920 b 635 670 603 846 635 772 b 553 327 635 572 608 458 b 452 130 522 255 489 189 b 229 -89 372 -5 297 -78 z "},"P":{"ha":644,"x_min":0,"x_max":0,"o":"m 119 -188 b 170 -174 136 -187 153 -183 b 157 -147 163 -167 158 -157 b 155 -124 156 -137 155 -130 b 234 176 155 -65 182 35 b 436 253 301 185 368 210 b 613 403 500 293 560 343 b 741 593 667 463 709 526 b 778 691 757 626 769 659 b 791 764 787 723 791 747 b 792 793 792 781 792 791 b 742 943 792 853 775 903 b 471 1036 688 1005 598 1036 b 267 1004 403 1036 334 1025 b 3 795 123 958 35 888 b -6 753 -3 777 -6 763 l -6 737 b 2 691 -6 722 -3 706 b 29 652 8 677 17 663 b 75 624 41 640 56 631 b 139 753 81 669 102 712 b 271 856 176 795 220 829 b 450 905 334 888 393 905 b 561 873 496 905 532 895 b 599 825 578 860 590 844 b 612 777 608 806 612 790 b 613 753 613 764 613 756 b 581 610 613 710 602 663 b 486 450 557 555 526 501 b 271 273 419 366 348 307 b 393 595 340 450 380 557 b 420 705 411 648 420 684 b 403 758 420 725 414 743 b 293 804 379 789 342 804 b 250 799 279 804 264 802 b 195 593 242 751 224 683 b 84 245 132 396 95 280 b 24 -55 43 110 24 10 b 51 -154 24 -102 33 -135 b 119 -188 72 -176 94 -188 z "},"Q":{"ha":779,"x_min":0,"x_max":0,"o":"m 503 -366 b 574 -342 528 -366 552 -358 b 621 -263 600 -323 615 -297 b 581 -235 608 -260 595 -250 b 539 -175 567 -219 553 -199 b 498 -92 525 -151 511 -123 b 631 84 547 -45 591 13 b 728 311 672 155 704 231 b 771 582 757 406 771 496 b 738 786 771 658 760 726 b 611 964 711 860 669 919 b 414 1030 553 1008 488 1030 b 231 982 350 1030 289 1014 b 79 840 168 947 118 900 b -7 530 22 751 -7 647 b 31 329 -7 456 6 389 b 1 134 12 256 1 191 b 156 -153 1 -3 53 -98 b 286 -189 199 -176 242 -189 b 372 -173 315 -189 345 -183 b 431 -327 391 -242 410 -294 b 503 -366 447 -353 471 -366 z m 432 97 b 419 163 429 106 424 128 b 413 227 415 188 413 209 b 415 252 413 237 414 245 b 263 218 361 230 311 218 b 203 227 240 218 220 221 b 357 592 238 379 290 500 b 507 728 402 653 452 699 b 370 802 467 777 421 802 b 290 782 343 802 317 795 b 172 668 241 758 201 720 b 61 425 128 589 92 508 b 55 498 57 449 55 473 b 144 791 55 609 85 707 b 269 900 177 839 219 876 b 410 933 315 922 361 933 b 540 893 459 933 503 920 b 634 672 603 847 634 773 b 604 474 634 613 624 547 b 432 97 568 345 511 219 z m 220 -90 b 174 16 189 -90 174 -54 b 176 61 174 31 174 45 b 180 104 177 76 178 90 b 186 141 182 118 184 130 b 191 166 189 152 190 160 b 191 170 191 168 191 169 b 258 159 213 162 235 159 b 323 165 279 159 300 161 b 341 -20 325 106 331 45 b 229 -89 300 -60 262 -83 z "},"R":{"ha":646,"x_min":0,"x_max":0,"o":"m 548 -193 b 716 -67 616 -193 671 -151 l 707 -67 b 565 -24 658 -67 610 -53 b 445 94 519 5 479 45 b 370 247 410 144 386 195 b 553 366 435 275 496 315 b 700 534 611 418 660 473 b 795 804 763 631 795 720 b 741 949 795 862 777 910 b 473 1036 688 1007 598 1036 b 269 1005 406 1036 338 1026 b 92 918 198 983 139 955 b 34 859 68 900 48 880 b -3 751 9 822 -3 786 b 77 640 -3 696 24 660 b 98 704 80 661 87 683 b 142 765 110 725 124 745 b 202 819 159 784 180 802 b 273 863 224 836 248 850 b 351 894 298 876 324 886 b 414 908 377 902 398 907 b 449 910 430 909 441 910 b 600 835 525 910 576 885 b 614 789 609 817 614 802 b 616 762 615 776 616 767 b 587 633 616 723 606 680 b 495 481 565 583 535 532 b 286 307 433 403 363 345 b 358 491 312 372 336 433 b 422 705 401 603 422 674 b 406 758 422 725 417 743 b 296 804 382 789 345 804 b 252 799 281 804 267 802 b 198 593 245 751 227 683 l 157 465 b 36 43 92 269 51 128 b 26 -58 29 5 26 -28 b 54 -154 26 -103 35 -135 b 122 -188 75 -176 97 -188 b 173 -174 138 -187 155 -183 b 160 -146 165 -166 161 -157 b 158 -123 159 -136 158 -128 b 242 192 158 -65 186 40 b 486 -181 262 -5 344 -129 b 548 -193 507 -189 528 -193 z "},"S":{"ha":615,"x_min":0,"x_max":0,"o":"m 201 -190 b 320 -165 241 -190 280 -182 b 457 -72 368 -145 414 -114 b 547 54 496 -33 526 9 b 570 145 562 87 570 117 b 429 252 570 216 523 252 l 369 251 b 323 254 349 251 334 252 b 261 348 281 261 261 292 b 342 623 261 421 288 512 b 436 785 372 682 403 736 b 532 902 469 835 501 873 b 590 935 555 924 575 935 b 608 919 602 935 608 930 b 568 744 608 876 595 817 b 506 604 551 697 531 650 b 389 471 464 528 425 484 b 439 446 408 459 425 450 b 488 440 454 442 470 440 b 574 458 515 440 545 446 b 650 536 600 468 626 494 b 707 678 675 578 694 625 b 722 800 717 722 722 762 b 707 903 722 838 717 873 b 623 1000 692 943 664 975 b 488 1038 576 1025 531 1038 b 405 1008 463 1038 435 1028 b 273 880 362 980 319 937 b 154 689 225 820 186 757 b 94 442 114 603 94 521 b 136 269 94 368 108 310 b 266 186 166 224 210 196 b 340 179 291 181 316 179 l 378 180 b 423 161 408 180 423 174 b 340 61 423 138 395 105 b 250 0 306 35 276 15 b 118 -48 195 -32 151 -48 b 66 17 83 -48 66 -26 b 75 57 66 33 69 47 b 56 60 68 59 62 60 b 4 -35 22 60 4 28 b 31 -122 4 -69 13 -98 b 157 -186 56 -155 98 -177 b 201 -190 172 -189 187 -190 z "},"T":{"ha":358,"x_min":0,"x_max":0,"o":"m -82 818 b 147 867 -45 849 31 865 b 364 860 198 867 271 865 b 552 854 449 856 511 854 b 671 858 601 854 641 855 b 849 975 790 869 849 908 b 815 1083 849 1004 838 1040 b 739 1014 805 1048 779 1025 b 629 1001 711 1005 674 1001 l 593 1002 b 505 1009 566 1003 536 1006 b 410 1020 474 1013 442 1016 b 315 1031 378 1023 347 1027 b 231 1038 283 1034 255 1036 b 170 1039 208 1038 187 1039 b 56 1029 124 1039 86 1036 b -85 862 -39 1008 -85 952 b -82 818 -85 848 -84 833 z m 131 -188 b 182 -174 147 -187 164 -183 b 166 -117 172 -163 166 -144 b 276 281 166 -49 203 83 l 358 502 b 419 715 399 614 419 686 b 401 772 419 737 413 756 b 290 819 377 804 340 819 b 248 814 276 819 262 817 b 156 474 239 751 209 638 b 90 252 123 366 100 292 b 33 -52 52 117 33 16 b 62 -153 33 -100 43 -134 b 131 -188 84 -176 107 -188 z "},"U":{"ha":867,"x_min":0,"x_max":0,"o":"m 673 -189 b 724 -173 689 -189 706 -184 b 711 -138 717 -163 712 -151 b 709 -106 709 -125 709 -114 b 728 33 709 -71 715 -25 b 863 505 750 136 795 293 b 946 778 901 621 928 711 b 974 919 964 844 974 892 b 815 1036 974 997 921 1036 l 790 1036 b 795 1014 793 1032 795 1025 b 780 928 795 996 790 968 b 589 422 745 800 682 631 b 456 153 543 321 498 231 b 275 -95 382 18 321 -64 b 307 70 277 -52 288 3 b 370 269 322 125 343 191 b 440 484 397 347 420 418 b 490 768 473 598 490 692 b 477 880 490 810 486 847 b 248 1038 450 985 373 1038 b 101 994 189 1038 140 1023 b 18 880 64 965 36 927 b -6 750 2 839 -6 795 b 1 681 -6 726 -3 703 b 89 552 17 613 46 570 b 136 542 105 545 121 542 b 171 546 148 542 159 543 b 151 650 157 572 151 606 b 160 735 151 675 154 703 b 199 867 170 784 182 827 b 267 958 224 927 247 958 l 269 958 b 317 854 301 949 317 915 b 304 726 317 820 313 777 b 227 406 290 650 264 543 b 168 174 197 290 177 213 b 134 -52 145 74 134 -1 b 155 -147 134 -96 141 -128 b 210 -186 172 -171 190 -184 b 227 -188 218 -187 223 -188 b 463 45 290 -188 369 -111 b 694 536 536 165 613 329 b 579 -32 618 264 579 75 b 605 -147 579 -85 588 -124 b 659 -188 624 -172 642 -185 b 673 -189 666 -189 671 -189 z "},"V":{"ha":642,"x_min":0,"x_max":0,"o":"m 267 -188 b 301 -181 279 -187 290 -185 b 334 -167 312 -178 323 -173 b 366 -149 344 -161 355 -155 b 362 -126 363 -142 362 -135 b 501 220 362 -66 408 49 b 829 728 602 405 711 574 b 1026 930 919 847 985 914 l 1027 945 b 997 1037 1027 983 1017 1014 b 923 1072 977 1060 953 1072 b 871 1056 905 1071 887 1066 b 746 907 838 1034 795 985 b 457 347 661 775 565 588 b 313 -7 390 197 342 80 b 319 84 313 21 315 52 b 332 185 322 116 327 150 b 350 294 338 220 344 257 b 368 407 356 332 361 369 b 382 521 373 445 378 483 b 392 622 387 559 390 593 b 394 699 393 652 394 677 b 310 987 394 831 366 926 b 175 1033 278 1017 233 1033 b 78 1019 142 1033 110 1028 b -36 949 31 1004 -7 981 b -99 820 -67 913 -88 871 b -106 748 -104 796 -106 772 b -83 621 -106 701 -98 658 b -31 542 -68 586 -52 560 b 46 510 -7 520 18 510 b 107 524 68 510 88 515 b 65 698 79 561 65 618 b 71 779 65 725 66 752 b 98 901 76 827 85 867 b 136 950 111 934 123 950 b 195 887 163 949 183 928 b 208 746 203 854 208 807 b 204 627 208 709 207 669 b 185 398 201 584 195 507 b 161 35 170 237 161 117 b 178 -115 161 -30 167 -80 b 236 -182 190 -150 209 -172 b 267 -188 246 -186 256 -188 z "},"W":{"ha":995,"x_min":0,"x_max":0,"o":"m 269 -189 b 335 -175 290 -189 312 -184 l 335 -173 b 417 30 335 -152 362 -84 b 528 276 465 132 503 214 b 620 549 569 375 600 466 b 600 372 618 527 611 468 b 572 62 582 230 572 127 b 636 -166 572 -52 593 -129 b 686 -186 650 -180 667 -186 b 745 -164 705 -186 725 -179 b 744 -144 744 -158 744 -152 b 781 12 744 -107 756 -55 b 902 280 810 90 850 180 b 1067 570 951 376 1006 473 b 1234 810 1128 668 1183 748 b 1360 930 1287 878 1329 917 l 1360 935 b 1328 1036 1360 977 1350 1011 b 1251 1072 1306 1059 1280 1072 b 1200 1056 1232 1071 1215 1066 b 962 676 1142 1018 1063 891 b 839 393 920 585 878 491 b 706 33 783 254 739 134 b 722 176 709 57 714 105 b 758 688 746 414 758 585 b 726 843 758 760 747 811 b 679 882 710 867 694 880 b 648 885 663 884 653 885 b 570 863 625 885 599 878 l 570 863 b 557 693 569 803 565 747 b 311 -12 526 457 443 222 b 309 39 309 5 309 22 b 322 199 309 86 313 139 b 361 414 329 245 342 317 b 402 634 380 505 394 578 b 410 753 407 674 410 714 b 382 914 410 816 400 869 b 290 1017 359 967 328 1002 b 203 1033 264 1027 235 1033 b 106 1019 170 1033 138 1028 b -12 949 58 1005 19 981 b -93 727 -66 891 -93 817 b -75 621 -93 688 -87 653 b -26 542 -62 586 -46 560 b 48 510 -5 520 20 510 b 111 524 69 510 90 515 b 76 667 87 555 76 603 b 86 779 76 702 79 739 b 120 899 94 826 105 866 b 161 950 134 933 148 950 b 224 804 203 949 224 900 b 182 406 224 724 210 591 b 139 3 153 215 139 81 b 153 -104 139 -43 144 -79 b 269 -189 174 -161 213 -189 z "},"X":{"ha":876,"x_min":0,"x_max":0,"o":"m 114 -186 b 153 -183 125 -186 138 -184 b 321 -90 201 -176 258 -145 b 608 239 397 -25 492 85 b 650 117 622 197 635 156 l 661 81 b 758 -130 690 -17 722 -87 b 859 -184 788 -166 822 -184 b 971 -138 893 -184 930 -169 b 871 -16 935 -115 902 -74 b 795 176 846 31 820 96 b 730 406 777 233 755 309 l 850 573 b 1175 953 983 760 1091 886 b 1270 1004 1215 984 1246 1001 b 1187 1045 1247 1031 1219 1045 b 869 810 1110 1044 1004 965 b 684 584 814 749 753 673 b 605 819 658 676 632 754 b 433 1023 556 932 499 1000 b 395 1035 418 1031 406 1034 b 376 1035 386 1035 379 1035 b 290 1014 349 1035 320 1028 b 127 821 204 973 149 909 b 115 722 119 788 115 755 b 135 585 115 673 121 628 b 193 478 149 542 168 507 b 283 427 222 444 252 427 b 362 456 312 427 338 437 b 326 532 350 469 338 494 b 297 658 314 570 304 612 b 282 806 287 716 282 766 b 316 918 282 881 293 918 b 362 886 328 918 344 907 b 459 696 392 850 424 786 b 553 413 481 636 513 542 b 237 28 414 225 309 97 b 122 -49 192 -16 153 -41 b 93 -52 112 -51 102 -52 b 17 -31 66 -52 41 -45 b 2 -20 12 -28 7 -24 b -6 -75 -3 -44 -6 -62 b 48 -173 -6 -123 12 -156 b 114 -186 65 -182 87 -186 z "},"Y":{"ha":854,"x_min":0,"x_max":0,"o":"m 370 -288 b 475 -266 406 -288 441 -281 b 608 -142 528 -242 572 -201 b 735 149 637 -96 680 1 b 883 571 789 292 838 433 b 973 917 943 760 973 875 b 886 1029 973 977 944 1015 b 815 1036 866 1034 842 1036 l 790 1036 b 796 1015 794 1031 796 1025 b 783 946 796 1000 791 977 b 714 764 768 897 745 836 b 481 319 645 605 568 456 b 307 111 411 210 353 140 b 337 263 309 157 319 208 b 397 425 353 310 372 364 b 465 608 427 499 450 560 b 494 781 484 673 494 730 b 481 874 494 812 490 844 b 408 994 467 929 441 969 b 248 1038 365 1023 312 1038 b 100 994 189 1038 139 1023 b 18 880 64 964 36 927 b -6 751 2 839 -6 795 b 1 681 -6 726 -3 703 b 89 552 17 613 46 570 b 136 542 105 545 121 542 b 171 546 148 542 159 543 b 151 648 157 572 151 606 b 160 735 151 674 154 703 b 199 866 168 781 181 825 b 266 958 224 927 247 958 l 269 958 b 319 862 302 949 319 917 b 299 720 319 827 312 779 b 245 517 290 682 272 614 b 191 311 218 422 200 353 b 166 144 174 240 166 184 b 176 74 166 115 169 92 b 257 18 188 37 215 18 b 380 65 298 18 338 33 b 580 334 441 113 508 203 l 621 408 b 694 536 654 470 679 513 b 687 510 692 528 689 519 b 636 333 665 431 648 372 b 245 -140 536 18 406 -140 b 141 -121 211 -140 176 -134 b 162 -178 144 -141 151 -160 b 203 -227 173 -196 186 -212 b 260 -263 220 -241 239 -253 b 319 -283 281 -273 300 -280 b 370 -288 338 -287 355 -288 z "},"Z":{"ha":727,"x_min":0,"x_max":0,"o":"m 76 -245 b 186 -234 107 -245 144 -241 b 354 -198 226 -227 281 -215 b 519 -161 423 -180 478 -169 b 602 -155 549 -157 576 -155 b 720 -221 668 -155 707 -176 b 746 -147 734 -189 743 -164 b 750 -110 749 -131 750 -119 b 717 -38 750 -78 739 -54 b 597 -10 691 -20 651 -11 b 515 -14 572 -10 545 -12 b 424 -25 486 -17 456 -20 b 328 -40 392 -30 360 -35 l 393 18 b 648 356 467 97 552 209 b 777 575 698 433 741 505 b 887 892 850 715 887 821 b 882 931 887 907 885 920 b 740 1021 869 972 821 1002 b 612 1037 693 1031 650 1037 b 429 996 549 1037 488 1023 b 280 897 373 970 323 938 b 188 779 239 859 208 819 b 161 685 170 744 161 712 b 254 578 161 631 193 595 b 276 574 260 576 268 574 b 321 650 279 590 294 615 b 419 753 346 680 378 715 b 538 855 456 789 496 822 b 648 922 578 885 615 907 b 690 932 665 929 679 932 b 724 892 713 932 724 919 b 711 826 724 876 720 853 b 538 485 681 741 623 627 b 395 270 492 408 445 336 b 65 -43 273 107 163 3 b -1 -65 37 -56 16 -63 b -37 -68 -18 -67 -31 -68 b -92 -60 -56 -68 -75 -66 b -94 -90 -93 -70 -94 -80 b -63 -195 -94 -134 -83 -170 b 31 -242 -41 -222 -9 -237 b 76 -245 48 -244 63 -245 z "},"[":{"ha":361,"x_min":0,"x_max":0,"o":"m 283 -77 b 256 -1 283 -45 274 -20 b 161 29 234 19 203 29 l 143 28 b 205 280 155 93 175 176 b 303 575 236 389 269 487 b 414 812 342 679 380 758 b 465 808 429 810 446 808 b 548 833 498 808 526 817 b 580 913 569 850 580 877 b 515 903 559 906 537 903 b 489 903 503 903 494 903 b 392 911 470 905 437 908 b 366 913 383 913 375 913 b 290 891 340 913 315 906 b 247 852 273 881 259 868 b 177 722 226 823 203 779 b 106 536 152 665 128 603 b 43 327 81 462 60 393 b -5 42 11 201 -5 106 b 12 -35 -5 3 0 -23 b 90 -73 37 -60 63 -73 b 205 -65 101 -73 140 -71 l 218 -64 b 283 -77 241 -64 262 -68 z "},"\\":{"ha":564,"x_min":0,"x_max":0,"o":"m 429 -12 l 449 -7 b 529 77 503 4 529 32 b 522 127 529 92 526 109 b 488 199 513 157 502 180 b 71 772 214 573 75 764 b 56 815 60 789 56 803 b 60 831 56 820 57 825 b -31 800 28 831 -1 821 b -77 725 -62 779 -77 753 b -62 674 -77 708 -72 691 b 93 471 -39 641 12 574 b 389 68 236 294 334 160 b 429 -12 406 39 420 12 z "},"]":{"ha":586,"x_min":0,"x_max":0,"o":"m -44 -77 b 21 -64 -24 -68 -2 -64 b 50 -66 31 -64 40 -65 b 170 -75 127 -72 166 -75 b 289 -14 218 -75 258 -55 b 431 302 332 45 379 151 b 533 702 484 464 518 597 b 542 796 539 743 542 774 b 524 872 542 834 536 859 b 446 911 499 898 473 911 b 398 908 442 911 426 910 b 315 903 359 905 332 903 b 253 913 294 903 273 906 b 260 870 253 897 256 882 b 280 839 265 857 271 847 b 311 819 289 830 299 824 b 345 810 322 814 334 811 b 374 808 356 809 366 808 l 393 809 b 332 557 380 741 360 657 b 122 25 258 311 189 133 b 71 29 106 28 90 29 b -11 4 37 28 9 20 b -44 -77 -33 -14 -44 -41 z "},"^":{"ha":326,"x_min":0,"x_max":0,"o":"m 26 565 b 180 748 118 673 170 734 b 224 647 198 705 212 671 b 255 602 235 624 245 609 b 286 591 265 594 275 591 b 299 592 290 591 295 591 l 205 819 b 182 831 202 827 195 831 b 149 827 171 831 160 829 b 100 803 125 821 109 812 b 17 694 55 746 27 709 b -6 627 1 667 -6 644 b 26 565 -6 602 5 581 z "},"_":{"ha":563,"x_min":0,"x_max":0,"o":"m 207 -9 b 283 -5 231 -8 256 -7 b 353 -3 309 -5 332 -4 b 406 -2 374 -3 391 -2 b 526 -8 449 -2 489 -4 b 534 35 532 8 534 22 b 436 106 534 74 501 98 b 341 111 412 109 380 111 b 235 107 315 111 279 110 b 124 104 189 105 152 104 b 48 109 96 104 71 106 b 5 119 31 111 17 114 b -6 70 -3 100 -6 83 b 5 32 -6 54 -3 41 b 80 -3 18 14 43 3 b 172 -9 102 -7 132 -9 z "},"`":{"ha":192,"x_min":0,"x_max":0,"o":"m 123 631 b 152 652 134 632 144 639 b 164 694 160 664 164 678 b 136 793 164 732 155 765 b 73 829 119 817 99 829 b 40 825 62 829 51 827 b 11 813 28 821 19 818 b -7 798 3 808 -3 804 b 54 734 15 784 35 763 b 97 654 74 705 88 677 b 123 631 103 639 112 631 z "},"a":{"ha":576,"x_min":0,"x_max":0,"o":"m 427 -6 b 591 138 486 -6 541 42 b 629 221 602 158 614 186 b 654 268 638 241 646 257 b 635 272 648 270 642 271 b 617 273 629 273 623 273 b 575 243 596 271 583 262 b 526 144 567 219 550 186 b 477 73 507 111 491 87 b 455 59 468 64 460 59 b 448 76 450 59 448 64 b 471 204 448 100 456 142 b 484 266 479 233 484 253 b 472 309 484 281 479 296 b 419 352 460 328 443 342 b 340 366 395 361 369 366 l 341 353 b 327 269 341 330 336 302 b 292 175 317 235 306 204 b 217 77 268 125 243 93 b 195 71 208 73 201 71 b 180 81 190 71 184 74 b 161 151 167 98 161 122 b 189 269 161 184 170 223 b 240 367 202 303 219 336 b 374 498 279 426 323 469 b 418 514 394 509 408 514 b 431 507 425 514 429 511 b 435 491 433 502 435 497 b 423 438 434 477 430 459 b 416 408 418 425 416 415 b 420 392 416 401 418 396 b 458 372 426 384 438 377 b 493 499 481 419 493 461 b 489 533 493 511 492 523 b 430 578 481 558 462 573 l 416 580 b 333 587 385 585 357 587 b 281 582 312 587 294 585 b 204 549 256 576 231 565 b 117 478 173 530 144 507 b 9 292 66 425 30 362 b -6 191 -1 258 -6 224 b 9 104 -6 159 -1 130 b 54 47 18 83 33 64 b 122 8 74 30 96 17 b 195 -6 148 -1 172 -6 b 310 72 238 -4 277 22 b 345 27 318 55 330 40 b 415 -5 372 7 395 -4 z "},"b":{"ha":543,"x_min":0,"x_max":0,"o":"m 149 -5 b 259 21 181 -5 218 3 b 395 121 310 43 355 77 b 473 242 427 157 452 197 b 515 421 501 304 515 363 b 494 515 515 460 509 491 b 429 572 480 539 458 558 b 348 587 404 582 377 587 b 218 528 296 587 253 568 l 227 551 b 346 809 272 693 312 779 b 253 845 319 833 288 845 b 174 821 224 845 198 837 b 107 727 153 805 130 774 b 46 566 84 681 64 627 b -5 271 12 453 -5 355 b 52 148 -5 206 14 165 b 76 140 62 143 70 140 b 115 144 93 140 106 141 b 147 163 126 149 137 155 b 165 275 147 195 153 232 b 240 458 186 350 211 411 b 315 518 265 498 290 518 b 351 454 339 517 351 496 b 336 366 351 429 345 399 b 241 164 315 292 283 224 b 104 64 193 98 147 64 b 79 97 87 64 79 75 b 82 119 79 106 80 113 b 64 122 76 121 71 121 b 19 87 34 122 19 111 b 29 51 19 75 22 63 b 149 -5 48 14 87 -5 z "},"c":{"ha":469,"x_min":0,"x_max":0,"o":"m 229 -5 b 309 13 256 -5 282 1 b 378 56 335 24 358 39 b 502 201 421 90 463 138 l 547 275 b 517 290 539 285 529 290 b 472 261 496 290 481 280 b 380 138 452 220 421 179 b 239 56 326 83 279 56 b 177 96 213 56 193 69 b 163 158 168 114 163 135 b 227 363 163 220 184 288 b 356 499 263 425 306 470 b 361 502 357 500 359 500 b 378 509 363 503 370 506 b 388 511 381 510 385 511 b 394 502 392 511 394 508 b 361 418 391 482 380 454 b 328 368 349 395 337 378 b 392 346 349 353 370 346 b 435 360 408 346 422 351 b 475 414 453 372 467 391 b 484 471 481 433 484 452 b 451 560 484 510 473 539 b 326 587 430 578 389 587 b 258 582 300 587 277 585 b 181 548 236 578 210 566 b 35 379 118 508 70 452 b -6 206 7 322 -6 264 b 16 104 -6 170 1 136 b 68 41 27 79 44 58 b 229 -5 112 10 165 -5 z "},"d":{"ha":561,"x_min":0,"x_max":0,"o":"m 194 -6 b 264 19 215 -5 239 3 b 328 77 290 35 311 54 b 351 27 332 53 340 36 b 432 -5 378 5 405 -5 b 476 3 447 -5 462 -3 b 473 41 474 12 473 24 b 486 174 473 71 477 115 b 519 355 493 231 505 291 b 629 709 553 508 590 626 b 696 810 653 760 675 793 b 591 844 667 833 632 844 b 514 821 563 844 537 837 b 394 576 473 794 433 712 b 330 585 374 582 353 585 b 239 567 301 585 271 579 b 52 396 164 538 102 481 b -7 193 13 328 -7 260 b 54 47 -7 129 13 80 b 122 8 73 31 96 18 b 194 -6 146 -1 170 -6 z m 196 71 b 179 81 189 71 184 75 b 161 144 167 98 161 119 b 187 258 161 175 170 213 b 211 314 195 280 203 298 b 313 475 242 380 276 433 b 344 499 326 489 336 497 b 347 494 347 499 347 497 b 330 436 347 479 341 460 b 304 396 318 412 309 399 b 315 386 307 393 311 389 b 342 377 321 380 330 377 b 317 221 330 321 321 269 b 272 136 305 191 290 163 b 216 79 254 109 236 90 b 196 71 208 74 201 71 z "},"e":{"ha":475,"x_min":0,"x_max":0,"o":"m 231 -5 b 378 55 282 -4 331 16 b 505 204 425 94 467 143 l 519 229 b 550 281 525 240 535 257 b 520 298 543 292 532 297 b 474 267 500 298 485 288 b 380 141 450 222 419 180 b 239 56 326 85 279 56 b 204 66 225 56 214 60 b 162 167 176 86 162 119 b 180 257 162 193 168 224 b 220 254 192 255 205 254 b 297 269 245 254 271 259 b 437 375 352 292 399 327 b 476 442 454 396 467 418 b 487 492 484 461 487 477 b 448 565 487 527 474 551 b 325 588 420 581 378 588 b 229 574 282 588 250 583 b 132 513 194 560 161 540 b 12 323 75 462 35 399 b -7 211 -1 286 -7 248 b 16 104 -7 171 1 136 b 71 41 27 79 45 58 b 231 -5 113 10 167 -5 z m 205 316 b 254 399 219 344 235 372 b 360 503 290 450 325 485 b 389 513 371 508 380 511 b 397 503 394 513 397 509 b 391 479 397 496 395 489 b 317 377 374 443 350 409 b 278 345 304 364 291 353 b 205 316 251 327 227 317 z "},"f":{"ha":281,"x_min":0,"x_max":0,"o":"m 117 -330 b 113 -256 115 -309 113 -285 b 159 161 113 -146 128 -7 b 275 602 190 330 229 477 b 436 618 338 612 391 618 b 518 606 471 618 498 614 b 528 651 525 623 528 637 b 392 720 528 697 483 720 b 325 718 370 720 348 720 b 429 861 357 784 391 831 b 456 875 441 870 450 875 b 465 855 462 875 465 868 b 446 790 465 841 458 819 b 422 744 435 767 427 752 b 482 732 444 736 465 732 b 533 747 503 732 519 737 b 563 820 553 762 563 787 b 530 913 563 854 552 886 b 484 943 516 930 501 940 b 452 946 475 945 465 946 b 361 936 423 946 393 943 b 286 909 326 928 302 919 b 136 700 233 876 183 807 b 75 696 114 698 94 697 b -54 712 20 696 -22 702 b -62 663 -59 694 -62 677 b -54 628 -62 650 -59 638 b -33 604 -50 618 -42 610 b -1 589 -24 597 -14 592 b 35 582 11 585 23 583 b 68 581 47 581 58 581 l 88 581 b 7 281 56 488 29 388 b -37 -110 -22 135 -37 5 b -27 -231 -37 -158 -34 -199 b 117 -330 -12 -294 35 -328 z "},"g":{"ha":531,"x_min":0,"x_max":0,"o":"m 157 -330 b 246 -305 187 -330 217 -321 b 340 -220 279 -287 311 -259 b 411 -98 367 -185 391 -144 b 483 172 449 -8 473 82 b 487 238 486 196 487 218 b 476 304 487 267 484 290 b 339 366 454 342 408 363 l 340 355 b 338 320 340 347 339 334 b 313 227 336 298 328 267 b 239 94 292 167 267 122 b 195 71 223 79 208 71 b 180 81 189 71 184 74 b 161 151 167 98 161 121 b 189 269 161 184 170 224 b 240 367 201 302 219 335 b 374 498 279 426 323 469 b 418 514 394 509 409 514 b 435 491 429 514 435 507 b 425 443 434 476 431 460 b 419 406 421 428 419 416 b 467 369 419 382 435 370 b 478 414 468 378 472 393 b 494 471 484 435 490 454 b 496 506 496 481 496 493 b 484 551 496 524 492 540 b 416 580 471 567 449 576 b 333 587 387 585 359 587 b 281 582 312 587 294 585 b 204 549 256 576 231 565 b 117 478 174 530 144 507 b 9 292 66 425 30 362 b -6 208 0 262 -5 234 b -3 149 -6 182 -5 163 b 87 24 5 94 35 52 b 195 -6 122 4 158 -6 b 250 10 215 -5 233 0 b 292 47 262 18 277 31 b 151 -241 252 -82 205 -178 b 125 -258 140 -253 132 -258 b 115 -241 118 -258 115 -253 b 134 -157 115 -224 121 -196 b 155 -106 142 -133 149 -116 b 115 -96 136 -99 123 -96 b 18 -199 50 -96 18 -130 b 28 -256 18 -221 21 -240 b 157 -330 51 -305 94 -330 z "},"h":{"ha":551,"x_min":0,"x_max":0,"o":"m 92 -5 b 146 18 110 -5 128 3 b 184 235 146 66 159 138 b 260 439 208 326 233 393 b 331 503 283 481 307 503 b 368 450 355 501 368 484 b 363 412 368 439 366 427 b 351 363 359 391 355 375 b 330 263 345 340 337 307 b 317 136 321 214 317 172 b 321 74 317 110 318 90 b 354 20 326 52 337 34 b 425 -4 372 4 396 -4 b 472 5 442 -4 458 -1 b 459 66 463 18 459 39 b 492 252 459 105 471 167 l 504 296 b 530 439 521 354 530 401 b 488 546 530 486 515 522 b 402 583 467 564 439 576 b 364 585 392 585 380 585 b 258 549 319 585 284 573 b 235 526 245 538 238 530 b 362 808 283 680 326 774 b 334 829 353 817 345 823 b 302 841 324 834 313 838 b 269 845 292 844 281 845 b 140 753 214 845 170 814 b 50 490 109 688 79 601 b 14 327 35 432 23 378 b -5 144 1 256 -5 196 b 3 64 -5 111 -3 83 b 39 9 9 39 21 21 b 85 -5 53 -1 68 -5 z "},"i":{"ha":268,"x_min":0,"x_max":0,"o":"m 228 619 b 283 632 250 619 268 623 b 320 701 308 647 320 669 b 296 745 318 718 311 732 b 218 774 275 764 248 774 b 133 711 175 774 146 753 b 130 692 131 705 130 699 b 139 662 130 681 133 671 b 177 630 147 648 159 637 b 228 619 192 623 209 619 z m 110 1 b 277 142 166 1 222 48 b 315 213 289 162 302 186 b 342 266 330 242 339 260 b 313 274 332 271 323 274 b 264 237 292 274 275 262 b 216 152 250 209 234 181 b 211 144 215 151 213 148 b 189 113 208 140 201 130 b 163 79 180 99 171 88 b 144 66 154 71 148 66 b 138 83 140 66 138 72 b 165 237 138 114 146 165 b 235 455 186 318 210 391 b 288 553 255 507 273 539 b 193 587 258 576 227 587 b 117 565 163 587 138 580 b 60 484 96 549 77 522 b 18 344 44 444 30 397 b -6 150 2 270 -6 205 b 21 38 -6 93 3 56 b 56 14 30 29 41 22 b 110 1 74 6 92 1 z "},"j":{"ha":239,"x_min":0,"x_max":0,"o":"m 233 622 b 289 637 256 623 274 628 b 323 680 305 648 317 661 b 326 701 326 687 326 694 b 282 764 326 727 311 748 b 228 777 266 773 248 777 b 175 762 208 777 190 772 b 139 711 158 750 146 733 b 136 690 137 704 136 697 b 144 662 136 681 139 671 b 182 631 153 648 165 638 b 233 622 197 625 214 622 z m -167 -330 b -85 -309 -140 -330 -113 -323 b 65 -128 -24 -280 26 -220 b 171 212 100 -47 136 66 l 210 372 b 272 553 235 476 255 536 b 172 587 239 576 206 587 b 100 566 144 587 120 580 b 64 505 87 556 75 536 b 1 256 47 463 26 379 b -77 -62 -27 117 -53 11 b -173 -241 -102 -137 -134 -197 b -199 -258 -184 -253 -193 -258 b -205 -256 -201 -258 -203 -258 b -209 -248 -207 -254 -208 -252 b -210 -239 -210 -245 -210 -241 b -191 -158 -210 -218 -203 -191 b -170 -106 -181 -129 -174 -112 b -210 -96 -188 -99 -201 -96 b -307 -199 -274 -96 -307 -130 b -295 -256 -307 -220 -302 -239 b -247 -311 -286 -280 -269 -298 b -167 -330 -224 -323 -197 -330 z "},"k":{"ha":533,"x_min":0,"x_max":0,"o":"m 378 -162 b 487 -121 412 -162 448 -149 b 380 18 450 -108 414 -61 b 346 127 366 53 354 89 b 328 233 336 170 330 205 b 446 285 374 243 413 260 b 513 368 475 307 498 335 b 535 459 528 398 535 429 b 393 585 535 543 488 585 b 350 574 380 585 365 582 b 205 396 301 551 253 491 b 254 572 222 463 237 522 b 362 808 294 701 330 779 b 269 845 335 833 304 845 b 140 753 212 845 169 814 b 94 640 124 722 109 684 b 14 328 58 534 31 430 b -6 144 1 254 -6 193 b 2 64 -6 113 -3 86 b 39 9 8 40 20 22 b 86 -5 53 -1 69 -5 b 145 19 109 -5 127 3 b 174 161 149 59 158 106 b 201 48 180 123 189 85 b 308 -136 229 -42 264 -104 b 378 -162 330 -154 354 -162 z m 216 283 b 330 486 248 371 286 438 b 395 535 359 519 381 535 b 412 506 406 535 412 526 b 361 379 412 469 395 427 b 297 314 343 354 321 332 b 216 283 272 296 245 286 z "},"l":{"ha":226,"x_min":0,"x_max":0,"o":"m 104 -5 b 148 3 119 -5 133 -3 b 144 41 146 12 144 24 b 157 174 144 73 149 117 b 241 545 176 301 204 425 b 368 810 283 686 326 774 b 263 844 339 833 304 844 b 186 821 235 844 209 837 b 130 749 167 808 148 784 b 81 625 115 720 99 678 b 7 302 47 522 22 414 b -6 144 -2 245 -6 192 b 6 54 -6 106 -2 76 b 56 6 13 35 30 18 b 104 -5 73 -2 88 -5 z "},"m":{"ha":749,"x_min":0,"x_max":0,"o":"m 629 -6 b 667 1 642 -6 654 -3 b 659 64 662 16 659 37 b 699 282 659 119 672 192 b 762 466 720 357 741 418 b 776 524 771 487 776 507 b 749 578 776 549 766 567 b 712 587 738 585 726 587 b 642 568 686 587 663 581 b 425 241 574 525 503 416 b 406 199 418 225 412 212 l 401 187 b 467 435 418 275 440 357 b 524 553 489 498 508 538 b 429 588 494 576 463 588 b 354 564 403 588 378 580 b 208 333 316 539 267 462 b 133 153 181 275 156 215 b 153 237 138 178 144 207 b 180 332 161 268 170 300 b 212 426 191 364 201 395 b 242 508 222 456 232 483 b 267 567 252 532 260 552 b 178 587 235 581 205 587 b 65 522 123 587 85 565 b 8 307 43 474 24 402 b -6 155 -1 250 -6 199 b 31 14 -6 80 6 33 b 115 -5 47 1 75 -5 l 127 -5 b 256 316 159 92 201 199 b 241 149 247 257 241 201 b 252 62 241 111 245 82 b 300 4 260 35 276 16 b 345 -5 314 -3 329 -5 b 383 0 357 -5 370 -4 b 541 349 423 123 476 239 b 515 142 524 269 515 200 b 523 67 515 111 517 85 b 555 20 528 48 539 33 b 629 -6 576 3 601 -6 z "},"n":{"ha":503,"x_min":0,"x_max":0,"o":"m 382 -6 b 420 1 395 -6 408 -3 b 412 60 415 16 412 35 b 452 282 412 114 425 188 b 515 466 469 343 490 404 b 529 523 524 488 529 507 b 502 578 529 549 519 567 b 465 587 491 585 479 587 b 394 567 440 587 416 581 b 201 290 335 530 271 438 l 155 187 b 221 435 171 271 193 354 b 277 553 243 499 262 538 b 183 588 248 576 216 588 b 75 535 140 588 104 570 b 33 414 59 499 45 459 b -5 150 7 316 -5 228 b 5 62 -5 113 -2 84 b 54 4 13 35 29 16 b 98 -5 67 -3 82 -5 b 136 0 111 -5 123 -4 b 294 349 178 127 231 243 b 269 133 277 270 269 198 b 276 68 269 107 271 85 b 309 20 281 49 292 33 b 382 -6 330 3 354 -6 z "},"o":{"ha":489,"x_min":0,"x_max":0,"o":"m 201 -5 b 351 64 258 -5 308 18 b 448 279 401 117 433 189 b 454 356 452 303 454 329 b 391 541 454 437 433 498 b 271 587 359 572 319 587 b 162 553 232 587 195 576 b 81 463 131 531 104 502 b 26 392 60 448 41 424 b -7 234 4 347 -7 294 b 12 126 -7 196 -1 160 b 159 -1 38 54 87 12 b 201 -5 174 -4 188 -5 z m 240 59 b 208 70 229 59 218 62 b 172 185 184 87 172 125 b 211 382 172 251 184 317 b 254 456 224 413 238 438 b 248 462 253 458 252 460 b 237 467 245 464 241 465 b 221 472 232 469 227 471 b 288 524 240 507 262 524 b 330 509 304 524 318 519 b 374 366 359 483 374 435 b 348 199 374 309 365 254 b 311 113 336 163 323 134 b 240 59 288 77 264 59 z "},"p":{"ha":562,"x_min":0,"x_max":0,"o":"m 43 -330 b 74 -326 53 -330 63 -328 b 73 -291 73 -315 73 -303 b 134 44 73 -209 93 -98 b 233 -5 136 12 169 -5 b 275 -1 245 -5 260 -3 b 340 30 292 3 314 13 b 424 100 371 49 399 73 b 527 288 473 156 507 218 b 541 390 536 321 541 355 b 463 557 541 464 515 519 b 372 588 433 578 404 588 b 238 494 315 588 271 557 b 216 435 229 477 222 458 b 218 480 218 451 218 466 b 132 581 218 532 190 565 b 77 588 115 585 96 588 b 52 587 68 588 60 587 b 56 545 54 574 56 560 b 11 291 56 494 41 409 b -50 45 -23 155 -43 73 b -81 -179 -71 -50 -81 -125 b -13 -321 -81 -254 -58 -301 b 33 -330 -1 -328 15 -330 z m 204 84 b 201 91 202 84 201 86 b 206 109 201 94 203 100 b 223 147 210 122 216 135 b 252 187 236 170 245 183 b 214 208 243 201 230 208 b 177 184 197 208 185 200 b 345 511 245 402 301 511 b 363 499 351 511 357 507 b 379 440 374 483 379 463 b 355 325 378 407 370 368 b 232 106 323 240 283 167 b 204 84 220 91 211 84 z "},"q":{"ha":528,"x_min":0,"x_max":0,"o":"m 347 -331 b 385 -324 359 -331 372 -329 b 379 -275 381 -311 379 -295 b 418 -69 379 -231 392 -162 b 452 61 425 -40 437 3 b 486 252 475 151 486 215 b 476 303 486 273 483 290 b 338 366 454 342 408 363 b 340 330 339 355 340 342 b 313 227 336 302 328 267 b 239 94 289 164 264 120 b 195 71 223 79 208 71 b 180 81 190 71 184 74 b 161 151 167 96 161 119 b 188 269 161 186 170 226 b 240 367 200 301 218 334 b 374 498 279 426 323 469 b 418 514 394 509 409 514 b 434 491 429 514 434 507 b 425 443 434 481 431 465 b 415 404 418 427 415 414 b 464 372 415 384 431 373 b 471 398 464 378 466 387 b 492 482 483 434 490 462 b 493 511 493 490 493 499 b 429 578 489 550 468 572 l 415 580 b 333 587 385 585 358 587 b 117 478 259 587 187 551 b 9 292 66 425 31 363 b -6 208 -1 258 -6 230 b -3 149 -6 182 -5 162 b 27 73 2 117 12 92 b 87 24 43 54 63 37 b 195 -6 122 4 158 -6 b 282 37 227 -5 256 9 b 238 -198 253 -66 238 -144 b 243 -257 238 -221 240 -241 b 275 -305 249 -277 260 -294 b 347 -331 294 -322 318 -331 z "},"r":{"ha":547,"x_min":0,"x_max":0,"o":"m 126 -5 b 243 250 148 52 187 138 b 406 494 324 412 378 494 b 419 477 415 494 419 488 b 408 433 419 467 415 452 b 349 324 393 399 373 363 b 326 292 339 309 332 299 b 416 273 360 279 391 273 b 528 334 467 273 504 293 b 553 433 545 361 553 394 b 508 553 552 481 537 522 b 437 587 490 574 467 585 l 429 587 b 374 566 412 587 393 581 b 305 486 355 552 332 525 b 214 333 275 441 244 390 b 132 153 181 271 154 210 b 241 508 155 258 191 376 b 267 567 251 532 259 552 b 178 587 236 581 206 587 b 64 522 122 587 85 565 b 7 307 41 467 22 395 b -6 158 -2 252 -6 202 b 31 14 -6 81 6 33 b 114 -5 47 1 75 -5 z "},"s":{"ha":424,"x_min":0,"x_max":0,"o":"m 111 -6 b 168 -1 130 -6 149 -4 b 327 72 234 12 287 36 b 373 161 357 99 373 129 b 363 208 373 176 370 192 b 325 251 355 226 342 241 b 246 275 308 262 281 269 b 207 283 228 278 215 281 b 168 324 181 292 168 305 b 198 390 168 338 178 359 b 325 511 235 447 277 487 b 354 521 336 517 346 519 b 360 519 356 521 358 520 b 362 513 361 518 362 516 b 332 440 362 501 352 477 b 300 396 320 420 310 406 b 365 377 325 383 347 377 b 408 389 381 377 395 381 b 446 437 425 399 437 415 b 454 482 451 452 454 467 b 448 521 454 496 452 508 b 417 564 441 538 431 553 b 292 587 395 579 353 587 b 222 582 267 587 244 585 b 148 553 201 578 176 569 b 28 443 100 526 60 490 b -16 330 -2 400 -16 363 b 89 213 -16 275 19 236 b 151 195 109 206 129 201 b 212 171 188 186 208 178 b 214 162 214 168 214 165 b 159 111 214 142 195 125 b 106 101 142 104 125 101 b 22 146 68 101 41 116 b -15 163 14 157 2 163 b -41 157 -26 163 -34 161 b -20 85 -39 133 -32 109 b 25 26 -9 62 6 42 b 111 -6 49 5 77 -6 z "},"t":{"ha":286,"x_min":0,"x_max":0,"o":"m 114 -5 b 225 54 154 -3 191 17 b 304 165 249 80 275 117 l 365 262 b 333 271 356 268 346 271 b 309 265 324 271 316 269 b 271 218 301 261 289 245 b 231 157 262 201 248 181 b 156 62 194 102 169 71 b 147 60 153 60 150 60 b 140 77 142 60 140 65 b 147 142 140 93 142 115 b 208 403 159 216 180 302 b 275 621 235 500 258 573 b 359 625 303 623 331 625 b 451 610 397 625 428 620 b 460 654 457 627 460 642 b 454 683 460 665 458 675 b 435 705 450 691 444 699 b 405 719 427 711 416 715 b 365 726 393 722 379 724 b 318 729 351 728 335 729 b 368 810 337 770 353 798 b 263 844 339 833 304 844 b 138 761 208 844 165 817 b 118 719 132 749 125 734 b 39 716 90 717 64 716 l 20 718 b -80 736 -14 718 -47 725 b -87 687 -85 718 -87 701 b -8 605 -87 642 -61 614 b 54 601 7 602 28 601 l 77 601 b 33 435 62 554 47 499 b -5 160 7 323 -5 231 b 23 31 -5 95 4 52 b 58 7 32 22 44 14 b 109 -5 74 -1 91 -5 z "},"u":{"ha":519,"x_min":0,"x_max":0,"o":"m 393 -5 b 435 -2 406 -5 419 -5 b 426 61 429 14 426 35 b 463 281 426 114 438 187 b 524 465 480 346 500 408 b 538 524 533 485 538 505 b 527 563 538 538 534 551 b 473 587 516 579 498 587 b 412 568 448 587 427 581 b 275 323 372 536 327 454 b 192 123 232 214 204 148 b 148 69 174 87 159 69 b 138 88 142 69 138 75 b 145 142 138 101 140 119 b 203 355 157 205 176 276 b 290 553 241 470 271 536 b 195 587 262 576 230 587 b 88 534 148 587 112 570 b 39 418 71 507 54 469 b 5 264 24 369 13 317 b -5 140 -2 216 -5 175 b 3 68 -5 111 -3 87 b 34 21 7 50 18 33 b 108 -5 55 3 79 -5 b 217 50 149 -5 185 13 b 281 157 236 73 257 109 b 282 119 281 144 281 132 b 287 82 283 106 284 94 b 297 50 289 71 292 60 b 315 22 302 39 308 30 b 343 4 323 15 332 9 b 374 -5 354 -1 364 -4 b 393 -5 382 -5 389 -5 z "},"v":{"ha":412,"x_min":0,"x_max":0,"o":"m 118 -5 b 196 9 145 -5 171 -1 b 341 322 213 92 262 197 b 448 469 375 374 411 423 b 587 587 508 538 554 578 l 587 599 b 574 640 587 614 583 628 b 509 669 559 659 537 669 b 450 653 488 669 469 664 b 380 576 431 641 407 615 b 289 425 350 535 319 485 b 211 256 262 374 235 317 b 165 112 189 200 174 152 b 161 197 163 132 161 161 b 176 431 161 283 166 361 b 213 583 184 507 197 558 b 166 589 199 587 184 589 b 77 558 134 587 104 576 b 18 485 50 540 30 515 b -6 283 2 441 -6 374 b 7 134 -5 226 -1 176 b 40 29 14 87 25 52 b 118 -5 55 6 81 -5 z "},"w":{"ha":661,"x_min":0,"x_max":0,"o":"m 369 -5 b 444 9 394 -5 419 -1 b 498 158 452 50 471 100 b 590 322 522 210 553 264 b 697 469 624 375 660 424 b 836 587 755 538 802 578 l 836 596 b 823 640 836 613 831 627 b 757 669 808 659 787 669 b 699 653 736 669 718 664 b 628 576 681 642 657 616 b 538 425 601 538 570 488 b 460 256 509 372 484 315 b 414 112 436 196 421 148 b 410 174 412 130 410 151 b 425 326 410 220 415 271 b 513 583 447 448 476 534 b 472 589 500 587 486 589 b 419 580 456 589 437 586 b 333 526 385 568 357 551 b 283 439 315 507 298 477 b 254 342 275 415 264 383 b 229 256 246 314 238 286 b 190 170 219 227 206 199 b 152 113 176 146 163 127 b 151 132 151 119 151 125 b 181 355 151 182 161 256 b 254 583 205 474 229 550 b 212 589 240 587 227 589 b 159 580 196 589 178 586 b 75 526 127 569 99 551 b 0 283 37 485 12 404 b -6 176 -4 243 -6 208 b 28 16 -6 87 5 33 b 97 -5 46 1 69 -5 b 242 140 146 -5 195 43 b 271 41 243 99 253 66 b 369 -5 295 10 328 -5 z "},"x":{"ha":414,"x_min":0,"x_max":0,"o":"m 355 -9 b 431 16 384 -9 409 -1 b 448 33 439 22 444 28 b 323 152 406 41 364 81 b 270 260 302 187 284 224 b 500 549 422 449 500 545 b 501 558 501 553 501 556 b 492 580 501 567 498 574 b 469 589 485 586 477 589 b 422 561 452 589 436 579 b 245 331 371 493 312 416 b 210 527 222 404 210 470 b 216 589 210 552 212 573 b 133 563 186 587 159 578 b 72 505 108 548 87 529 b 49 431 56 481 49 456 b 72 313 49 398 56 359 b 130 180 86 268 106 224 b -1 1 95 134 51 75 b 35 -5 11 -3 23 -5 b 63 5 47 -5 57 -2 l 161 126 b 227 46 184 92 205 66 b 294 3 245 28 268 14 b 355 -9 315 -5 335 -9 z "},"y":{"ha":530,"x_min":0,"x_max":0,"o":"m 110 -330 b 191 -309 138 -330 165 -323 b 346 -126 253 -279 304 -218 b 401 26 365 -84 383 -33 b 446 197 412 65 427 121 b 489 357 465 269 479 322 b 570 575 515 446 543 519 b 503 588 552 584 530 588 b 389 549 453 588 415 575 b 273 326 354 510 315 435 l 208 162 b 146 69 181 100 161 69 b 138 77 142 69 139 72 b 137 91 138 81 137 86 b 166 241 137 119 146 169 b 237 460 190 328 214 400 b 286 553 259 513 275 543 b 191 587 259 576 227 587 b 85 534 142 587 107 570 b 37 418 67 508 51 470 b 3 264 23 374 12 322 b -7 140 -4 219 -7 178 b 1 68 -7 111 -5 86 b 33 21 6 49 17 33 b 112 -5 53 3 79 -5 b 226 71 152 -4 190 22 b 243 101 233 81 239 91 b 144 -186 215 -26 182 -122 b 134 -201 142 -188 139 -193 b 78 -258 109 -239 90 -258 b 68 -248 72 -258 68 -255 b 67 -229 67 -244 67 -238 b 94 -135 71 -203 79 -172 b 106 -106 99 -121 104 -111 b 66 -96 88 -99 75 -96 b -30 -196 2 -96 -30 -129 b 31 -311 -30 -250 -9 -288 b 110 -330 53 -323 79 -330 z "},"z":{"ha":486,"x_min":0,"x_max":0,"o":"m 444 -55 b 469 -9 454 -38 463 -23 b 477 20 474 3 477 14 b 478 33 478 26 478 31 b 461 72 478 49 473 62 b 343 97 441 89 402 97 l 287 96 b 382 220 320 132 352 172 b 453 355 413 269 437 314 b 475 444 468 393 475 422 b 463 501 475 464 471 483 b 404 566 449 529 429 551 b 339 588 392 581 370 588 b 227 572 311 587 273 581 b 123 556 183 563 149 557 b 56 569 96 556 74 560 b 50 521 52 551 50 534 b 123 440 50 467 75 440 b 165 444 136 440 150 441 b 288 474 182 448 224 457 b 328 483 301 477 315 481 b 277 366 315 446 298 407 b 206 248 257 326 233 286 b 124 153 179 210 152 178 b 0 91 79 111 38 91 l -7 91 b 27 24 -1 62 10 39 b 106 -7 48 3 75 -7 b 153 -4 113 -7 129 -6 b 277 3 207 0 248 3 b 444 -55 376 3 431 -17 z "},"{":{"ha":629,"x_min":0,"x_max":0,"o":"m 67 422 b 315 508 185 422 268 451 b 361 593 334 530 349 559 l 377 640 b 405 715 385 667 394 692 b 449 786 415 739 430 762 b 602 904 491 839 542 878 b 562 907 589 906 576 907 b 401 888 497 907 444 901 b 237 765 325 867 271 825 b 189 635 220 734 203 690 b 156 538 176 591 165 559 b 56 422 134 486 101 448 z m 212 -62 b 252 -60 225 -62 239 -62 b 220 -31 239 -51 229 -41 b 200 1 212 -21 205 -11 b 189 34 195 12 191 22 b 184 62 186 45 185 55 b 184 81 184 71 184 77 b 214 205 184 113 194 153 b 244 321 233 257 243 296 b 239 354 244 332 243 344 b 189 404 232 375 215 392 b 53 422 159 416 114 422 b 78 355 70 406 78 384 b 37 210 78 326 64 277 b 5 121 23 174 12 145 b -5 57 -2 98 -5 76 b 71 -43 -5 8 20 -25 b 212 -62 104 -56 151 -62 z "},"|":{"ha":83,"x_min":0,"x_max":0,"o":"m 56 -90 l 56 909 l -7 909 l -7 -90 z "},"}":{"ha":629,"x_min":0,"x_max":0,"o":"m 542 422 b 517 486 525 439 517 460 b 524 538 517 502 519 519 b 558 635 529 559 541 592 b 589 723 572 670 583 699 b 600 787 597 747 600 768 b 525 888 600 836 575 869 b 382 907 491 901 444 907 b 343 904 369 907 356 906 b 375 876 356 895 366 886 b 395 844 383 866 390 855 b 406 810 399 833 404 822 b 410 782 408 799 410 789 b 411 763 410 774 411 768 b 380 640 411 732 401 691 b 351 522 361 585 351 546 b 374 462 351 497 359 477 b 531 422 401 435 453 422 z m 33 -62 b 297 7 151 -62 239 -39 b 357 79 321 26 342 51 b 406 210 374 108 390 151 b 439 307 418 252 429 283 b 538 422 461 359 494 397 l 530 422 b 279 335 409 422 326 393 b 233 251 260 313 245 285 b 191 130 210 182 196 142 b 146 59 181 108 166 84 b -7 -60 105 7 54 -33 b 33 -62 5 -62 19 -62 z "},"~":{"ha":350,"x_min":0,"x_max":0,"o":"m 65 245 b 87 247 72 245 79 246 b 127 252 100 248 113 250 b 169 261 140 255 155 258 b 212 271 183 264 197 267 b 247 276 226 273 237 275 b 271 277 256 277 264 277 b 317 267 290 277 305 273 b 322 304 320 281 322 293 b 317 336 322 317 320 328 b 245 365 307 355 282 365 b 152 355 222 365 191 361 b 61 345 115 349 84 346 b -1 358 41 345 20 349 b -5 315 -4 342 -5 328 b 47 247 -5 274 12 251 b 65 245 54 246 60 245 z "},"":{"ha":428,"x_min":0,"x_max":0,"o":"m 98 -413 b 182 -397 132 -412 159 -406 b 302 -233 222 -378 263 -323 b 349 -101 321 -189 336 -145 b 374 54 366 -41 374 11 b 363 117 374 81 370 102 b 297 159 355 136 332 151 b 254 163 282 162 268 163 b 214 157 239 163 227 161 b 217 134 216 152 217 144 b 175 -73 217 85 203 16 b 113 -231 157 -130 136 -182 b -7 -389 73 -315 33 -368 b 98 -413 23 -405 58 -413 z m 307 201 b 357 214 328 201 345 205 b 389 260 370 222 381 237 b 400 337 396 284 400 311 b 395 384 400 355 398 370 b 358 419 391 397 378 410 b 306 431 341 427 324 431 b 271 422 292 431 280 428 b 250 374 260 416 252 399 b 248 335 249 362 248 349 b 229 216 245 283 239 243 b 251 209 235 214 242 211 b 277 203 259 207 268 205 b 307 201 287 201 296 201 z "},"":{"ha":574,"x_min":0,"x_max":0,"o":"m 109 -45 l 136 7 b 186 -3 161 1 178 -3 b 221 -5 199 -5 211 -5 b 270 0 238 -5 254 -4 b 420 94 321 12 371 43 b 490 182 446 121 470 151 l 519 229 b 547 275 532 251 541 267 b 517 290 539 285 529 290 b 472 261 496 290 481 280 b 380 138 451 220 420 178 b 239 56 326 83 279 56 b 180 92 213 56 193 68 l 393 500 b 381 460 393 490 389 477 b 328 368 358 412 340 381 b 391 347 349 353 370 347 b 435 360 408 347 422 351 b 475 414 452 372 465 390 b 484 471 481 433 484 452 b 479 511 484 484 483 497 b 431 572 471 541 455 562 l 472 650 l 417 679 l 368 585 b 366 586 368 585 367 585 b 326 587 353 587 340 587 b 258 582 300 587 277 585 b 181 548 236 578 210 566 b 35 379 119 508 70 452 b -6 206 7 321 -6 264 b 79 34 -6 127 22 70 l 54 -16 z m 166 199 b 211 333 172 240 187 285 b 301 457 235 381 264 422 z "},"":{"ha":814,"x_min":0,"x_max":0,"o":"m 211 -32 b 276 -27 232 -32 254 -31 b 343 -16 298 -24 321 -20 b 412 1 366 -11 388 -5 b 481 16 435 6 458 12 b 542 27 504 21 524 25 b 586 30 559 29 574 30 b 711 -16 640 30 682 15 b 556 126 702 72 650 119 b 517 127 541 127 527 127 b 399 119 481 127 442 125 l 319 107 l 345 147 b 385 273 354 166 367 208 l 415 274 b 501 268 449 274 478 272 b 507 313 505 283 507 298 b 481 366 507 336 498 354 b 417 386 467 376 446 382 b 585 742 473 583 528 701 b 626 758 599 752 613 758 b 668 721 654 758 668 745 b 659 668 668 707 665 689 b 620 583 648 635 635 606 b 523 495 590 534 557 505 b 568 460 538 479 553 467 b 614 450 581 454 596 450 b 654 457 627 450 641 452 b 728 503 682 467 707 481 b 778 582 750 524 767 551 b 787 634 784 600 787 617 b 755 731 787 669 776 701 b 692 792 740 751 719 772 b 565 840 648 823 606 838 b 547 838 559 840 553 839 b 412 768 494 827 449 804 b 328 642 379 736 351 694 b 249 381 303 585 277 498 b 208 380 239 380 226 380 b 142 395 180 381 158 386 b 135 338 138 375 135 356 b 176 279 138 309 151 289 b 218 269 188 274 202 271 b 192 201 210 244 201 222 b 159 146 182 180 172 161 b 117 106 146 130 132 117 b 74 90 101 96 87 91 b 45 87 61 88 52 87 b -7 94 30 87 12 90 b 204 -32 40 10 111 -32 z "},"":{"ha":931,"x_min":0,"x_max":0,"o":"m 810 -127 l 868 -83 l 723 106 b 899 448 819 187 877 301 b 903 509 901 469 903 490 b 802 745 903 607 869 686 l 871 835 l 814 879 l 741 785 b 558 827 688 812 627 827 b 248 730 446 827 342 794 l 132 881 l 75 838 l 191 686 b 73 548 144 644 104 598 b -5 300 20 465 -5 382 b 51 130 -5 235 14 178 b 164 37 79 92 117 62 l 73 -81 l 130 -125 l 234 9 b 372 -10 277 -3 323 -10 b 536 12 427 -10 481 -3 b 664 65 583 24 625 42 z m 471 436 l 321 633 b 550 722 390 692 467 722 b 673 696 595 722 635 713 z m 680 163 l 517 376 l 733 656 b 788 588 756 637 774 614 b 819 455 809 547 819 503 b 764 266 819 391 801 328 b 680 163 741 228 713 194 z m 226 118 b 199 149 216 127 208 137 b 178 185 191 160 184 172 b 163 227 172 198 167 212 b 156 267 159 242 157 256 b 155 294 155 279 155 288 b 169 388 155 323 160 354 b 271 581 189 460 223 524 l 426 377 z m 410 48 b 285 77 365 48 323 58 l 471 317 l 623 119 b 410 48 555 71 484 48 z "},"":{"ha":865,"x_min":0,"x_max":0,"o":"m 271 -94 l 267 -85 b 263 -56 264 -80 263 -71 b 269 -7 263 -41 265 -24 b 338 163 278 26 301 83 b 421 167 369 165 397 167 b 502 161 452 167 479 165 b 509 199 507 176 509 188 b 435 268 509 237 484 260 b 390 271 421 270 406 271 l 416 322 b 502 317 452 322 480 320 b 509 355 507 332 509 345 b 468 414 509 384 495 404 b 766 753 590 628 690 741 b 773 739 770 753 772 748 b 760 679 773 723 768 703 b 721 606 751 655 737 631 b 667 560 704 583 686 567 b 673 554 669 558 671 556 b 709 543 682 547 693 543 b 756 553 723 543 739 546 b 838 673 810 578 838 618 b 808 766 838 706 827 737 b 673 839 773 814 728 839 b 496 717 618 839 559 798 b 361 507 453 664 408 593 b 302 625 344 538 324 578 b 245 741 282 670 263 709 b 142 829 211 800 176 829 b -7 717 100 829 50 791 b 33 728 7 724 20 727 b 96 696 56 728 77 718 b 144 618 113 677 129 650 b 184 521 157 589 170 557 b 227 420 201 472 216 439 b 144 434 188 420 160 425 b 136 382 139 416 136 399 b 175 328 138 355 151 337 b 264 316 193 320 222 316 l 240 265 l 202 265 b 144 278 176 267 157 271 b 136 235 139 262 136 248 b 143 199 136 220 138 208 b 193 166 151 183 168 172 b 167 33 176 121 167 76 b 271 -94 169 -36 203 -78 z "},"":{"ha":83,"x_min":0,"x_max":0,"o":"m 56 422 l 56 909 l -7 909 l -7 422 z m 56 -90 l 56 333 l -7 333 l -7 -90 z "},"":{"ha":712,"x_min":0,"x_max":0,"o":"m 145 -13 b 220 -2 169 -13 194 -9 b 322 43 257 7 291 23 b 407 168 375 79 403 120 b 504 208 440 176 473 190 b 578 273 535 225 559 248 b 604 349 595 298 604 323 b 592 411 604 372 600 393 b 542 463 581 434 565 452 b 477 481 524 471 503 477 b 421 498 450 488 431 493 b 399 536 407 508 399 521 b 429 613 399 553 410 578 b 562 755 469 683 513 730 b 585 763 573 760 581 763 b 593 754 591 763 593 760 b 563 671 593 738 583 710 b 531 621 553 652 543 635 b 575 601 551 608 566 602 b 595 599 585 600 591 599 b 653 625 618 599 637 608 b 684 715 673 647 684 677 b 648 812 684 758 673 791 b 530 839 627 830 587 839 b 469 836 506 839 486 838 b 356 784 432 831 395 814 b 250 659 313 750 277 708 b 233 653 243 657 237 655 b 98 551 182 632 137 598 b 56 490 82 532 68 511 b 18 372 31 446 18 406 b 111 243 18 314 49 271 b 186 218 130 235 155 226 b 236 200 213 210 229 203 b 248 179 244 195 248 189 b 233 148 248 169 243 159 b 180 116 220 134 202 123 b 138 110 167 112 153 110 b 56 161 102 110 75 127 b 20 181 49 174 37 181 b -7 174 10 181 1 179 b 21 77 -4 140 5 108 b 145 -13 51 17 92 -13 z m 355 284 b 306 303 341 292 325 298 l 281 309 b 225 326 256 313 238 318 b 203 363 210 335 203 347 b 233 440 203 381 213 407 b 245 460 237 448 241 454 b 310 415 261 441 283 426 b 382 391 326 408 349 400 b 431 374 406 385 422 379 b 445 352 440 369 445 361 b 432 324 445 343 441 334 b 385 292 421 311 406 301 b 355 284 375 288 365 286 z "},"":{"ha":420,"x_min":0,"x_max":0,"o":"m 94 519 b 122 531 106 519 115 524 b 140 572 129 539 134 553 l 148 601 b 189 712 159 649 172 686 b 86 749 151 737 117 749 b 41 732 68 749 53 743 b 9 680 29 720 18 703 b -7 599 -1 650 -7 624 b 51 530 -7 572 12 549 b 94 519 65 523 79 519 z m 298 519 b 327 531 311 519 320 524 b 345 572 334 539 339 553 l 353 601 b 393 712 363 649 377 686 b 291 749 356 737 322 749 b 247 732 273 749 258 744 b 215 680 235 722 224 704 b 198 599 203 652 198 625 b 256 530 198 572 217 549 b 298 519 270 523 284 519 z "},"":{"ha":935,"x_min":0,"x_max":0,"o":"m 384 -9 b 734 117 528 -5 644 37 b 899 449 823 196 879 307 b 904 510 902 470 904 490 b 876 648 903 562 894 608 b 759 777 851 702 812 745 b 559 828 702 811 635 828 b 335 780 480 828 406 812 b 157 656 269 749 209 708 b 39 487 106 605 67 549 b -5 304 9 423 -5 362 b 95 83 -5 214 28 140 b 231 11 132 51 178 27 b 367 -9 277 -3 322 -9 z m 410 48 b 224 120 336 48 274 72 b 155 291 178 165 155 222 b 169 389 155 323 159 356 b 245 549 185 447 210 500 b 376 673 281 601 325 642 b 550 723 429 707 488 723 b 659 703 589 723 625 716 b 776 609 708 684 747 652 b 819 457 805 566 819 515 b 804 357 819 423 814 390 b 712 196 787 299 755 245 b 559 83 668 147 617 109 b 410 48 509 60 460 48 z m 456 98 b 559 128 491 98 526 109 b 740 319 623 164 682 228 b 762 368 754 343 762 359 b 744 395 762 381 755 390 b 730 397 739 396 735 397 b 707 382 720 396 711 391 b 666 314 699 364 686 341 b 599 236 645 286 623 259 b 465 159 547 184 503 159 b 422 176 448 159 433 165 b 390 266 400 196 390 226 b 435 429 390 313 405 368 b 490 519 450 462 469 491 b 601 611 525 564 562 595 b 614 614 606 613 610 614 b 621 606 618 614 621 611 b 599 543 621 593 613 572 b 560 477 581 507 568 486 l 555 471 b 599 451 575 459 590 452 b 618 450 608 450 614 450 b 677 476 641 450 661 458 b 711 573 700 500 711 533 b 677 663 711 614 700 644 b 551 690 658 682 616 690 b 459 678 511 690 480 686 b 254 465 367 640 298 568 b 220 312 231 413 220 362 b 310 134 220 229 250 170 b 448 98 350 110 396 98 z "},"":{"ha":389,"x_min":0,"x_max":0,"o":"m 231 373 b 328 464 265 373 298 404 l 341 492 b 361 529 341 498 348 511 b 336 534 349 532 341 534 b 301 513 318 534 306 528 b 258 436 292 487 277 461 b 248 423 254 430 251 426 b 262 496 248 437 252 461 b 267 525 265 507 267 517 b 256 556 267 536 263 547 b 214 581 246 568 232 576 b 177 584 210 581 197 583 l 178 568 b 167 515 178 555 174 537 b 142 460 159 494 151 475 b 116 431 134 446 125 436 b 108 428 113 429 110 428 b 101 437 106 428 104 431 b 97 463 98 443 97 452 b 137 573 97 495 110 532 b 212 643 161 609 186 632 b 224 647 217 646 221 647 b 227 642 227 647 227 646 b 222 619 225 630 223 623 b 218 595 219 610 218 602 b 245 573 218 585 227 577 l 250 571 l 252 576 b 272 651 265 600 272 625 b 232 695 271 677 257 692 b 181 701 220 697 203 699 b 61 640 140 701 100 680 b 3 539 33 610 14 576 b -5 484 -3 519 -5 501 b 3 435 -5 466 -3 450 b 47 391 11 417 25 402 b 108 373 66 379 87 373 b 168 408 130 374 150 386 b 182 393 172 402 176 397 b 231 373 199 380 215 373 z "},"":{"ha":328,"x_min":0,"x_max":0,"o":"m 122 373 b 236 452 163 373 201 399 b 275 534 252 477 265 504 b 300 669 291 580 299 625 b 298 711 300 683 300 697 b 220 823 291 772 265 810 b 187 829 208 827 196 829 b 54 743 138 829 94 801 b 12 651 35 714 20 683 b -6 528 0 608 -6 567 b 27 414 -6 479 5 440 b 122 373 49 387 81 373 z m 121 427 b 98 484 105 427 98 446 b 100 524 98 498 98 512 b 158 721 110 605 129 670 b 202 760 173 747 188 760 b 211 757 205 760 208 759 b 245 672 234 745 245 717 b 215 537 245 632 235 587 b 181 472 204 511 193 489 b 121 427 160 442 140 427 z "},"":{"ha":293,"x_min":0,"x_max":0,"o":"m 118 374 b 146 381 127 374 137 376 b 143 407 144 390 143 399 b 169 572 143 436 152 492 b 218 736 181 631 197 686 b 266 811 231 771 248 796 b 201 836 245 827 224 836 b 155 823 183 836 168 831 b 135 802 145 817 138 810 b 75 748 118 783 98 764 b 3 714 50 730 25 718 b -6 692 -3 713 -6 706 b 16 665 -4 681 3 671 b 42 657 24 660 33 657 b 84 672 54 657 68 662 b 65 590 79 653 73 626 b 50 466 55 538 50 496 b 56 414 50 444 52 427 b 91 379 60 398 72 387 b 118 374 98 376 108 374 z "},"":{"ha":374,"x_min":0,"x_max":0,"o":"m 279 373 b 288 408 285 389 288 401 b 197 458 288 441 258 458 b 166 458 186 458 176 458 b 256 559 197 486 227 520 b 329 680 288 602 313 642 b 346 744 340 706 346 727 b 328 796 346 762 340 779 b 243 836 309 823 281 836 b 166 822 216 836 191 831 b 106 782 141 812 121 799 b 87 732 94 767 87 751 b 128 656 87 709 101 684 b 212 750 140 696 168 727 b 237 758 222 755 231 758 b 247 751 244 758 247 755 b 225 697 247 743 239 725 b 76 515 187 632 137 571 b 3 465 50 491 26 474 b -1 460 1 463 0 462 b -5 429 -3 448 -5 438 b 62 374 -5 394 18 376 l 80 374 b 155 379 89 374 115 376 b 230 385 188 383 212 385 b 273 377 248 385 262 382 z "},"":{"ha":383,"x_min":0,"x_max":0,"o":"m 104 371 b 231 414 149 371 191 385 b 287 473 254 430 273 450 b 304 529 298 491 304 510 b 254 605 304 562 288 587 b 312 658 275 621 294 638 b 355 742 340 690 355 719 b 346 781 355 755 352 768 b 305 829 336 802 323 818 b 260 842 292 838 277 842 b 182 822 236 842 210 835 b 115 777 154 808 132 793 b 77 695 90 751 77 724 b 98 642 77 674 84 656 b 142 617 106 634 121 625 b 112 606 132 613 122 610 l 115 603 b 111 585 113 599 111 593 b 121 557 111 575 115 566 b 153 561 134 560 145 561 b 191 534 178 561 191 552 b 179 502 191 524 187 513 b 129 461 166 484 149 470 b 85 451 114 454 100 451 b 20 476 62 451 41 460 l 15 480 b -5 438 1 467 -5 453 b 10 404 -5 427 0 416 b 104 371 33 382 64 371 z m 144 618 b 233 773 149 694 178 745 b 246 777 238 776 242 777 b 250 776 248 777 249 777 b 253 769 252 774 252 772 b 252 758 253 766 252 762 b 217 684 248 735 235 710 b 144 618 195 654 172 633 z "},"":{"ha":618,"x_min":0,"x_max":0,"o":"m 254 144 b 259 170 258 153 259 162 b 253 195 259 179 257 187 b 205 233 246 207 231 219 b 94 285 184 244 146 262 b 347 469 117 300 201 361 b 281 507 332 494 311 507 b 232 497 265 507 249 503 b 92 412 203 487 156 458 l 46 380 b 16 340 36 372 26 359 b -5 274 1 313 -5 292 b 5 256 -5 264 -2 258 z m 498 144 b 504 166 501 152 503 159 b 503 180 504 170 503 175 b 497 195 502 184 500 190 b 484 210 494 200 490 205 b 450 233 477 216 465 224 b 397 259 434 241 416 250 b 339 285 377 268 357 277 b 591 469 373 307 457 369 b 526 507 576 494 555 507 b 439 479 496 506 467 496 b 336 412 417 467 383 444 b 291 380 321 401 306 391 b 260 340 280 372 270 358 b 239 274 246 314 239 292 b 248 256 239 264 242 258 b 498 144 254 254 337 216 z "},"":{"ha":934,"x_min":0,"x_max":0,"o":"m 384 -9 b 733 116 528 -5 644 37 b 899 449 823 195 878 307 b 903 513 902 471 903 492 b 875 648 903 562 894 607 b 758 777 850 703 811 746 b 559 828 701 811 635 828 b 335 780 480 828 406 812 b 157 656 269 749 209 708 b 39 487 106 605 67 549 b -6 300 9 422 -6 360 b 94 83 -6 212 27 140 b 231 11 132 52 177 27 b 367 -9 276 -3 321 -9 z m 407 49 b 223 121 334 49 273 73 b 162 227 193 150 173 185 b 155 302 157 248 155 273 b 199 471 157 357 172 414 b 304 618 225 527 260 576 b 550 723 377 688 459 723 b 659 703 589 723 625 716 b 776 609 707 684 747 652 b 819 452 805 565 819 513 b 806 363 819 422 814 392 b 659 145 782 280 732 208 l 675 170 l 656 169 b 570 195 625 169 596 178 b 506 264 543 214 522 236 b 487 302 498 277 492 289 b 611 376 531 319 572 343 b 698 477 648 407 676 440 b 725 564 716 509 725 538 b 707 620 725 586 719 604 b 547 673 680 656 626 673 b 433 659 510 673 472 669 b 281 565 353 640 302 608 b 273 536 276 555 273 545 b 292 494 273 518 279 505 b 330 476 300 487 313 481 b 420 574 336 515 366 547 b 532 602 459 593 496 602 b 601 577 566 602 589 594 b 611 555 607 568 610 561 b 607 516 611 538 610 525 b 570 449 600 494 587 472 b 448 348 534 404 494 370 l 487 425 b 521 516 509 472 521 503 b 505 549 521 529 515 540 b 458 567 492 559 476 566 b 414 564 438 567 423 566 b 355 405 410 540 391 487 b 338 363 349 391 344 378 b 278 166 298 272 278 206 b 294 117 278 143 283 127 b 321 102 304 108 313 102 b 337 100 328 101 334 100 b 378 111 346 100 359 104 b 369 118 375 113 372 115 b 365 136 366 121 365 127 b 403 253 365 159 378 197 b 441 163 408 218 421 189 b 532 104 463 135 492 115 b 570 98 544 100 556 98 b 595 102 579 98 587 100 b 526 70 573 89 550 78 b 461 53 503 61 481 56 b 407 49 441 50 422 49 z "},"":{"ha":563,"x_min":0,"x_max":0,"o":"m 207 567 b 283 570 231 568 256 569 b 353 572 309 571 332 572 b 406 574 374 573 391 574 b 526 568 449 574 489 572 b 534 611 532 584 534 598 b 436 682 534 650 501 673 b 341 687 412 685 380 687 b 235 683 315 687 279 686 b 124 680 189 681 152 680 b 48 684 96 680 71 682 b 5 694 31 686 17 690 b -6 646 -3 675 -6 659 b 5 608 -6 630 -3 617 b 80 572 18 590 43 578 b 172 567 102 568 132 567 z "},"":{"ha":204,"x_min":0,"x_max":0,"o":"m 97 543 b 136 561 111 543 123 549 b 163 604 146 570 155 585 b 176 654 171 622 175 638 b 176 685 176 669 176 679 b 164 718 174 699 170 709 b 146 733 161 723 155 728 b 88 750 125 745 106 750 b 35 729 67 750 50 743 b -6 635 7 705 -6 673 b 39 557 -6 602 9 576 b 90 543 56 547 73 543 z m 98 575 b 79 589 90 575 84 580 b 72 627 74 599 72 611 b 85 676 72 646 76 663 b 121 700 96 692 107 700 b 144 669 137 700 144 690 b 140 640 144 661 143 651 b 98 575 128 597 114 575 z "},"":{"ha":396,"x_min":0,"x_max":0,"o":"m 158 155 b 234 233 201 155 227 181 b 237 283 236 247 237 263 b 300 283 251 283 272 283 b 361 277 321 283 341 281 b 367 319 365 293 367 307 b 284 395 367 364 339 389 b 231 397 271 396 253 397 l 231 429 b 245 519 231 473 235 503 b 194 527 225 524 208 527 b 117 438 148 527 122 497 b 117 391 117 427 117 411 b 72 391 106 391 92 391 b 2 405 42 391 18 395 b -5 349 -3 386 -5 367 b 33 290 -4 320 9 300 b 123 277 51 281 81 277 b 123 218 123 264 123 244 b 117 161 123 198 121 179 b 158 155 133 157 146 155 z m 123 16 b 178 19 140 17 159 18 b 257 22 213 21 239 22 b 334 17 286 22 311 20 b 340 56 338 30 340 43 b 309 102 338 77 328 92 b 216 115 288 111 257 115 b 149 112 210 115 187 114 b 85 110 123 111 102 110 b 2 121 45 110 17 113 b -5 74 -3 105 -5 90 b 35 25 -3 50 10 33 b 106 16 51 19 75 16 z "},"":{"ha":191,"x_min":0,"x_max":0,"o":"m 36 631 b 60 654 47 631 55 639 b 103 732 72 681 86 707 b 164 798 122 762 142 783 b 147 813 161 804 155 808 b 119 825 139 818 130 821 b 85 829 107 827 96 829 b 7 764 50 829 24 807 b -6 694 -1 743 -6 719 b 5 652 -6 679 -2 665 b 31 631 14 640 22 633 z "},"":{"ha":216,"x_min":0,"x_max":0,"o":"m 94 159 b 123 171 106 159 116 163 b 141 212 130 179 136 193 l 158 276 b 189 349 166 304 177 329 b 144 373 177 357 162 365 b 87 386 123 382 104 386 b 42 369 69 386 54 380 b 11 317 31 357 20 340 b -6 237 -1 288 -6 261 b 3 208 -6 227 -3 216 b 52 170 15 191 31 179 b 94 159 66 163 81 159 z "},"":{"ha":306,"x_min":0,"x_max":0,"o":"m 61 -321 b 152 -302 93 -321 123 -315 b 224 -256 180 -290 205 -275 b 269 -193 245 -237 259 -216 b 277 -149 275 -179 277 -165 b 193 -47 277 -103 250 -69 l 243 47 l 163 47 b 154 35 161 44 157 40 b 142 19 151 31 146 25 b 131 -1 138 13 134 6 b 121 -21 127 -7 123 -14 b 115 -37 117 -28 116 -33 b 115 -47 115 -42 115 -45 b 129 -71 115 -57 119 -65 b 174 -123 157 -89 172 -106 b 175 -137 174 -130 175 -134 b 154 -189 175 -153 168 -171 b 97 -241 140 -208 121 -225 b 35 -271 77 -254 56 -264 b 14 -274 27 -273 20 -274 b -3 -269 5 -274 0 -272 b -7 -284 -5 -271 -7 -277 b 33 -318 -7 -302 6 -313 b 61 -321 40 -320 50 -321 z "},"":{"ha":618,"x_min":0,"x_max":0,"o":"m 59 144 b 145 171 80 144 109 153 b 248 239 174 188 208 210 b 293 270 263 250 278 260 b 324 311 304 279 314 292 b 345 376 338 337 345 359 b 335 395 345 387 342 393 l 85 507 b 81 480 82 496 81 488 b 87 456 81 471 83 463 b 134 418 93 444 109 431 b 245 366 158 405 195 387 b -7 181 211 343 127 281 b 16 156 -1 170 7 162 b 39 146 24 150 32 146 b 59 144 47 144 54 144 z m 303 144 b 345 151 315 144 330 146 b 492 239 376 161 425 190 l 538 270 b 568 311 548 278 558 292 b 589 376 583 337 589 359 b 579 395 589 387 586 393 l 330 507 b 325 480 326 497 325 488 b 332 456 325 471 327 463 b 378 418 338 444 353 431 b 490 366 400 406 437 389 b 316 240 457 345 399 302 b 237 181 291 220 264 201 b 260 156 243 170 251 162 b 284 145 269 150 277 146 b 303 144 292 144 298 144 z "},"":{"ha":488,"x_min":0,"x_max":0,"o":"m 207 -422 b 335 -397 252 -421 294 -413 b 429 -333 376 -382 407 -361 b 458 -258 448 -310 458 -285 b 378 -119 458 -213 431 -166 b 340 -205 374 -149 361 -178 b 268 -273 319 -233 295 -255 b 205 -300 241 -290 220 -300 l 195 -300 b 173 -294 186 -300 179 -298 b 156 -257 161 -286 156 -274 b 234 -74 156 -221 182 -160 l 307 45 b 321 89 316 61 321 75 b 176 192 321 134 273 169 b 150 139 168 174 159 156 b 122 92 140 122 131 106 b 94 47 113 76 103 61 b 62 -5 83 29 73 12 b 34 -58 52 -22 43 -40 b 12 -113 25 -75 18 -94 b -2 -172 5 -132 1 -152 b -6 -235 -5 -192 -6 -213 b 4 -288 -6 -253 -3 -271 b 60 -370 16 -318 34 -345 b 142 -415 86 -394 113 -409 b 207 -422 163 -420 184 -422 z m 302 207 b 347 224 319 207 335 213 b 378 277 359 236 370 254 b 395 357 389 306 395 332 b 337 427 395 385 376 408 b 294 437 323 433 309 437 b 266 424 282 437 273 433 b 248 384 259 416 253 402 l 240 355 b 199 244 229 307 216 270 b 302 207 237 219 271 207 z "},"":{"ha":926,"x_min":0,"x_max":0,"o":"m -120 -270 b 26 -230 -72 -270 -23 -257 b 211 -62 75 -202 136 -146 b 441 235 286 22 362 121 b 634 243 515 241 580 243 l 661 243 b 635 55 644 161 635 98 b 684 -64 635 -3 651 -43 b 740 -79 700 -74 719 -79 b 824 -56 765 -79 793 -72 b 805 18 812 -41 805 -16 b 931 492 806 105 848 262 b 995 666 952 550 974 608 b 1031 782 1016 724 1027 763 b 1034 811 1032 792 1034 802 b 1006 905 1034 844 1024 876 b 915 999 984 940 954 971 b 842 1037 878 1024 854 1037 b 628 972 787 1030 715 1009 b 414 863 543 937 472 901 b 315 770 360 828 327 797 b 306 723 309 755 306 739 b 326 659 306 699 313 677 b 392 627 342 637 363 627 b 481 747 399 659 429 699 b 770 939 564 822 661 886 b 528 561 642 736 562 611 b 329 281 454 450 388 357 b -52 218 175 267 48 246 b -341 26 -208 175 -304 111 b -358 -28 -351 3 -357 -15 b -359 -55 -359 -42 -359 -51 b -322 -168 -359 -95 -347 -133 b -214 -253 -296 -206 -260 -235 b -155 -269 -191 -262 -172 -267 b -120 -270 -138 -269 -127 -270 z m 481 290 b 623 507 530 364 578 436 b 741 700 667 576 707 641 b 823 844 776 758 803 806 l 823 841 b 720 461 823 821 789 694 b 689 355 708 420 698 385 b 671 293 680 324 674 304 b 481 290 587 293 524 292 z m -186 -140 b -232 -126 -205 -140 -220 -136 b -260 -62 -251 -113 -260 -91 b -251 -12 -260 -46 -257 -30 b 146 211 -218 85 -85 160 b 296 237 205 224 255 233 b 196 131 280 218 247 182 b -186 -140 16 -50 -111 -140 z m 842 1130 b 871 1150 854 1131 863 1137 b 884 1193 880 1162 884 1177 b 855 1292 884 1230 874 1263 b 793 1327 839 1316 819 1327 b 760 1323 781 1327 770 1326 b 730 1312 748 1320 739 1316 b 713 1296 722 1307 716 1302 b 774 1232 734 1282 755 1261 b 817 1152 793 1203 808 1176 b 842 1130 823 1137 831 1130 z "},"":{"ha":926,"x_min":0,"x_max":0,"o":"m -120 -270 b 26 -230 -72 -270 -23 -257 b 211 -62 75 -202 136 -146 b 441 235 286 22 362 121 b 634 243 515 241 580 243 l 661 243 b 635 55 644 161 635 98 b 684 -64 635 -3 651 -43 b 740 -79 700 -74 719 -79 b 824 -56 765 -79 793 -72 b 805 18 812 -41 805 -16 b 931 492 806 105 848 262 b 995 666 952 550 974 608 b 1031 782 1016 724 1027 763 b 1034 811 1032 792 1034 802 b 1006 905 1034 844 1024 876 b 915 999 984 940 954 971 b 842 1037 878 1024 854 1037 b 628 972 787 1030 715 1009 b 414 863 543 937 472 901 b 315 770 360 828 327 797 b 306 723 309 755 306 739 b 326 659 306 699 313 677 b 392 627 342 637 363 627 b 481 747 399 659 429 699 b 770 939 564 822 661 886 b 528 561 642 736 562 611 b 329 281 454 450 388 357 b -52 218 175 267 48 246 b -341 26 -208 175 -304 111 b -358 -28 -351 3 -357 -15 b -359 -55 -359 -42 -359 -51 b -322 -168 -359 -95 -347 -133 b -214 -253 -296 -206 -260 -235 b -155 -269 -191 -262 -172 -267 b -120 -270 -138 -269 -127 -270 z m 481 290 b 623 507 530 364 578 436 b 741 700 667 576 707 641 b 823 844 776 758 803 806 l 823 841 b 720 461 823 821 789 694 b 689 355 708 420 698 385 b 671 293 680 324 674 304 b 481 290 587 293 524 292 z m -186 -140 b -232 -126 -205 -140 -220 -136 b -260 -62 -251 -113 -260 -91 b -251 -12 -260 -46 -257 -30 b 146 211 -218 85 -85 160 b 296 237 205 224 255 233 b 196 131 280 218 247 182 b -186 -140 16 -50 -111 -140 z m 823 1109 b 848 1132 834 1109 842 1117 b 890 1211 859 1159 873 1185 b 951 1276 909 1240 930 1261 b 935 1291 948 1282 943 1286 b 906 1303 926 1296 917 1299 b 872 1307 895 1305 884 1307 b 795 1242 838 1307 812 1285 b 781 1173 786 1221 781 1197 b 793 1130 781 1157 785 1143 b 819 1109 801 1118 810 1111 z "},"":{"ha":926,"x_min":0,"x_max":0,"o":"m -120 -270 b 26 -230 -72 -270 -23 -257 b 211 -62 75 -202 136 -146 b 441 235 286 22 362 121 b 634 243 515 241 580 243 l 661 243 b 635 55 644 161 635 98 b 684 -64 635 -3 651 -43 b 740 -79 700 -74 719 -79 b 824 -56 765 -79 793 -72 b 805 18 812 -41 805 -16 b 931 492 806 105 848 262 b 995 666 952 550 974 608 b 1031 782 1016 724 1027 763 b 1034 811 1032 792 1034 802 b 1006 905 1034 844 1024 876 b 915 999 984 940 954 971 b 842 1037 878 1024 854 1037 b 628 972 787 1030 715 1009 b 414 863 543 937 472 901 b 315 770 360 828 327 797 b 306 723 309 755 306 739 b 326 659 306 699 313 677 b 392 627 342 637 363 627 b 481 747 399 659 429 699 b 770 939 564 822 661 886 b 528 561 642 736 562 611 b 329 281 454 450 388 357 b -52 218 175 267 48 246 b -341 26 -208 175 -304 111 b -358 -28 -351 3 -357 -15 b -359 -55 -359 -42 -359 -51 b -322 -168 -359 -95 -347 -133 b -214 -253 -296 -206 -260 -235 b -155 -269 -191 -262 -172 -267 b -120 -270 -138 -269 -127 -270 z m 481 290 b 623 507 530 364 578 436 b 741 700 667 576 707 641 b 823 844 776 758 803 806 l 823 841 b 720 461 823 821 789 694 b 689 355 708 420 698 385 b 671 293 680 324 674 304 b 481 290 587 293 524 292 z m -186 -140 b -232 -126 -205 -140 -220 -136 b -260 -62 -251 -113 -260 -91 b -251 -12 -260 -46 -257 -30 b 146 211 -218 85 -85 160 b 296 237 205 224 255 233 b 196 131 280 218 247 182 b -186 -140 16 -50 -111 -140 z m 709 1089 b 864 1272 802 1197 853 1258 b 908 1171 882 1230 896 1196 b 939 1126 918 1148 929 1133 b 969 1115 949 1118 959 1115 b 983 1116 974 1115 979 1115 l 888 1343 b 865 1355 886 1351 878 1355 b 833 1351 854 1355 844 1354 b 784 1327 809 1345 793 1337 b 701 1219 739 1270 711 1234 b 677 1152 685 1191 677 1168 b 709 1089 677 1126 688 1105 z "},"":{"ha":926,"x_min":0,"x_max":0,"o":"m -120 -270 b 26 -230 -72 -270 -23 -257 b 211 -62 75 -202 136 -146 b 441 235 286 22 362 121 b 634 243 515 241 580 243 l 661 243 b 635 55 644 161 635 98 b 684 -64 635 -3 651 -43 b 740 -79 700 -74 719 -79 b 824 -56 765 -79 793 -72 b 805 18 812 -41 805 -16 b 931 492 806 105 848 262 b 995 666 952 550 974 608 b 1031 782 1016 724 1027 763 b 1034 811 1032 792 1034 802 b 1006 905 1034 844 1024 876 b 915 999 984 940 954 971 b 842 1037 878 1024 854 1037 b 628 972 787 1030 715 1009 b 414 863 543 937 472 901 b 315 770 360 828 327 797 b 306 723 309 755 306 739 b 326 659 306 699 313 677 b 392 627 342 637 363 627 b 481 747 399 659 429 699 b 770 939 564 822 661 886 b 528 561 642 736 562 611 b 329 281 454 450 388 357 b -52 218 175 267 48 246 b -341 26 -208 175 -304 111 b -358 -28 -351 3 -357 -15 b -359 -55 -359 -42 -359 -51 b -322 -168 -359 -95 -347 -133 b -214 -253 -296 -206 -260 -235 b -155 -269 -191 -262 -172 -267 b -120 -270 -138 -269 -127 -270 z m 481 290 b 623 507 530 364 578 436 b 741 700 667 576 707 641 b 823 844 776 758 803 806 l 823 841 b 720 461 823 821 789 694 b 689 355 708 420 698 385 b 671 293 680 324 674 304 b 481 290 587 293 524 292 z m -186 -140 b -232 -126 -205 -140 -220 -136 b -260 -62 -251 -113 -260 -91 b -251 -12 -260 -46 -257 -30 b 146 211 -218 85 -85 160 b 296 237 205 224 255 233 b 196 131 280 218 247 182 b -186 -140 16 -50 -111 -140 z m 740 1112 b 762 1113 747 1112 754 1112 b 802 1118 774 1114 787 1116 b 844 1127 815 1121 829 1124 b 886 1137 858 1131 872 1133 b 922 1142 901 1139 912 1141 b 945 1143 931 1143 939 1143 b 991 1133 964 1143 980 1139 b 997 1170 995 1147 997 1159 b 991 1202 997 1183 995 1194 b 920 1231 981 1221 957 1231 b 827 1221 897 1231 866 1227 b 736 1211 789 1215 759 1212 b 674 1224 715 1211 694 1215 b 669 1181 671 1208 669 1194 b 722 1113 669 1140 687 1117 b 740 1112 729 1112 735 1112 z "},"":{"ha":926,"x_min":0,"x_max":0,"o":"m -120 -270 b 26 -230 -72 -270 -23 -257 b 211 -62 75 -202 136 -146 b 441 235 286 22 362 121 b 634 243 515 241 580 243 l 661 243 b 635 55 644 161 635 98 b 684 -64 635 -3 651 -43 b 740 -79 700 -74 719 -79 b 824 -56 765 -79 793 -72 b 805 18 812 -41 805 -16 b 931 492 806 105 848 262 b 995 666 952 550 974 608 b 1031 782 1016 724 1027 763 b 1034 811 1032 792 1034 802 b 1006 905 1034 844 1024 876 b 915 999 984 940 954 971 b 842 1037 878 1024 854 1037 b 628 972 787 1030 715 1009 b 414 863 543 937 472 901 b 315 770 360 828 327 797 b 306 723 309 755 306 739 b 326 659 306 699 313 677 b 392 627 342 637 363 627 b 481 747 399 659 429 699 b 770 939 564 822 661 886 b 528 561 642 736 562 611 b 329 281 454 450 388 357 b -52 218 175 267 48 246 b -341 26 -208 175 -304 111 b -358 -28 -351 3 -357 -15 b -359 -55 -359 -42 -359 -51 b -322 -168 -359 -95 -347 -133 b -214 -253 -296 -206 -260 -235 b -155 -269 -191 -262 -172 -267 b -120 -270 -138 -269 -127 -270 z m 481 290 b 623 507 530 364 578 436 b 741 700 667 576 707 641 b 823 844 776 758 803 806 l 823 841 b 720 461 823 821 789 694 b 689 355 708 420 698 385 b 671 293 680 324 674 304 b 481 290 587 293 524 292 z m -186 -140 b -232 -126 -205 -140 -220 -136 b -260 -62 -251 -113 -260 -91 b -251 -12 -260 -46 -257 -30 b 146 211 -218 85 -85 160 b 296 237 205 224 255 233 b 196 131 280 218 247 182 b -186 -140 16 -50 -111 -140 z m 749 1095 b 777 1107 761 1095 770 1099 b 795 1148 784 1115 789 1128 l 803 1177 b 844 1288 814 1225 827 1262 b 741 1325 806 1313 772 1325 b 696 1308 724 1325 708 1319 b 665 1255 684 1296 673 1278 b 648 1175 654 1226 648 1200 b 706 1106 648 1147 667 1124 b 749 1095 720 1099 734 1095 z m 954 1095 b 982 1107 966 1095 975 1099 b 1000 1148 989 1115 994 1128 l 1008 1177 b 1048 1288 1019 1225 1032 1262 b 946 1325 1011 1313 977 1325 b 902 1308 928 1325 913 1320 b 870 1255 890 1297 880 1280 b 853 1175 859 1227 853 1200 b 911 1106 853 1147 872 1124 b 954 1095 925 1099 939 1095 z "},"":{"ha":926,"x_min":0,"x_max":0,"o":"m -120 -270 b 26 -230 -72 -270 -23 -257 b 211 -62 75 -202 136 -146 b 441 235 286 22 362 121 b 634 243 515 241 580 243 l 661 243 b 635 55 644 161 635 98 b 684 -64 635 -3 651 -43 b 740 -79 700 -74 719 -79 b 824 -56 765 -79 793 -72 b 805 18 812 -41 805 -16 b 931 492 806 105 848 262 b 995 666 952 550 974 608 b 1031 782 1016 724 1027 763 b 1034 811 1032 792 1034 802 b 1006 905 1034 844 1024 876 b 915 999 984 940 954 971 b 842 1037 878 1024 854 1037 b 628 972 787 1030 715 1009 b 414 863 543 937 472 901 b 315 770 360 828 327 797 b 306 723 309 755 306 739 b 326 659 306 699 313 677 b 392 627 342 637 363 627 b 481 747 399 659 429 699 b 770 939 564 822 661 886 b 528 561 642 736 562 611 b 329 281 454 450 388 357 b -52 218 175 267 48 246 b -341 26 -208 175 -304 111 b -358 -28 -351 3 -357 -15 b -359 -55 -359 -42 -359 -51 b -322 -168 -359 -95 -347 -133 b -214 -253 -296 -206 -260 -235 b -155 -269 -191 -262 -172 -267 b -120 -270 -138 -269 -127 -270 z m 481 290 b 623 507 530 364 578 436 b 741 700 667 576 707 641 b 823 844 776 758 803 806 l 823 841 b 720 461 823 821 789 694 b 689 355 708 420 698 385 b 671 293 680 324 674 304 b 481 290 587 293 524 292 z m -186 -140 b -232 -126 -205 -140 -220 -136 b -260 -62 -251 -113 -260 -91 b -251 -12 -260 -46 -257 -30 b 146 211 -218 85 -85 160 b 296 237 205 224 255 233 b 196 131 280 218 247 182 b -186 -140 16 -50 -111 -140 z m 955 1056 b 994 1074 968 1056 981 1062 b 1021 1118 1004 1084 1013 1098 b 1034 1167 1029 1135 1033 1152 b 1034 1198 1034 1182 1034 1192 b 1022 1231 1031 1212 1027 1223 b 1004 1246 1019 1236 1013 1241 b 946 1263 983 1258 964 1263 b 892 1242 925 1263 907 1257 b 852 1148 865 1219 852 1187 b 897 1071 852 1116 867 1090 b 947 1056 913 1061 930 1056 z m 956 1088 b 937 1103 948 1088 942 1093 b 930 1140 932 1112 930 1124 b 943 1190 930 1160 934 1176 b 979 1213 954 1205 965 1213 b 1002 1182 995 1213 1002 1203 b 998 1153 1002 1174 1001 1164 b 956 1088 986 1110 972 1088 z "},"":{"ha":926,"x_min":0,"x_max":0,"o":"m -120 -270 b 26 -230 -72 -270 -23 -257 b 211 -62 75 -202 136 -146 b 441 235 286 22 362 121 b 634 243 515 241 580 243 l 661 243 b 635 55 644 161 635 98 b 684 -64 635 -3 651 -43 b 740 -79 700 -74 719 -79 b 824 -56 765 -79 793 -72 b 805 18 812 -41 805 -16 b 931 492 806 105 848 262 b 995 666 952 550 974 608 b 1031 782 1016 724 1027 763 b 1034 811 1032 792 1034 802 b 1006 905 1034 844 1024 876 b 915 999 984 940 954 971 b 842 1037 878 1024 854 1037 b 628 972 787 1030 715 1009 b 414 863 543 937 472 901 b 315 770 360 828 327 797 b 306 723 309 755 306 739 b 326 659 306 699 313 677 b 392 627 342 637 363 627 b 481 747 399 659 429 699 b 770 939 564 822 661 886 b 528 561 642 736 562 611 b 329 281 454 450 388 357 b -52 218 175 267 48 246 b -341 26 -208 175 -304 111 b -358 -28 -351 3 -357 -15 b -359 -55 -359 -42 -359 -51 b -322 -168 -359 -95 -347 -133 b -214 -253 -296 -206 -260 -235 b -155 -269 -191 -262 -172 -267 b -120 -270 -138 -269 -127 -270 z m 481 290 b 623 507 530 364 578 436 b 741 700 667 576 707 641 b 823 844 776 758 803 806 l 823 841 b 720 461 823 821 789 694 b 689 355 708 420 698 385 b 671 293 680 324 674 304 b 481 290 587 293 524 292 z m -186 -140 b -232 -126 -205 -140 -220 -136 b -260 -62 -251 -113 -260 -91 b -251 -12 -260 -46 -257 -30 b 146 211 -218 85 -85 160 b 296 237 205 224 255 233 b 196 131 280 218 247 182 b -186 -140 16 -50 -111 -140 z m 759 1104 b 835 1107 783 1105 808 1106 b 905 1109 861 1108 884 1109 b 958 1111 926 1110 943 1111 b 1078 1105 1001 1111 1041 1109 b 1086 1148 1084 1121 1086 1135 b 988 1219 1086 1187 1053 1211 b 893 1224 964 1222 932 1224 b 787 1220 867 1224 831 1223 b 676 1217 741 1218 704 1217 b 600 1221 648 1217 623 1219 b 557 1232 583 1223 569 1227 b 546 1183 549 1213 546 1196 b 557 1145 546 1167 549 1154 b 632 1109 570 1127 595 1116 b 724 1104 654 1105 684 1104 z "},"":{"ha":926,"x_min":0,"x_max":0,"o":"m -120 -270 b 26 -230 -72 -270 -23 -257 b 211 -62 75 -202 136 -146 b 441 235 286 22 362 121 b 634 243 515 241 580 243 l 661 243 b 635 55 644 161 635 98 b 684 -64 635 -3 651 -43 b 740 -79 700 -74 719 -79 b 824 -56 765 -79 793 -72 b 805 18 812 -41 805 -16 b 931 492 806 105 848 262 b 995 666 952 550 974 608 b 1031 782 1016 724 1027 763 b 1034 811 1032 792 1034 802 b 1006 905 1034 844 1024 876 b 915 999 984 940 954 971 b 842 1037 878 1024 854 1037 b 628 972 787 1030 715 1009 b 414 863 543 937 472 901 b 315 770 360 828 327 797 b 306 723 309 755 306 739 b 326 659 306 699 313 677 b 392 627 342 637 363 627 b 481 747 399 659 429 699 b 770 939 564 822 661 886 b 528 561 642 736 562 611 b 329 281 454 450 388 357 b -52 218 175 267 48 246 b -341 26 -208 175 -304 111 b -358 -28 -351 3 -357 -15 b -359 -55 -359 -42 -359 -51 b -322 -168 -359 -95 -347 -133 b -214 -253 -296 -206 -260 -235 b -155 -269 -191 -262 -172 -267 b -120 -270 -138 -269 -127 -270 z m 481 290 b 623 507 530 364 578 436 b 741 700 667 576 707 641 b 823 844 776 758 803 806 l 823 841 b 720 461 823 821 789 694 b 689 355 708 420 698 385 b 671 293 680 324 674 304 b 481 290 587 293 524 292 z m -186 -140 b -232 -126 -205 -140 -220 -136 b -260 -62 -251 -113 -260 -91 b -251 -12 -260 -46 -257 -30 b 146 211 -218 85 -85 160 b 296 237 205 224 255 233 b 196 131 280 218 247 182 b -186 -140 16 -50 -111 -140 z m 862 1103 b 919 1118 883 1104 902 1109 b 962 1163 934 1127 948 1142 b 995 1237 975 1184 986 1208 b 984 1240 992 1239 989 1240 b 960 1230 975 1239 967 1236 b 931 1174 950 1206 941 1188 b 874 1135 913 1149 895 1135 b 834 1165 855 1135 842 1145 b 821 1236 825 1181 821 1204 l 821 1248 b 806 1246 816 1248 811 1247 b 743 1215 778 1240 757 1230 b 730 1188 734 1204 730 1196 b 740 1166 733 1179 736 1172 b 862 1103 765 1124 806 1103 z "},"":{"ha":926,"x_min":0,"x_max":0,"o":"m 481 290 b 623 507 530 364 578 436 b 741 700 667 576 707 641 b 823 844 776 758 803 806 l 823 841 b 720 461 823 821 789 694 b 689 355 708 420 698 385 b 671 293 680 324 674 304 b 481 290 587 293 524 292 z m -186 -140 b -232 -126 -205 -140 -220 -136 b -260 -62 -251 -113 -260 -91 b -251 -12 -260 -46 -257 -30 b 146 211 -218 85 -85 160 b 296 237 205 224 255 233 b 196 131 280 218 247 182 b -186 -140 16 -50 -111 -140 z m -120 -270 b 26 -230 -72 -270 -23 -257 b 211 -62 75 -202 136 -146 b 441 235 286 22 362 121 b 634 243 515 241 580 243 l 661 243 b 635 55 644 161 635 98 b 652 -28 635 20 641 -7 b 584 -85 633 -35 610 -54 b 556 -149 566 -109 556 -130 b 582 -195 557 -165 565 -181 b 631 -224 604 -212 621 -222 b 652 -227 637 -227 645 -227 b 686 -223 663 -227 674 -226 b 784 -182 724 -216 756 -202 b 739 -149 772 -160 757 -149 b 705 -161 732 -149 721 -153 b 660 -175 684 -170 669 -175 b 642 -149 648 -175 642 -166 b 654 -105 642 -134 646 -119 b 686 -65 663 -89 674 -76 b 737 -79 701 -75 718 -79 b 824 -56 764 -79 793 -71 b 805 18 812 -41 805 -16 b 931 492 805 104 847 261 b 995 666 952 550 974 608 b 1031 782 1016 724 1027 763 b 1034 811 1032 792 1034 802 b 1006 905 1034 844 1024 876 b 915 999 984 940 954 971 b 842 1037 878 1024 854 1037 b 628 972 787 1030 715 1009 b 414 863 543 937 472 901 b 315 770 360 828 327 797 b 306 723 309 755 306 739 b 326 659 306 699 313 677 b 392 627 342 637 363 627 b 481 747 399 659 429 699 b 770 939 564 822 661 886 b 528 561 642 736 562 611 b 329 281 454 450 388 357 b -52 218 175 267 48 246 b -341 26 -208 175 -304 111 b -358 -28 -351 3 -357 -15 b -359 -54 -359 -41 -359 -50 b -322 -168 -359 -95 -347 -133 b -214 -253 -296 -206 -260 -235 b -155 -269 -191 -262 -172 -267 b -120 -270 -138 -269 -127 -270 z "},"":{"ha":1815,"x_min":0,"x_max":0,"o":"m 235 -271 b 381 -230 283 -271 332 -257 b 566 -62 428 -204 490 -149 b 797 235 641 22 718 121 b 989 243 871 241 935 243 l 1017 243 b 991 55 999 160 991 97 b 1002 -14 991 28 994 5 b 1095 -79 1018 -58 1048 -79 l 1097 -79 b 1195 -147 1124 -106 1156 -128 b 1248 -169 1215 -159 1233 -167 b 1284 -172 1263 -171 1275 -172 b 1385 -146 1317 -172 1350 -163 b 1617 63 1460 -109 1537 -39 b 1702 184 1647 102 1676 142 b 1737 249 1725 221 1737 243 b 1733 262 1737 254 1735 258 b 1724 273 1731 267 1728 270 b 1710 276 1719 275 1715 276 b 1687 262 1699 276 1692 271 b 1680 251 1687 262 1685 258 b 1630 175 1669 233 1652 207 b 1372 -75 1539 46 1453 -37 b 1321 -92 1350 -85 1333 -92 b 1297 -94 1310 -93 1301 -94 b 1223 -60 1267 -94 1242 -82 b 1187 54 1200 -32 1187 5 b 1210 165 1187 89 1195 126 b 1292 290 1227 210 1254 252 b 1440 379 1331 329 1381 359 b 1571 405 1486 394 1529 402 b 1572 421 1572 411 1572 416 b 1550 467 1572 441 1565 456 b 1487 486 1533 478 1512 484 l 1466 486 l 1438 486 b 1407 566 1417 504 1407 531 b 1431 678 1407 598 1415 635 b 1490 793 1445 717 1465 755 b 1566 889 1515 832 1540 864 b 1649 937 1598 922 1626 937 b 1665 933 1654 937 1659 936 b 1673 920 1670 930 1672 926 b 1674 908 1674 915 1674 911 b 1658 835 1674 890 1669 865 b 1607 730 1646 800 1629 766 b 1489 620 1569 671 1530 634 l 1497 612 b 1560 589 1512 596 1533 589 b 1600 593 1573 589 1586 590 b 1759 724 1670 609 1723 652 b 1786 833 1777 760 1786 796 b 1700 991 1786 900 1758 953 b 1601 1033 1671 1010 1638 1024 b 1550 1039 1584 1037 1567 1039 b 1522 1036 1541 1038 1531 1038 b 1470 1014 1506 1032 1489 1025 b 1411 974 1450 1003 1430 989 b 1352 920 1391 958 1371 940 b 1265 1003 1332 949 1303 977 b 1197 1037 1232 1025 1209 1037 b 1110 1019 1182 1037 1153 1031 b 926 949 1050 1000 989 977 b 694 805 821 899 743 851 b 661 723 672 782 661 755 b 682 659 661 699 668 677 b 744 627 697 637 718 627 l 747 627 b 814 725 753 654 776 687 b 954 839 850 762 897 800 b 1126 939 1010 878 1067 911 b 1052 823 1114 922 1089 883 b 884 561 972 696 916 608 b 684 281 810 450 743 357 b 304 218 532 267 404 246 b 16 33 152 176 56 114 b -5 -55 3 4 -5 -25 b 18 -146 -5 -87 3 -117 b 102 -234 37 -182 66 -212 b 162 -260 121 -245 140 -254 b 213 -271 183 -267 200 -270 b 235 -271 226 -271 233 -271 z m 836 290 b 978 507 886 364 933 436 b 1097 700 1022 576 1062 641 b 1179 845 1131 759 1159 807 l 1179 842 b 1158 751 1179 832 1172 802 b 1044 355 1142 691 1104 559 b 1027 293 1036 324 1029 304 b 836 290 943 293 879 292 z m 1272 450 l 1288 495 b 1323 467 1298 485 1310 475 b 1272 450 1305 462 1289 456 z m 168 -141 b 123 -127 149 -140 134 -136 b 95 -62 104 -113 95 -92 b 104 -12 95 -46 98 -30 b 169 77 116 22 138 52 b 448 198 227 125 320 165 b 651 237 513 216 582 229 b 576 156 635 218 610 191 b 168 -141 382 -42 246 -141 z "},"":{"ha":1303,"x_min":0,"x_max":0,"o":"m 287 -189 b 549 -39 379 -189 466 -138 b 683 -147 582 -83 627 -119 b 736 -169 703 -159 721 -167 b 772 -172 751 -171 763 -172 b 873 -146 804 -172 838 -163 b 1105 63 947 -110 1025 -40 b 1190 184 1135 102 1164 142 b 1225 249 1213 221 1225 243 b 1221 262 1225 254 1223 258 b 1212 273 1219 267 1216 270 b 1198 276 1207 275 1203 276 b 1175 262 1188 276 1180 271 b 860 -75 1064 83 959 -29 b 809 -92 838 -85 821 -92 b 785 -94 798 -93 789 -94 b 711 -60 755 -94 730 -82 b 675 54 688 -32 675 5 b 698 165 675 89 683 126 b 780 290 715 210 742 252 b 928 379 819 329 869 359 b 1059 405 974 394 1017 402 b 1060 420 1059 410 1060 416 b 1038 467 1060 440 1053 456 b 954 486 1019 479 991 486 l 926 486 b 895 566 905 504 895 531 b 919 678 895 598 903 635 b 978 794 933 715 953 754 b 1054 889 1001 831 1026 863 b 1137 937 1086 922 1114 937 b 1153 933 1142 937 1147 936 b 1161 920 1158 930 1160 926 b 1162 908 1162 915 1162 911 b 1146 835 1162 889 1157 865 b 1095 730 1133 798 1115 763 b 977 620 1057 670 1017 633 l 985 612 b 1048 589 1000 596 1021 589 b 1088 593 1061 589 1074 590 b 1174 633 1120 601 1149 614 b 1247 724 1204 657 1229 687 b 1274 833 1265 760 1274 796 b 1188 991 1274 901 1246 953 b 1089 1033 1159 1010 1126 1024 b 1038 1039 1072 1037 1055 1039 b 1010 1036 1028 1038 1019 1038 b 956 1013 994 1031 976 1024 b 897 972 937 1002 917 989 b 838 918 877 956 857 938 b 785 851 819 897 801 875 b 742 777 768 827 753 802 b 669 910 725 828 701 872 b 525 1012 627 959 579 993 b 450 1029 494 1023 469 1029 b 415 1031 431 1031 420 1031 b 236 985 355 1031 294 1016 b 81 842 172 951 121 904 b 3 639 42 783 16 715 b -7 530 -3 603 -7 566 b 31 329 -7 456 6 389 b 2 128 12 258 2 191 b 157 -153 2 -5 54 -99 b 287 -189 201 -177 244 -189 z m 222 -90 b 188 -68 208 -90 196 -83 b 174 -9 180 -53 176 -33 l 174 16 b 191 166 174 49 180 99 l 192 169 b 264 159 214 162 238 159 b 385 184 302 159 342 168 b 407 218 400 191 407 202 b 397 243 407 228 404 237 b 269 216 351 225 308 216 b 203 227 245 216 223 220 b 470 706 254 452 342 612 b 508 729 482 715 495 723 b 369 802 468 778 422 802 b 291 782 344 802 318 795 b 172 668 241 758 202 720 b 62 425 130 593 93 511 b 56 503 58 450 56 477 b 68 615 56 538 60 576 b 144 792 83 682 108 741 b 270 901 178 840 220 876 b 406 934 315 923 361 934 b 541 893 459 934 504 920 b 625 764 583 863 610 819 b 635 699 631 737 634 715 b 635 671 635 683 635 673 b 536 288 635 561 602 433 b 444 113 507 224 476 165 b 229 -90 367 -9 295 -77 z m 761 451 b 768 503 764 469 766 486 b 811 467 780 490 794 478 b 761 451 793 462 777 456 z "},"":{"ha":647,"x_min":0,"x_max":0,"o":"m 189 -498 b 279 -480 221 -498 252 -492 b 352 -433 308 -468 332 -452 b 397 -370 372 -414 387 -393 b 406 -329 403 -355 406 -342 b 321 -224 406 -281 378 -246 l 359 -152 b 582 42 428 -124 503 -60 b 675 178 615 85 646 130 b 711 249 699 219 711 243 b 698 272 711 259 707 267 b 684 275 693 275 689 275 b 661 262 675 275 667 271 b 629 209 661 260 650 243 b 424 -32 562 104 493 24 b 271 -98 370 -76 319 -98 b 165 9 211 -98 176 -62 b 163 44 164 20 163 32 b 263 425 163 145 197 272 b 376 646 295 499 333 572 b 551 877 439 754 498 831 b 616 909 577 899 599 909 b 637 904 624 909 631 907 b 646 881 643 900 646 892 b 618 784 645 857 636 824 b 550 659 599 739 576 697 b 407 530 501 589 454 545 b 444 486 415 513 427 498 b 510 464 462 471 484 464 b 569 476 529 464 549 468 b 666 541 604 490 636 511 b 748 658 701 574 728 613 b 776 779 766 699 776 740 b 690 966 776 848 747 911 b 543 1036 643 1011 594 1035 b 521 1034 535 1036 528 1036 b 336 922 460 1020 398 983 b 174 705 278 865 224 792 b 54 439 123 618 83 530 b -4 137 15 325 -4 224 b 22 6 -4 85 5 41 b 118 -106 43 -36 75 -73 b 253 -170 168 -145 213 -166 l 262 -172 b 249 -198 258 -177 254 -186 b 243 -223 245 -206 243 -215 b 257 -248 243 -234 248 -243 b 303 -312 288 -267 303 -289 b 282 -366 303 -330 296 -348 b 225 -418 268 -385 249 -402 b 142 -451 192 -440 164 -451 b 125 -446 134 -451 128 -449 b 123 -447 125 -446 124 -446 b 122 -452 123 -448 123 -450 b 121 -461 121 -455 121 -458 b 130 -481 121 -468 124 -475 b 189 -498 140 -492 160 -498 z "},"":{"ha":647,"x_min":0,"x_max":0,"o":"m 271 -172 b 524 -26 351 -172 435 -123 b 708 235 591 47 653 135 b 711 248 710 239 711 243 b 698 272 711 259 707 267 b 684 275 693 275 689 275 b 661 262 675 275 667 271 b 629 209 661 260 650 243 b 424 -32 562 104 493 24 b 270 -98 370 -76 318 -98 b 163 47 199 -98 163 -50 b 263 425 163 146 197 271 b 376 646 295 499 333 572 b 496 820 416 714 456 772 b 617 909 546 880 587 909 b 645 884 635 909 645 901 b 589 722 645 846 626 792 b 506 602 564 677 537 637 b 407 530 473 565 439 541 b 510 464 431 486 466 464 b 569 476 529 464 549 468 b 666 541 604 490 636 511 b 748 658 701 574 728 613 b 776 779 766 699 776 739 b 690 966 776 848 747 911 b 543 1036 643 1011 594 1035 b 521 1034 535 1036 528 1036 b 336 922 460 1020 398 983 b 174 705 278 865 224 792 b 54 439 123 618 83 530 b -4 137 15 325 -4 224 b 22 6 -4 85 5 41 b 118 -106 43 -36 75 -73 b 182 -147 138 -122 160 -136 b 239 -170 205 -160 224 -168 b 271 -172 255 -171 265 -172 z m 576 1109 b 601 1132 587 1109 595 1117 b 644 1211 612 1159 627 1185 b 705 1276 663 1240 683 1261 b 688 1291 701 1282 696 1286 b 659 1303 680 1296 670 1299 b 625 1307 648 1305 637 1307 b 548 1242 591 1307 565 1285 b 534 1173 539 1221 534 1197 b 546 1130 534 1157 538 1143 b 572 1109 554 1118 563 1111 z "},"":{"ha":647,"x_min":0,"x_max":0,"o":"m 271 -172 b 524 -26 351 -172 435 -123 b 708 235 591 47 653 135 b 711 248 710 239 711 243 b 698 272 711 259 707 267 b 684 275 693 275 689 275 b 661 262 675 275 667 271 b 629 209 661 260 650 243 b 424 -32 562 104 493 24 b 270 -98 370 -76 318 -98 b 163 47 199 -98 163 -50 b 263 425 163 146 197 271 b 376 646 295 499 333 572 b 496 820 416 714 456 772 b 617 909 546 880 587 909 b 645 884 635 909 645 901 b 589 722 645 846 626 792 b 506 602 564 677 537 637 b 407 530 473 565 439 541 b 510 464 431 486 466 464 b 569 476 529 464 549 468 b 666 541 604 490 636 511 b 748 658 701 574 728 613 b 776 779 766 699 776 739 b 690 966 776 848 747 911 b 543 1036 643 1011 594 1035 b 521 1034 535 1036 528 1036 b 336 922 460 1020 398 983 b 174 705 278 865 224 792 b 54 439 123 618 83 530 b -4 137 15 325 -4 224 b 22 6 -4 85 5 41 b 118 -106 43 -36 75 -73 b 182 -147 138 -122 160 -136 b 239 -170 205 -160 224 -168 b 271 -172 255 -171 265 -172 z m 409 1066 b 564 1249 501 1174 553 1235 b 608 1148 581 1206 595 1173 b 638 1103 618 1125 629 1110 b 669 1092 648 1095 659 1092 b 682 1093 673 1092 678 1092 l 588 1320 b 565 1332 585 1328 578 1332 b 532 1328 554 1332 543 1331 b 484 1304 509 1322 492 1314 b 400 1196 438 1247 410 1211 b 377 1128 385 1168 377 1145 b 409 1066 377 1103 388 1082 z "},"":{"ha":647,"x_min":0,"x_max":0,"o":"m 271 -172 b 524 -26 351 -172 435 -123 b 708 235 591 47 653 135 b 711 248 710 239 711 243 b 698 272 711 259 707 267 b 684 275 693 275 689 275 b 661 262 675 275 667 271 b 629 209 661 260 650 243 b 424 -32 562 104 493 24 b 270 -98 370 -76 318 -98 b 163 47 199 -98 163 -50 b 263 425 163 146 197 271 b 376 646 295 499 333 572 b 496 820 416 714 456 772 b 617 909 546 880 587 909 b 645 884 635 909 645 901 b 589 722 645 846 626 792 b 506 602 564 677 537 637 b 407 530 473 565 439 541 b 510 464 431 486 466 464 b 569 476 529 464 549 468 b 666 541 604 490 636 511 b 748 658 701 574 728 613 b 776 779 766 699 776 739 b 690 966 776 848 747 911 b 543 1036 643 1011 594 1035 b 521 1034 535 1036 528 1036 b 336 922 460 1020 398 983 b 174 705 278 865 224 792 b 54 439 123 618 83 530 b -4 137 15 325 -4 224 b 22 6 -4 85 5 41 b 118 -106 43 -36 75 -73 b 182 -147 138 -122 160 -136 b 239 -170 205 -160 224 -168 b 271 -172 255 -171 265 -172 z m 574 1099 b 632 1114 595 1101 614 1105 b 652 1128 641 1118 647 1123 b 735 1236 699 1187 727 1223 b 758 1303 751 1264 758 1286 b 726 1365 758 1330 747 1350 b 572 1183 640 1265 588 1204 b 528 1284 553 1227 538 1261 b 496 1329 516 1308 505 1323 b 462 1340 487 1336 475 1339 l 453 1339 b 547 1112 514 1192 545 1116 b 574 1099 550 1103 559 1099 z "},"":{"ha":663,"x_min":0,"x_max":0,"o":"m 275 -172 b 533 -26 354 -172 439 -123 b 725 235 603 47 667 134 b 728 249 727 240 728 244 b 715 272 728 260 724 267 b 703 275 711 275 707 275 b 679 262 692 275 684 271 b 645 208 679 260 667 242 b 433 -33 575 103 504 23 b 364 -75 410 -50 387 -64 b 311 -93 339 -87 321 -92 b 291 -93 300 -93 293 -93 b 207 -48 255 -93 227 -78 b 180 52 189 -22 180 12 b 193 138 180 79 184 108 b 273 278 208 190 235 237 b 432 378 316 325 369 358 b 563 404 477 394 521 402 b 564 420 564 410 564 415 b 542 467 564 440 557 456 b 458 486 523 479 495 486 l 431 486 b 399 568 410 504 399 532 b 465 766 399 623 421 689 b 547 877 490 808 517 845 b 641 937 585 917 616 937 b 658 932 647 937 652 935 b 667 907 663 929 667 921 b 650 835 667 888 661 864 b 599 730 637 798 619 763 b 481 619 562 670 522 633 b 553 589 498 599 522 589 b 593 593 565 589 578 590 b 751 724 663 609 715 652 b 779 833 770 760 779 797 b 766 903 779 857 774 880 b 677 1000 749 943 720 975 b 543 1038 632 1025 587 1038 b 465 1015 519 1038 494 1031 b 355 930 428 995 391 966 b 260 804 317 891 286 849 b 214 648 230 748 214 696 b 315 466 214 574 248 513 b 192 418 269 454 228 437 b 98 350 155 398 124 375 b 35 269 71 325 50 298 b 3 189 18 239 8 212 b -3 128 -1 165 -3 145 b 31 -2 -3 83 8 39 b 187 -147 63 -63 115 -111 b 244 -170 210 -160 229 -168 b 275 -172 259 -171 269 -172 z m 591 1084 b 621 1104 603 1084 612 1091 b 633 1147 629 1116 633 1131 b 604 1246 633 1184 623 1217 b 542 1281 588 1270 568 1281 b 509 1277 530 1281 519 1280 b 479 1265 497 1274 488 1270 b 462 1250 471 1261 465 1256 b 523 1186 484 1236 504 1215 b 566 1106 543 1157 557 1130 b 591 1084 572 1091 581 1084 z "},"":{"ha":663,"x_min":0,"x_max":0,"o":"m 275 -172 b 533 -26 354 -172 439 -123 b 725 235 603 47 667 134 b 728 249 727 240 728 244 b 715 272 728 260 724 267 b 703 275 711 275 707 275 b 679 262 692 275 684 271 b 645 208 679 260 667 242 b 433 -33 575 103 504 23 b 364 -75 410 -50 387 -64 b 311 -93 339 -87 321 -92 b 291 -93 300 -93 293 -93 b 207 -48 255 -93 227 -78 b 180 52 189 -22 180 12 b 193 138 180 79 184 108 b 273 278 208 190 235 237 b 432 378 316 325 369 358 b 563 404 477 394 521 402 b 564 420 564 410 564 415 b 542 467 564 440 557 456 b 458 486 523 479 495 486 l 431 486 b 399 568 410 504 399 532 b 465 766 399 623 421 689 b 547 877 490 808 517 845 b 641 937 585 917 616 937 b 658 932 647 937 652 935 b 667 907 663 929 667 921 b 650 835 667 888 661 864 b 599 730 637 798 619 763 b 481 619 562 670 522 633 b 553 589 498 599 522 589 b 593 593 565 589 578 590 b 751 724 663 609 715 652 b 779 833 770 760 779 797 b 766 903 779 857 774 880 b 677 1000 749 943 720 975 b 543 1038 632 1025 587 1038 b 465 1015 519 1038 494 1031 b 355 930 428 995 391 966 b 260 804 317 891 286 849 b 214 648 230 748 214 696 b 315 466 214 574 248 513 b 192 418 269 454 228 437 b 98 350 155 398 124 375 b 35 269 71 325 50 298 b 3 189 18 239 8 212 b -3 128 -1 165 -3 145 b 31 -2 -3 83 8 39 b 187 -147 63 -63 115 -111 b 244 -170 210 -160 229 -168 b 275 -172 259 -171 269 -172 z m 576 1109 b 601 1132 587 1109 595 1117 b 644 1211 612 1159 627 1185 b 705 1276 663 1240 683 1261 b 688 1291 701 1282 696 1286 b 659 1303 680 1296 670 1299 b 625 1307 648 1305 637 1307 b 548 1242 591 1307 565 1285 b 534 1173 539 1221 534 1197 b 546 1130 534 1157 538 1143 b 572 1109 554 1118 563 1111 z "},"":{"ha":663,"x_min":0,"x_max":0,"o":"m 275 -172 b 533 -26 354 -172 439 -123 b 725 235 603 47 667 134 b 728 249 727 240 728 244 b 715 272 728 260 724 267 b 703 275 711 275 707 275 b 679 262 692 275 684 271 b 645 208 679 260 667 242 b 433 -33 575 103 504 23 b 364 -75 410 -50 387 -64 b 311 -93 339 -87 321 -92 b 291 -93 300 -93 293 -93 b 207 -48 255 -93 227 -78 b 180 52 189 -22 180 12 b 193 138 180 79 184 108 b 273 278 208 190 235 237 b 432 378 316 325 369 358 b 563 404 477 394 521 402 b 564 420 564 410 564 415 b 542 467 564 440 557 456 b 458 486 523 479 495 486 l 431 486 b 399 568 410 504 399 532 b 465 766 399 623 421 689 b 547 877 490 808 517 845 b 641 937 585 917 616 937 b 658 932 647 937 652 935 b 667 907 663 929 667 921 b 650 835 667 888 661 864 b 599 730 637 798 619 763 b 481 619 562 670 522 633 b 553 589 498 599 522 589 b 593 593 565 589 578 590 b 751 724 663 609 715 652 b 779 833 770 760 779 797 b 766 903 779 857 774 880 b 677 1000 749 943 720 975 b 543 1038 632 1025 587 1038 b 465 1015 519 1038 494 1031 b 355 930 428 995 391 966 b 260 804 317 891 286 849 b 214 648 230 748 214 696 b 315 466 214 574 248 513 b 192 418 269 454 228 437 b 98 350 155 398 124 375 b 35 269 71 325 50 298 b 3 189 18 239 8 212 b -3 128 -1 165 -3 145 b 31 -2 -3 83 8 39 b 187 -147 63 -63 115 -111 b 244 -170 210 -160 229 -168 b 275 -172 259 -171 269 -172 z m 419 1082 b 574 1265 511 1190 563 1251 b 618 1164 591 1222 606 1188 b 648 1118 628 1141 639 1126 b 679 1107 659 1111 669 1107 b 692 1109 684 1107 688 1107 l 598 1335 b 575 1348 595 1343 588 1348 b 543 1343 564 1348 553 1346 b 494 1320 519 1337 503 1329 b 410 1211 448 1263 420 1226 b 387 1144 395 1183 387 1161 b 419 1082 387 1118 398 1098 z "},"":{"ha":663,"x_min":0,"x_max":0,"o":"m 275 -172 b 533 -26 354 -172 439 -123 b 725 235 603 47 667 134 b 728 249 727 240 728 244 b 715 272 728 260 724 267 b 703 275 711 275 707 275 b 679 262 692 275 684 271 b 645 208 679 260 667 242 b 433 -33 575 103 504 23 b 364 -75 410 -50 387 -64 b 311 -93 339 -87 321 -92 b 291 -93 300 -93 293 -93 b 207 -48 255 -93 227 -78 b 180 52 189 -22 180 12 b 193 138 180 79 184 108 b 273 278 208 190 235 237 b 432 378 316 325 369 358 b 563 404 477 394 521 402 b 564 420 564 410 564 415 b 542 467 564 440 557 456 b 458 486 523 479 495 486 l 431 486 b 399 568 410 504 399 532 b 465 766 399 623 421 689 b 547 877 490 808 517 845 b 641 937 585 917 616 937 b 658 932 647 937 652 935 b 667 907 663 929 667 921 b 650 835 667 888 661 864 b 599 730 637 798 619 763 b 481 619 562 670 522 633 b 553 589 498 599 522 589 b 593 593 565 589 578 590 b 751 724 663 609 715 652 b 779 833 770 760 779 797 b 766 903 779 857 774 880 b 677 1000 749 943 720 975 b 543 1038 632 1025 587 1038 b 465 1015 519 1038 494 1031 b 355 930 428 995 391 966 b 260 804 317 891 286 849 b 214 648 230 748 214 696 b 315 466 214 574 248 513 b 192 418 269 454 228 437 b 98 350 155 398 124 375 b 35 269 71 325 50 298 b 3 189 18 239 8 212 b -3 128 -1 165 -3 145 b 31 -2 -3 83 8 39 b 187 -147 63 -63 115 -111 b 244 -170 210 -160 229 -168 b 275 -172 259 -171 269 -172 z m 466 1105 b 494 1117 478 1105 488 1109 b 513 1158 501 1125 507 1139 l 520 1187 b 561 1298 531 1235 545 1272 b 458 1335 524 1323 490 1335 b 414 1318 441 1335 425 1329 b 382 1265 401 1306 391 1289 b 366 1185 371 1236 366 1210 b 423 1116 366 1158 385 1135 b 466 1105 437 1109 452 1105 z m 671 1105 b 699 1117 683 1105 692 1109 b 718 1158 706 1125 711 1139 l 725 1187 b 766 1298 736 1235 749 1272 b 663 1335 728 1323 694 1335 b 619 1318 646 1335 631 1330 b 587 1265 608 1308 597 1290 b 570 1185 576 1238 570 1211 b 628 1116 570 1158 589 1135 b 671 1105 642 1109 656 1105 z "},"":{"ha":663,"x_min":0,"x_max":0,"o":"m 275 -172 b 533 -26 354 -172 439 -123 b 725 235 603 47 667 134 b 728 249 727 240 728 244 b 715 272 728 260 724 267 b 703 275 711 275 707 275 b 679 262 692 275 684 271 b 645 208 679 260 667 242 b 433 -33 575 103 504 23 b 364 -75 410 -50 387 -64 b 311 -93 339 -87 321 -92 b 291 -93 300 -93 293 -93 b 207 -48 255 -93 227 -78 b 180 52 189 -22 180 12 b 193 138 180 79 184 108 b 273 278 208 190 235 237 b 432 378 316 325 369 358 b 563 404 477 394 521 402 b 564 420 564 410 564 415 b 542 467 564 440 557 456 b 458 486 523 479 495 486 l 431 486 b 399 568 410 504 399 532 b 465 766 399 623 421 689 b 547 877 490 808 517 845 b 641 937 585 917 616 937 b 658 932 647 937 652 935 b 667 907 663 929 667 921 b 650 835 667 888 661 864 b 599 730 637 798 619 763 b 481 619 562 670 522 633 b 553 589 498 599 522 589 b 593 593 565 589 578 590 b 751 724 663 609 715 652 b 779 833 770 760 779 797 b 766 903 779 857 774 880 b 677 1000 749 943 720 975 b 543 1038 632 1025 587 1038 b 465 1015 519 1038 494 1031 b 355 930 428 995 391 966 b 260 804 317 891 286 849 b 214 648 230 748 214 696 b 315 466 214 574 248 513 b 192 418 269 454 228 437 b 98 350 155 398 124 375 b 35 269 71 325 50 298 b 3 189 18 239 8 212 b -3 128 -1 165 -3 145 b 31 -2 -3 83 8 39 b 187 -147 63 -63 115 -111 b 244 -170 210 -160 229 -168 b 275 -172 259 -171 269 -172 z m 503 1094 b 578 1097 526 1095 552 1096 b 649 1099 605 1098 628 1099 b 701 1101 670 1100 687 1101 b 821 1095 745 1101 785 1099 b 830 1138 827 1111 830 1125 b 732 1209 829 1177 797 1200 b 637 1214 707 1212 676 1214 b 531 1210 610 1214 575 1213 b 420 1207 485 1208 448 1207 b 344 1211 391 1207 366 1208 b 300 1221 327 1213 313 1217 b 290 1173 293 1202 290 1186 b 300 1135 290 1157 293 1144 b 376 1099 314 1117 339 1105 b 468 1094 397 1095 428 1094 z "},"":{"ha":663,"x_min":0,"x_max":0,"o":"m 275 -172 b 533 -26 354 -172 439 -123 b 725 235 603 47 667 134 b 728 249 727 240 728 244 b 715 272 728 260 724 267 b 703 275 711 275 707 275 b 679 262 692 275 684 271 b 645 208 679 260 667 242 b 433 -33 575 103 504 23 b 364 -75 410 -50 387 -64 b 311 -93 339 -87 321 -92 b 291 -93 300 -93 293 -93 b 207 -48 255 -93 227 -78 b 180 52 189 -22 180 12 b 193 138 180 79 184 108 b 273 278 208 190 235 237 b 432 378 316 325 369 358 b 563 404 477 394 521 402 b 564 420 564 410 564 415 b 542 467 564 440 557 456 b 458 486 523 479 495 486 l 431 486 b 399 568 410 504 399 532 b 465 766 399 623 421 689 b 547 877 490 808 517 845 b 641 937 585 917 616 937 b 658 932 647 937 652 935 b 667 907 663 929 667 921 b 650 835 667 888 661 864 b 599 730 637 798 619 763 b 481 619 562 670 522 633 b 553 589 498 599 522 589 b 593 593 565 589 578 590 b 751 724 663 609 715 652 b 779 833 770 760 779 797 b 766 903 779 857 774 880 b 677 1000 749 943 720 975 b 543 1038 632 1025 587 1038 b 465 1015 519 1038 494 1031 b 355 930 428 995 391 966 b 260 804 317 891 286 849 b 214 648 230 748 214 696 b 315 466 214 574 248 513 b 192 418 269 454 228 437 b 98 350 155 398 124 375 b 35 269 71 325 50 298 b 3 189 18 239 8 212 b -3 128 -1 165 -3 145 b 31 -2 -3 83 8 39 b 187 -147 63 -63 115 -111 b 244 -170 210 -160 229 -168 b 275 -172 259 -171 269 -172 z m 543 1097 b 602 1112 564 1098 583 1103 b 621 1125 610 1116 616 1120 b 705 1234 669 1185 696 1221 b 728 1301 720 1261 728 1284 b 696 1362 728 1327 717 1348 b 541 1180 609 1263 557 1202 b 497 1282 523 1225 508 1259 b 466 1326 486 1305 475 1320 b 431 1337 456 1333 445 1337 l 422 1336 b 517 1109 484 1190 515 1114 b 543 1097 519 1101 528 1097 z "},"":{"ha":464,"x_min":0,"x_max":0,"o":"m 82 -168 b 215 -150 110 -168 154 -162 b 349 -132 279 -138 323 -132 b 408 -143 373 -132 393 -136 b 417 -104 414 -125 417 -112 b 410 -62 417 -85 414 -71 b 355 -33 401 -47 382 -37 b 311 -31 344 -31 330 -31 b 263 -34 296 -31 280 -32 b 385 390 267 39 308 180 b 519 761 455 581 500 704 b 549 885 539 821 549 862 b 545 916 549 896 547 906 b 643 928 587 922 620 926 b 736 915 686 928 717 924 b 748 956 743 935 747 949 b 740 1001 748 977 745 992 b 625 1038 724 1026 686 1038 b 473 1025 585 1038 534 1033 b 339 1013 405 1017 361 1013 l 313 1013 b 224 1029 281 1013 251 1019 b 214 964 217 1006 214 984 b 262 897 216 930 232 907 b 328 887 279 890 301 887 b 372 890 342 887 357 888 b 286 615 358 836 329 745 b 144 116 208 380 160 213 b 135 16 138 81 135 47 b 144 -50 135 -10 138 -32 b 81 -54 125 -52 104 -54 b 2 -39 50 -54 24 -48 b -6 -97 -3 -60 -6 -79 b 82 -168 -6 -144 23 -168 z m 485 1112 b 514 1132 496 1112 506 1119 b 526 1175 522 1144 526 1158 b 498 1274 526 1212 517 1245 b 435 1309 481 1297 461 1309 b 402 1305 424 1309 413 1308 b 373 1293 391 1301 381 1298 b 355 1278 365 1289 359 1284 b 416 1214 377 1264 397 1243 b 459 1134 436 1185 450 1158 b 485 1112 465 1119 474 1112 z "},"":{"ha":464,"x_min":0,"x_max":0,"o":"m 82 -168 b 215 -150 110 -168 154 -162 b 349 -132 279 -138 323 -132 b 408 -143 373 -132 393 -136 b 417 -104 414 -125 417 -112 b 410 -62 417 -85 414 -71 b 355 -33 401 -47 382 -37 b 311 -31 344 -31 330 -31 b 263 -34 296 -31 280 -32 b 385 390 267 39 308 180 b 519 761 455 581 500 704 b 549 885 539 821 549 862 b 545 916 549 896 547 906 b 643 928 587 922 620 926 b 736 915 686 928 717 924 b 748 956 743 935 747 949 b 740 1001 748 977 745 992 b 625 1038 724 1026 686 1038 b 473 1025 585 1038 534 1033 b 339 1013 405 1017 361 1013 l 313 1013 b 224 1029 281 1013 251 1019 b 214 964 217 1006 214 984 b 262 897 216 930 232 907 b 328 887 279 890 301 887 b 372 890 342 887 357 888 b 286 615 358 836 329 745 b 144 116 208 380 160 213 b 135 16 138 81 135 47 b 144 -50 135 -10 138 -32 b 81 -54 125 -52 104 -54 b 2 -39 50 -54 24 -48 b -6 -97 -3 -60 -6 -79 b 82 -168 -6 -144 23 -168 z m 463 1074 b 488 1096 474 1074 482 1081 b 530 1175 499 1123 513 1149 b 591 1240 549 1204 570 1225 b 574 1255 588 1246 583 1251 b 546 1267 566 1260 557 1263 b 512 1271 534 1270 524 1271 b 435 1206 477 1271 452 1249 b 421 1137 426 1185 421 1161 b 433 1094 421 1121 425 1107 b 458 1074 441 1082 450 1075 z "},"":{"ha":464,"x_min":0,"x_max":0,"o":"m 82 -168 b 215 -150 110 -168 154 -162 b 349 -132 279 -138 323 -132 b 408 -143 373 -132 393 -136 b 417 -104 414 -125 417 -112 b 410 -62 417 -85 414 -71 b 355 -33 401 -47 382 -37 b 311 -31 344 -31 330 -31 b 263 -34 296 -31 280 -32 b 385 390 267 39 308 180 b 519 761 455 581 500 704 b 549 885 539 821 549 862 b 545 916 549 896 547 906 b 643 928 587 922 620 926 b 736 915 686 928 717 924 b 748 956 743 935 747 949 b 740 1001 748 977 745 992 b 625 1038 724 1026 686 1038 b 473 1025 585 1038 534 1033 b 339 1013 405 1017 361 1013 l 313 1013 b 224 1029 281 1013 251 1019 b 214 964 217 1006 214 984 b 262 897 216 930 232 907 b 328 887 279 890 301 887 b 372 890 342 887 357 888 b 286 615 358 836 329 745 b 144 116 208 380 160 213 b 135 16 138 81 135 47 b 144 -50 135 -10 138 -32 b 81 -54 125 -52 104 -54 b 2 -39 50 -54 24 -48 b -6 -97 -3 -60 -6 -79 b 82 -168 -6 -144 23 -168 z m 373 1084 b 528 1267 465 1192 517 1253 b 572 1166 545 1224 559 1190 b 602 1120 582 1143 593 1128 b 633 1109 612 1113 623 1109 b 646 1111 637 1109 642 1109 l 552 1337 b 529 1350 549 1345 542 1350 b 496 1345 518 1350 507 1348 b 448 1322 473 1339 456 1331 b 364 1213 402 1265 374 1228 b 341 1146 349 1185 341 1163 b 373 1084 341 1120 352 1100 z "},"":{"ha":464,"x_min":0,"x_max":0,"o":"m 82 -168 b 215 -150 110 -168 154 -162 b 349 -132 279 -138 323 -132 b 408 -143 373 -132 393 -136 b 417 -104 414 -125 417 -112 b 410 -62 417 -85 414 -71 b 355 -33 401 -47 382 -37 b 311 -31 344 -31 330 -31 b 263 -34 296 -31 280 -32 b 385 390 267 39 308 180 b 519 761 455 581 500 704 b 549 885 539 821 549 862 b 545 916 549 896 547 906 b 643 928 587 922 620 926 b 736 915 686 928 717 924 b 748 956 743 935 747 949 b 740 1001 748 977 745 992 b 625 1038 724 1026 686 1038 b 473 1025 585 1038 534 1033 b 339 1013 405 1017 361 1013 l 313 1013 b 224 1029 281 1013 251 1019 b 214 964 217 1006 214 984 b 262 897 216 930 232 907 b 328 887 279 890 301 887 b 372 890 342 887 357 888 b 286 615 358 836 329 745 b 144 116 208 380 160 213 b 135 16 138 81 135 47 b 144 -50 135 -10 138 -32 b 81 -54 125 -52 104 -54 b 2 -39 50 -54 24 -48 b -6 -97 -3 -60 -6 -79 b 82 -168 -6 -144 23 -168 z m 437 1105 b 466 1117 450 1105 459 1109 b 484 1158 473 1125 478 1139 l 492 1187 b 532 1298 503 1235 516 1272 b 430 1335 495 1323 461 1335 b 385 1318 412 1335 397 1329 b 353 1265 373 1306 362 1289 b 337 1185 342 1236 337 1210 b 395 1116 337 1158 356 1135 b 437 1105 409 1109 423 1105 z m 642 1105 b 671 1117 654 1105 664 1109 b 689 1158 677 1125 683 1139 l 696 1187 b 737 1298 707 1235 721 1272 b 635 1335 700 1323 666 1335 b 591 1318 617 1335 602 1330 b 559 1265 579 1308 568 1290 b 542 1185 547 1238 542 1211 b 600 1116 542 1158 561 1135 b 642 1105 614 1109 628 1105 z "},"":{"ha":464,"x_min":0,"x_max":0,"o":"m 82 -168 b 215 -150 110 -168 154 -162 b 349 -132 279 -138 323 -132 b 408 -143 373 -132 393 -136 b 417 -104 414 -125 417 -112 b 410 -62 417 -85 414 -71 b 355 -33 401 -47 382 -37 b 311 -31 344 -31 330 -31 b 263 -34 296 -31 280 -32 b 385 390 267 39 308 180 b 519 761 455 581 500 704 b 549 885 539 821 549 862 b 545 916 549 896 547 906 b 643 928 587 922 620 926 b 736 915 686 928 717 924 b 748 956 743 935 747 949 b 740 1001 748 977 745 992 b 625 1038 724 1026 686 1038 b 473 1025 585 1038 534 1033 b 339 1013 405 1017 361 1013 l 313 1013 b 224 1029 281 1013 251 1019 b 214 964 217 1006 214 984 b 262 897 216 930 232 907 b 328 887 279 890 301 887 b 372 890 342 887 357 888 b 286 615 358 836 329 745 b 144 116 208 380 160 213 b 135 16 138 81 135 47 b 144 -50 135 -10 138 -32 b 81 -54 125 -52 104 -54 b 2 -39 50 -54 24 -48 b -6 -97 -3 -60 -6 -79 b 82 -168 -6 -144 23 -168 z m 436 1101 b 512 1105 460 1102 486 1103 b 583 1107 538 1105 562 1106 b 635 1108 604 1107 621 1108 b 755 1102 678 1108 718 1106 b 764 1145 761 1118 764 1133 b 665 1217 763 1184 730 1208 b 570 1221 641 1219 610 1221 b 465 1217 544 1221 509 1220 b 353 1215 418 1215 381 1215 b 277 1219 325 1215 300 1216 b 234 1229 260 1221 246 1224 b 223 1180 227 1210 223 1194 b 234 1142 223 1164 227 1152 b 309 1107 248 1124 273 1113 b 401 1101 331 1103 361 1101 z "},"":{"ha":882,"x_min":0,"x_max":0,"o":"m 56 -207 b 259 -178 115 -207 183 -197 b 731 140 457 -130 614 -23 b 865 405 791 224 836 313 b 904 642 891 487 904 566 b 884 789 904 694 897 743 b 761 972 861 867 819 928 b 532 1042 699 1019 623 1042 b 282 988 448 1042 365 1023 b 92 859 199 953 136 910 b 45 745 60 824 45 786 b 60 684 45 724 50 704 b 153 618 79 649 110 627 b 203 741 156 659 172 699 b 315 850 233 782 270 819 b 456 916 360 882 407 903 b 526 926 479 922 503 926 b 648 878 577 926 618 910 b 709 671 689 836 709 766 b 653 364 709 581 691 477 b 542 138 621 267 584 191 b -35 -16 268 115 75 64 b -88 -66 -58 -33 -76 -49 b -108 -104 -100 -83 -107 -95 b -109 -120 -109 -113 -109 -118 b -57 -188 -109 -149 -92 -172 b 56 -207 -29 -201 9 -207 z m 47 -140 b -1 -132 26 -140 11 -138 b -26 -102 -18 -125 -26 -115 b 9 -52 -26 -86 -14 -70 b 176 22 41 -26 97 -2 b 492 79 263 48 369 68 b 377 -19 456 41 417 9 b 248 -88 336 -47 293 -70 b 102 -133 202 -106 153 -121 b 47 -140 81 -138 63 -140 z m 228 128 b 269 136 243 129 256 131 b 269 148 269 139 269 143 b 318 363 269 191 285 262 l 322 377 l 382 378 b 503 372 426 378 466 376 b 511 416 509 389 511 403 b 363 490 511 463 462 488 b 557 816 435 669 499 777 b 458 845 530 836 496 845 b 342 800 410 845 372 830 b 264 680 317 774 292 734 b 183 486 227 606 200 541 b 101 485 153 485 125 485 b 25 489 73 485 47 486 b -18 499 8 491 -6 494 b -29 450 -26 480 -29 464 b -18 412 -29 435 -26 422 b 57 377 -5 395 20 383 b 149 372 77 374 108 372 b 126 224 134 309 126 260 b 146 156 126 189 133 165 b 228 128 172 138 199 128 z "},"":{"ha":1002,"x_min":0,"x_max":0,"o":"m 21 -316 b 150 -263 64 -316 107 -298 b 461 302 239 -190 343 -1 b 631 844 543 516 600 696 b 600 392 610 673 600 523 b 753 -73 600 108 651 -47 b 785 -79 762 -77 772 -79 b 865 -56 804 -79 831 -71 b 851 -24 857 -46 852 -36 b 850 1 850 -14 850 -5 b 930 300 850 58 877 157 b 1009 492 954 360 980 425 b 1085 666 1034 550 1060 608 b 1129 782 1110 724 1124 762 b 1135 823 1133 796 1135 810 b 1028 999 1135 887 1099 945 b 961 1037 995 1023 972 1036 b 884 703 946 937 920 825 l 836 542 b 730 148 783 378 747 248 b 717 325 721 197 717 256 b 724 486 717 374 720 428 b 745 684 728 528 735 595 b 755 788 752 737 755 772 b 745 882 755 819 752 850 b 703 983 736 922 723 956 b 623 1033 682 1014 655 1030 l 614 1034 b 540 1020 595 1034 570 1029 b 368 947 485 1003 428 979 b 214 848 307 914 256 881 b 152 772 177 818 156 793 b 149 747 150 762 149 754 b 163 690 149 728 154 709 b 220 633 178 663 196 644 b 260 625 231 628 245 625 b 319 740 260 654 279 692 b 462 870 355 784 403 827 b 549 926 490 890 519 909 b 500 791 534 886 518 842 b 313 308 433 593 371 432 b 39 -78 223 119 132 -10 b -130 -140 -16 -119 -73 -140 b -229 -121 -163 -140 -195 -134 b -194 -177 -218 -140 -207 -159 b -151 -229 -181 -195 -166 -213 b -100 -273 -135 -246 -119 -260 b -44 -304 -83 -286 -64 -296 b 3 -315 -24 -311 -9 -315 b 21 -316 14 -316 20 -316 z m 733 1112 b 755 1113 740 1112 747 1112 b 795 1118 768 1114 781 1116 b 837 1127 808 1121 823 1124 b 880 1137 851 1131 865 1133 b 915 1142 894 1139 905 1141 b 939 1143 924 1143 932 1143 b 985 1133 958 1143 973 1139 b 990 1170 988 1147 990 1159 b 985 1202 990 1183 988 1194 b 913 1231 975 1221 950 1231 b 820 1221 890 1231 859 1227 b 729 1211 783 1215 752 1212 b 667 1224 709 1211 688 1215 b 663 1181 664 1208 663 1194 b 715 1113 663 1140 680 1117 b 733 1112 722 1112 728 1112 z "},"":{"ha":787,"x_min":0,"x_max":0,"o":"m 289 -189 b 543 -44 376 -189 462 -140 b 671 159 591 12 633 79 b 753 409 708 239 736 322 b 771 579 765 469 771 526 b 612 963 771 751 718 879 b 414 1030 553 1008 488 1030 b 231 982 351 1030 290 1014 b 80 840 168 947 118 900 b -7 530 22 751 -7 647 b 31 329 -7 456 6 389 b 2 127 12 258 2 191 b 156 -153 2 -5 53 -99 b 289 -189 199 -176 243 -189 z m 220 -90 b 185 -62 205 -90 193 -81 b 174 7 178 -44 174 -21 b 191 170 174 47 180 101 b 264 159 214 162 238 159 b 385 184 300 159 340 167 b 407 217 399 190 407 201 b 397 243 407 227 404 236 b 269 216 351 225 309 216 b 203 227 246 216 224 220 b 431 674 248 427 324 576 b 486 717 453 693 471 707 l 508 728 b 454 777 490 749 472 765 b 406 798 435 788 419 795 b 370 802 391 800 380 802 b 290 782 344 802 317 795 b 172 668 239 755 199 718 b 62 425 129 589 92 508 b 56 518 58 450 56 481 b 98 708 58 585 73 648 b 206 859 124 770 160 821 b 411 933 268 909 336 933 b 540 893 460 933 503 920 b 635 670 603 846 635 772 b 553 327 635 572 608 458 b 452 130 522 255 489 189 b 229 -89 372 -5 297 -78 z m 460 1104 b 489 1124 471 1105 481 1112 b 501 1167 497 1137 501 1151 b 473 1266 501 1204 492 1238 b 410 1301 456 1290 436 1301 b 377 1297 399 1301 388 1300 b 348 1286 366 1294 356 1291 b 330 1270 340 1281 334 1276 b 391 1206 352 1257 372 1236 b 434 1126 411 1177 425 1150 b 460 1104 440 1112 449 1104 z "},"":{"ha":787,"x_min":0,"x_max":0,"o":"m 289 -189 b 543 -44 376 -189 462 -140 b 671 159 591 12 633 79 b 753 409 708 239 736 322 b 771 579 765 469 771 526 b 612 963 771 751 718 879 b 414 1030 553 1008 488 1030 b 231 982 351 1030 290 1014 b 80 840 168 947 118 900 b -7 530 22 751 -7 647 b 31 329 -7 456 6 389 b 2 127 12 258 2 191 b 156 -153 2 -5 53 -99 b 289 -189 199 -176 243 -189 z m 220 -90 b 185 -62 205 -90 193 -81 b 174 7 178 -44 174 -21 b 191 170 174 47 180 101 b 264 159 214 162 238 159 b 385 184 300 159 340 167 b 407 217 399 190 407 201 b 397 243 407 227 404 236 b 269 216 351 225 309 216 b 203 227 246 216 224 220 b 431 674 248 427 324 576 b 486 717 453 693 471 707 l 508 728 b 454 777 490 749 472 765 b 406 798 435 788 419 795 b 370 802 391 800 380 802 b 290 782 344 802 317 795 b 172 668 239 755 199 718 b 62 425 129 589 92 508 b 56 518 58 450 56 481 b 98 708 58 585 73 648 b 206 859 124 770 160 821 b 411 933 268 909 336 933 b 540 893 460 933 503 920 b 635 670 603 846 635 772 b 553 327 635 572 608 458 b 452 130 522 255 489 189 b 229 -89 372 -5 297 -78 z m 420 1089 b 444 1112 431 1089 439 1097 b 487 1190 456 1139 470 1165 b 548 1255 506 1219 526 1241 b 531 1271 545 1261 539 1266 b 503 1282 523 1276 513 1279 b 469 1286 491 1285 480 1286 b 391 1222 434 1286 408 1265 b 378 1152 382 1200 378 1177 b 389 1109 378 1137 382 1122 b 415 1089 397 1097 406 1090 z "},"":{"ha":787,"x_min":0,"x_max":0,"o":"m 289 -189 b 543 -44 376 -189 462 -140 b 671 159 591 12 633 79 b 753 409 708 239 736 322 b 771 579 765 469 771 526 b 612 963 771 751 718 879 b 414 1030 553 1008 488 1030 b 231 982 351 1030 290 1014 b 80 840 168 947 118 900 b -7 530 22 751 -7 647 b 31 329 -7 456 6 389 b 2 127 12 258 2 191 b 156 -153 2 -5 53 -99 b 289 -189 199 -176 243 -189 z m 220 -90 b 185 -62 205 -90 193 -81 b 174 7 178 -44 174 -21 b 191 170 174 47 180 101 b 264 159 214 162 238 159 b 385 184 300 159 340 167 b 407 217 399 190 407 201 b 397 243 407 227 404 236 b 269 216 351 225 309 216 b 203 227 246 216 224 220 b 431 674 248 427 324 576 b 486 717 453 693 471 707 l 508 728 b 454 777 490 749 472 765 b 406 798 435 788 419 795 b 370 802 391 800 380 802 b 290 782 344 802 317 795 b 172 668 239 755 199 718 b 62 425 129 589 92 508 b 56 518 58 450 56 481 b 98 708 58 585 73 648 b 206 859 124 770 160 821 b 411 933 268 909 336 933 b 540 893 460 933 503 920 b 635 670 603 846 635 772 b 553 327 635 572 608 458 b 452 130 522 255 489 189 b 229 -89 372 -5 297 -78 z m 273 1082 b 427 1265 365 1190 416 1251 b 471 1164 445 1222 459 1188 b 502 1118 481 1141 492 1126 b 532 1107 512 1111 522 1107 b 546 1109 537 1107 542 1107 l 452 1335 b 429 1348 449 1343 441 1348 b 396 1343 418 1348 407 1346 b 347 1320 372 1337 356 1329 b 264 1211 302 1263 274 1226 b 241 1144 248 1183 241 1161 b 273 1082 241 1118 252 1098 z "},"":{"ha":787,"x_min":0,"x_max":0,"o":"m 289 -189 b 543 -44 376 -189 462 -140 b 671 159 591 12 633 79 b 753 409 708 239 736 322 b 771 579 765 469 771 526 b 612 963 771 751 718 879 b 414 1030 553 1008 488 1030 b 231 982 351 1030 290 1014 b 80 840 168 947 118 900 b -7 530 22 751 -7 647 b 31 329 -7 456 6 389 b 2 127 12 258 2 191 b 156 -153 2 -5 53 -99 b 289 -189 199 -176 243 -189 z m 220 -90 b 185 -62 205 -90 193 -81 b 174 7 178 -44 174 -21 b 191 170 174 47 180 101 b 264 159 214 162 238 159 b 385 184 300 159 340 167 b 407 217 399 190 407 201 b 397 243 407 227 404 236 b 269 216 351 225 309 216 b 203 227 246 216 224 220 b 431 674 248 427 324 576 b 486 717 453 693 471 707 l 508 728 b 454 777 490 749 472 765 b 406 798 435 788 419 795 b 370 802 391 800 380 802 b 290 782 344 802 317 795 b 172 668 239 755 199 718 b 62 425 129 589 92 508 b 56 518 58 450 56 481 b 98 708 58 585 73 648 b 206 859 124 770 160 821 b 411 933 268 909 336 933 b 540 893 460 933 503 920 b 635 670 603 846 635 772 b 553 327 635 572 608 458 b 452 130 522 255 489 189 b 229 -89 372 -5 297 -78 z m 315 1096 b 336 1097 321 1096 329 1097 b 376 1103 349 1098 362 1100 b 418 1112 390 1105 404 1108 b 461 1121 433 1115 447 1118 b 496 1126 475 1124 487 1126 b 520 1128 506 1127 514 1128 b 566 1117 539 1128 555 1124 b 572 1154 570 1131 572 1143 b 566 1186 572 1168 570 1178 b 494 1215 556 1206 532 1215 b 401 1205 472 1215 441 1212 b 311 1196 364 1200 334 1196 b 249 1208 290 1196 269 1200 b 244 1166 245 1192 244 1178 b 296 1097 244 1124 262 1101 b 315 1096 304 1097 310 1096 z "},"":{"ha":787,"x_min":0,"x_max":0,"o":"m 289 -189 b 543 -44 376 -189 462 -140 b 671 159 591 12 633 79 b 753 409 708 239 736 322 b 771 579 765 469 771 526 b 612 963 771 751 718 879 b 414 1030 553 1008 488 1030 b 231 982 351 1030 290 1014 b 80 840 168 947 118 900 b -7 530 22 751 -7 647 b 31 329 -7 456 6 389 b 2 127 12 258 2 191 b 156 -153 2 -5 53 -99 b 289 -189 199 -176 243 -189 z m 220 -90 b 185 -62 205 -90 193 -81 b 174 7 178 -44 174 -21 b 191 170 174 47 180 101 b 264 159 214 162 238 159 b 385 184 300 159 340 167 b 407 217 399 190 407 201 b 397 243 407 227 404 236 b 269 216 351 225 309 216 b 203 227 246 216 224 220 b 431 674 248 427 324 576 b 486 717 453 693 471 707 l 508 728 b 454 777 490 749 472 765 b 406 798 435 788 419 795 b 370 802 391 800 380 802 b 290 782 344 802 317 795 b 172 668 239 755 199 718 b 62 425 129 589 92 508 b 56 518 58 450 56 481 b 98 708 58 585 73 648 b 206 859 124 770 160 821 b 411 933 268 909 336 933 b 540 893 460 933 503 920 b 635 670 603 846 635 772 b 553 327 635 572 608 458 b 452 130 522 255 489 189 b 229 -89 372 -5 297 -78 z m 338 1095 b 366 1107 350 1095 359 1099 b 385 1148 373 1115 378 1128 l 392 1177 b 433 1288 403 1225 416 1262 b 330 1325 395 1313 361 1325 b 286 1308 313 1325 297 1319 b 254 1255 273 1296 262 1278 b 237 1175 243 1226 237 1200 b 295 1106 237 1147 256 1124 b 338 1095 309 1099 323 1095 z m 543 1095 b 571 1107 555 1095 564 1099 b 589 1148 578 1115 583 1128 l 597 1177 b 637 1288 608 1225 621 1262 b 535 1325 600 1313 566 1325 b 491 1308 517 1325 503 1320 b 459 1255 479 1297 469 1280 b 442 1175 448 1227 442 1200 b 500 1106 442 1147 461 1124 b 543 1095 514 1099 528 1095 z "},"":{"ha":577,"x_min":0,"x_max":0,"o":"m 22 -14 b 222 190 41 21 109 89 b 314 37 246 120 277 68 b 352 12 329 23 342 15 b 378 8 363 9 371 8 b 487 85 412 8 448 34 b 450 116 473 93 460 103 b 422 158 439 128 429 142 b 401 208 414 174 407 190 b 384 263 395 225 389 243 b 370 322 379 283 374 302 b 509 477 425 374 472 425 b 548 566 535 513 548 543 b 490 614 548 593 529 610 b 351 401 480 562 434 490 b 311 509 338 447 326 483 b 241 587 293 543 269 570 b 137 612 213 604 178 612 b 43 599 109 612 78 608 b 122 490 74 569 100 533 b 171 361 139 456 155 414 l 201 256 b 24 106 163 222 103 172 b -5 61 6 91 -3 76 l -6 49 b 18 -10 -6 27 2 7 z "},"":{"ha":787,"x_min":0,"x_max":0,"o":"m 62 425 b 56 498 58 449 56 473 b 68 614 56 538 60 577 b 144 791 83 682 109 741 b 270 900 178 840 220 876 b 411 933 315 922 362 933 b 513 909 448 933 482 925 l 459 773 b 370 802 429 792 399 802 b 290 782 343 802 317 795 b 172 668 239 756 199 718 b 62 425 129 589 92 508 z m 220 -90 b 194 -77 210 -90 201 -85 l 288 160 b 385 184 317 163 350 171 b 407 217 399 190 407 201 b 397 243 407 227 404 236 b 311 220 363 231 335 222 l 568 869 b 635 670 612 823 635 756 b 553 327 634 570 607 456 b 452 130 523 256 490 191 b 229 -89 371 -5 296 -78 z m 176 58 b 181 104 176 64 178 80 b 191 166 184 132 188 153 l 191 170 b 218 163 200 167 209 165 z m 239 218 b 203 227 227 220 215 223 b 413 657 246 418 316 561 z m 129 -241 l 163 -156 b 287 -189 203 -178 245 -189 b 543 -45 376 -188 462 -140 b 671 159 591 11 633 79 b 753 409 708 239 736 322 b 771 579 765 469 771 526 b 612 963 771 751 718 879 l 606 967 l 655 1090 l 594 1115 l 549 1001 b 414 1030 509 1021 464 1030 b 231 982 351 1030 290 1014 b 80 840 168 947 118 900 b -7 530 22 751 -7 647 b 31 329 -7 456 6 389 b 2 128 12 258 2 191 b 35 -29 2 69 13 16 b 106 -120 52 -66 75 -96 l 68 -216 z "},"":{"ha":646,"x_min":0,"x_max":0,"o":"m 548 -193 b 716 -67 616 -193 671 -151 l 707 -67 b 565 -24 658 -67 610 -53 b 445 94 519 5 479 45 b 370 247 410 144 386 195 b 553 366 435 275 496 315 b 700 534 611 418 660 473 b 795 804 763 631 795 720 b 741 949 795 862 777 910 b 473 1036 688 1007 598 1036 b 269 1005 406 1036 338 1026 b 92 918 198 983 139 955 b 34 859 68 900 48 880 b -3 751 9 822 -3 786 b 77 640 -3 696 24 660 b 98 704 80 661 87 683 b 142 765 110 725 124 745 b 202 819 159 784 180 802 b 273 863 224 836 248 850 b 351 894 298 876 324 886 b 414 908 377 902 398 907 b 449 910 430 909 441 910 b 600 835 525 910 576 885 b 614 789 609 817 614 802 b 616 762 615 776 616 767 b 587 633 616 723 606 680 b 495 481 565 583 535 532 b 286 307 433 403 363 345 b 358 491 312 372 336 433 b 422 705 401 603 422 674 b 406 758 422 725 417 743 b 296 804 382 789 345 804 b 252 799 281 804 267 802 b 198 593 245 751 227 683 l 157 465 b 36 43 92 269 51 128 b 26 -58 29 5 26 -28 b 54 -154 26 -103 35 -135 b 122 -188 75 -176 97 -188 b 173 -174 138 -187 155 -183 b 160 -146 165 -166 161 -157 b 158 -123 159 -136 158 -128 b 242 192 158 -65 186 40 b 486 -181 262 -5 344 -129 b 548 -193 507 -189 528 -193 z m 422 1086 b 447 1109 433 1086 441 1094 b 490 1187 458 1136 473 1162 b 551 1253 509 1217 529 1238 b 534 1268 547 1259 542 1263 b 505 1280 526 1273 516 1276 b 471 1284 494 1282 483 1284 b 394 1219 437 1284 411 1262 b 380 1149 385 1198 380 1174 b 392 1107 380 1134 385 1120 b 418 1086 400 1095 409 1088 z "},"":{"ha":646,"x_min":0,"x_max":0,"o":"m 548 -193 b 716 -67 616 -193 671 -151 l 707 -67 b 565 -24 658 -67 610 -53 b 445 94 519 5 479 45 b 370 247 410 144 386 195 b 553 366 435 275 496 315 b 700 534 611 418 660 473 b 795 804 763 631 795 720 b 741 949 795 862 777 910 b 473 1036 688 1007 598 1036 b 269 1005 406 1036 338 1026 b 92 918 198 983 139 955 b 34 859 68 900 48 880 b -3 751 9 822 -3 786 b 77 640 -3 696 24 660 b 98 704 80 661 87 683 b 142 765 110 725 124 745 b 202 819 159 784 180 802 b 273 863 224 836 248 850 b 351 894 298 876 324 886 b 414 908 377 902 398 907 b 449 910 430 909 441 910 b 600 835 525 910 576 885 b 614 789 609 817 614 802 b 616 762 615 776 616 767 b 587 633 616 723 606 680 b 495 481 565 583 535 532 b 286 307 433 403 363 345 b 358 491 312 372 336 433 b 422 705 401 603 422 674 b 406 758 422 725 417 743 b 296 804 382 789 345 804 b 252 799 281 804 267 802 b 198 593 245 751 227 683 l 157 465 b 36 43 92 269 51 128 b 26 -58 29 5 26 -28 b 54 -154 26 -103 35 -135 b 122 -188 75 -176 97 -188 b 173 -174 138 -187 155 -183 b 160 -146 165 -166 161 -157 b 158 -123 159 -136 158 -128 b 242 192 158 -65 186 40 b 486 -181 262 -5 344 -129 b 548 -193 507 -189 528 -193 z m 437 1076 b 496 1091 458 1078 477 1082 b 515 1105 505 1095 511 1100 b 599 1213 563 1164 591 1200 b 622 1280 614 1241 622 1263 b 590 1342 622 1307 611 1327 b 435 1160 503 1242 452 1181 b 391 1261 417 1204 402 1238 b 360 1306 380 1285 369 1300 b 326 1317 351 1313 339 1316 l 317 1316 b 411 1088 378 1169 409 1093 b 437 1076 414 1080 422 1076 z "},"":{"ha":615,"x_min":0,"x_max":0,"o":"m 201 -190 b 320 -165 241 -190 280 -182 b 457 -72 368 -145 414 -114 b 547 54 496 -33 526 9 b 570 145 562 87 570 117 b 429 252 570 216 523 252 l 369 251 b 323 254 349 251 334 252 b 261 348 281 261 261 292 b 342 623 261 421 288 512 b 436 785 372 682 403 736 b 532 902 469 835 501 873 b 590 935 555 924 575 935 b 608 919 602 935 608 930 b 568 744 608 876 595 817 b 506 604 551 697 531 650 b 389 471 464 528 425 484 b 439 446 408 459 425 450 b 488 440 454 442 470 440 b 574 458 515 440 545 446 b 650 536 600 468 626 494 b 707 678 675 578 694 625 b 722 800 717 722 722 762 b 707 903 722 838 717 873 b 623 1000 692 943 664 975 b 488 1038 576 1025 531 1038 b 405 1008 463 1038 435 1028 b 273 880 362 980 319 937 b 154 689 225 820 186 757 b 94 442 114 603 94 521 b 136 269 94 368 108 310 b 266 186 166 224 210 196 b 340 179 291 181 316 179 l 378 180 b 423 161 408 180 423 174 b 340 61 423 138 395 105 b 250 0 306 35 276 15 b 118 -48 195 -32 151 -48 b 66 17 83 -48 66 -26 b 75 57 66 33 69 47 b 56 60 68 59 62 60 b 4 -35 22 60 4 28 b 31 -122 4 -69 13 -98 b 157 -186 56 -155 98 -177 b 201 -190 172 -189 187 -190 z m 528 1091 b 552 1114 538 1091 547 1099 b 595 1192 564 1141 578 1167 b 656 1257 614 1221 634 1243 b 639 1273 652 1263 647 1268 b 610 1284 631 1278 621 1281 b 576 1289 599 1287 588 1289 b 499 1224 542 1289 516 1267 b 486 1154 490 1202 486 1179 b 497 1112 486 1139 490 1124 b 523 1091 505 1099 514 1093 z "},"":{"ha":615,"x_min":0,"x_max":0,"o":"m 201 -190 b 320 -165 241 -190 280 -182 b 457 -72 368 -145 414 -114 b 547 54 496 -33 526 9 b 570 145 562 87 570 117 b 429 252 570 216 523 252 l 369 251 b 323 254 349 251 334 252 b 261 348 281 261 261 292 b 342 623 261 421 288 512 b 436 785 372 682 403 736 b 532 902 469 835 501 873 b 590 935 555 924 575 935 b 608 919 602 935 608 930 b 568 744 608 876 595 817 b 506 604 551 697 531 650 b 389 471 464 528 425 484 b 439 446 408 459 425 450 b 488 440 454 442 470 440 b 574 458 515 440 545 446 b 650 536 600 468 626 494 b 707 678 675 578 694 625 b 722 800 717 722 722 762 b 707 903 722 838 717 873 b 623 1000 692 943 664 975 b 488 1038 576 1025 531 1038 b 405 1008 463 1038 435 1028 b 273 880 362 980 319 937 b 154 689 225 820 186 757 b 94 442 114 603 94 521 b 136 269 94 368 108 310 b 266 186 166 224 210 196 b 340 179 291 181 316 179 l 378 180 b 423 161 408 180 423 174 b 340 61 423 138 395 105 b 250 0 306 35 276 15 b 118 -48 195 -32 151 -48 b 66 17 83 -48 66 -26 b 75 57 66 33 69 47 b 56 60 68 59 62 60 b 4 -35 22 60 4 28 b 31 -122 4 -69 13 -98 b 157 -186 56 -155 98 -177 b 201 -190 172 -189 187 -190 z m 360 1071 b 515 1254 452 1179 504 1240 b 559 1153 532 1211 547 1177 b 589 1107 569 1130 580 1115 b 620 1097 600 1100 610 1097 b 633 1098 625 1097 629 1097 l 539 1324 b 516 1337 536 1333 529 1337 b 484 1333 505 1337 494 1335 b 435 1309 460 1326 444 1318 b 351 1200 389 1252 361 1215 b 328 1133 336 1173 328 1150 b 360 1071 328 1107 339 1087 z "},"":{"ha":615,"x_min":0,"x_max":0,"o":"m 174 -500 b 264 -483 205 -500 236 -494 b 336 -436 292 -471 316 -455 b 381 -373 357 -417 372 -396 b 391 -332 387 -358 391 -345 b 306 -227 391 -283 362 -249 l 345 -154 b 457 -72 385 -133 422 -106 b 547 54 496 -33 526 9 b 570 146 562 87 570 118 b 429 252 570 217 523 252 l 369 251 b 323 254 349 251 334 252 b 261 348 281 261 261 292 b 342 622 261 420 288 511 b 437 786 372 682 404 736 b 532 902 470 836 502 874 b 590 935 555 924 574 935 b 602 932 594 935 598 934 b 609 912 606 930 608 923 b 604 869 609 901 608 886 b 568 743 597 833 585 791 b 506 604 551 695 530 648 b 390 471 465 528 426 484 b 391 471 390 471 390 471 b 401 463 392 469 396 467 b 488 440 427 448 455 440 b 574 458 515 440 545 446 b 650 536 600 468 626 494 b 707 678 675 578 694 625 b 722 801 717 721 722 762 b 707 903 722 839 717 873 b 623 1000 692 943 664 975 b 488 1038 576 1025 532 1038 b 339 954 446 1038 397 1010 b 209 789 293 909 250 854 b 94 442 132 669 94 553 b 136 269 94 368 108 310 b 266 186 166 224 210 196 b 340 179 291 181 316 179 l 391 180 b 411 176 398 180 405 178 b 422 168 417 174 420 172 b 423 161 423 165 423 163 b 340 61 423 138 395 104 b 250 0 307 36 277 16 b 121 -48 195 -33 152 -48 b 66 18 84 -48 66 -26 b 75 57 66 33 68 46 b 56 60 68 59 62 60 b 4 -35 22 60 4 28 b 157 -186 4 -119 56 -170 b 201 -190 172 -189 186 -190 b 239 -187 214 -190 227 -189 b 227 -226 231 -203 227 -216 b 241 -251 227 -237 232 -245 b 288 -315 273 -270 288 -292 b 267 -369 288 -332 281 -351 b 210 -420 252 -387 233 -405 b 127 -454 176 -443 149 -454 b 110 -448 118 -454 113 -452 b 108 -450 109 -448 109 -449 b 106 -455 107 -451 107 -453 b 106 -464 106 -458 106 -460 b 115 -484 106 -471 109 -477 b 174 -500 125 -495 144 -500 z "},"":{"ha":615,"x_min":0,"x_max":0,"o":"m 201 -190 b 320 -165 241 -190 280 -182 b 457 -72 368 -145 414 -114 b 547 54 496 -33 526 9 b 570 145 562 87 570 117 b 429 252 570 216 523 252 l 369 251 b 323 254 349 251 334 252 b 261 348 281 261 261 292 b 342 623 261 421 288 512 b 436 785 372 682 403 736 b 532 902 469 835 501 873 b 590 935 555 924 575 935 b 608 919 602 935 608 930 b 568 744 608 876 595 817 b 506 604 551 697 531 650 b 389 471 464 528 425 484 b 439 446 408 459 425 450 b 488 440 454 442 470 440 b 574 458 515 440 545 446 b 650 536 600 468 626 494 b 707 678 675 578 694 625 b 722 800 717 722 722 762 b 707 903 722 838 717 873 b 623 1000 692 943 664 975 b 488 1038 576 1025 531 1038 b 405 1008 463 1038 435 1028 b 273 880 362 980 319 937 b 154 689 225 820 186 757 b 94 442 114 603 94 521 b 136 269 94 368 108 310 b 266 186 166 224 210 196 b 340 179 291 181 316 179 l 378 180 b 423 161 408 180 423 174 b 340 61 423 138 395 105 b 250 0 306 35 276 15 b 118 -48 195 -32 151 -48 b 66 17 83 -48 66 -26 b 75 57 66 33 69 47 b 56 60 68 59 62 60 b 4 -35 22 60 4 28 b 31 -122 4 -69 13 -98 b 157 -186 56 -155 98 -177 b 201 -190 172 -189 187 -190 z m 509 1107 b 568 1122 530 1108 549 1113 b 587 1135 576 1126 583 1131 b 671 1244 635 1195 663 1231 b 694 1311 686 1272 694 1294 b 662 1373 694 1337 683 1358 b 507 1190 575 1273 524 1212 b 463 1292 489 1235 474 1269 b 432 1337 452 1316 441 1331 b 397 1348 422 1343 411 1347 l 389 1346 b 483 1119 450 1200 481 1124 b 509 1107 486 1111 494 1107 z "},"":{"ha":867,"x_min":0,"x_max":0,"o":"m 673 -189 b 724 -173 689 -189 706 -184 b 711 -138 717 -163 712 -151 b 709 -106 709 -125 709 -114 b 728 33 709 -71 715 -25 b 863 505 750 136 795 293 b 946 778 901 621 928 711 b 974 919 964 844 974 892 b 815 1036 974 997 921 1036 l 790 1036 b 795 1014 793 1032 795 1025 b 780 928 795 996 790 968 b 589 422 745 800 682 631 b 456 153 543 321 498 231 b 275 -95 382 18 321 -64 b 307 70 277 -52 288 3 b 370 269 322 125 343 191 b 440 484 397 347 420 418 b 490 768 473 598 490 692 b 477 880 490 810 486 847 b 248 1038 450 985 373 1038 b 101 994 189 1038 140 1023 b 18 880 64 965 36 927 b -6 750 2 839 -6 795 b 1 681 -6 726 -3 703 b 89 552 17 613 46 570 b 136 542 105 545 121 542 b 171 546 148 542 159 543 b 151 650 157 572 151 606 b 160 735 151 675 154 703 b 199 867 170 784 182 827 b 267 958 224 927 247 958 l 269 958 b 317 854 301 949 317 915 b 304 726 317 820 313 777 b 227 406 290 650 264 543 b 168 174 197 290 177 213 b 134 -52 145 74 134 -1 b 155 -147 134 -96 141 -128 b 210 -186 172 -171 190 -184 b 227 -188 218 -187 223 -188 b 463 45 290 -188 369 -111 b 694 536 536 165 613 329 b 579 -32 618 264 579 75 b 605 -147 579 -85 588 -124 b 659 -188 624 -172 642 -185 b 673 -189 666 -189 671 -189 z m 595 1122 b 625 1143 607 1123 616 1130 b 637 1185 633 1155 637 1169 b 608 1284 637 1223 627 1256 b 546 1320 592 1308 572 1320 b 513 1316 534 1320 524 1318 b 484 1304 501 1312 492 1309 b 466 1289 475 1299 469 1295 b 527 1225 488 1275 508 1254 b 570 1145 547 1196 561 1168 b 595 1122 576 1130 585 1122 z "},"":{"ha":867,"x_min":0,"x_max":0,"o":"m 673 -189 b 724 -173 689 -189 706 -184 b 711 -138 717 -163 712 -151 b 709 -106 709 -125 709 -114 b 728 33 709 -71 715 -25 b 863 505 750 136 795 293 b 946 778 901 621 928 711 b 974 919 964 844 974 892 b 815 1036 974 997 921 1036 l 790 1036 b 795 1014 793 1032 795 1025 b 780 928 795 996 790 968 b 589 422 745 800 682 631 b 456 153 543 321 498 231 b 275 -95 382 18 321 -64 b 307 70 277 -52 288 3 b 370 269 322 125 343 191 b 440 484 397 347 420 418 b 490 768 473 598 490 692 b 477 880 490 810 486 847 b 248 1038 450 985 373 1038 b 101 994 189 1038 140 1023 b 18 880 64 965 36 927 b -6 750 2 839 -6 795 b 1 681 -6 726 -3 703 b 89 552 17 613 46 570 b 136 542 105 545 121 542 b 171 546 148 542 159 543 b 151 650 157 572 151 606 b 160 735 151 675 154 703 b 199 867 170 784 182 827 b 267 958 224 927 247 958 l 269 958 b 317 854 301 949 317 915 b 304 726 317 820 313 777 b 227 406 290 650 264 543 b 168 174 197 290 177 213 b 134 -52 145 74 134 -1 b 155 -147 134 -96 141 -128 b 210 -186 172 -171 190 -184 b 227 -188 218 -187 223 -188 b 463 45 290 -188 369 -111 b 694 536 536 165 613 329 b 579 -32 618 264 579 75 b 605 -147 579 -85 588 -124 b 659 -188 624 -172 642 -185 b 673 -189 666 -189 671 -189 z m 576 1109 b 601 1132 587 1109 595 1117 b 644 1211 612 1159 627 1185 b 705 1276 663 1240 683 1261 b 688 1291 701 1282 696 1286 b 659 1303 680 1296 670 1299 b 625 1307 648 1305 637 1307 b 548 1242 591 1307 565 1285 b 534 1173 539 1221 534 1197 b 546 1130 534 1157 538 1143 b 572 1109 554 1118 563 1111 z "},"":{"ha":867,"x_min":0,"x_max":0,"o":"m 673 -189 b 724 -173 689 -189 706 -184 b 711 -138 717 -163 712 -151 b 709 -106 709 -125 709 -114 b 728 33 709 -71 715 -25 b 863 505 750 136 795 293 b 946 778 901 621 928 711 b 974 919 964 844 974 892 b 815 1036 974 997 921 1036 l 790 1036 b 795 1014 793 1032 795 1025 b 780 928 795 996 790 968 b 589 422 745 800 682 631 b 456 153 543 321 498 231 b 275 -95 382 18 321 -64 b 307 70 277 -52 288 3 b 370 269 322 125 343 191 b 440 484 397 347 420 418 b 490 768 473 598 490 692 b 477 880 490 810 486 847 b 248 1038 450 985 373 1038 b 101 994 189 1038 140 1023 b 18 880 64 965 36 927 b -6 750 2 839 -6 795 b 1 681 -6 726 -3 703 b 89 552 17 613 46 570 b 136 542 105 545 121 542 b 171 546 148 542 159 543 b 151 650 157 572 151 606 b 160 735 151 675 154 703 b 199 867 170 784 182 827 b 267 958 224 927 247 958 l 269 958 b 317 854 301 949 317 915 b 304 726 317 820 313 777 b 227 406 290 650 264 543 b 168 174 197 290 177 213 b 134 -52 145 74 134 -1 b 155 -147 134 -96 141 -128 b 210 -186 172 -171 190 -184 b 227 -188 218 -187 223 -188 b 463 45 290 -188 369 -111 b 694 536 536 165 613 329 b 579 -32 618 264 579 75 b 605 -147 579 -85 588 -124 b 659 -188 624 -172 642 -185 b 673 -189 666 -189 671 -189 z m 465 1086 b 620 1270 557 1194 609 1255 b 664 1168 637 1227 652 1193 b 694 1123 674 1145 685 1131 b 725 1112 705 1116 715 1112 b 739 1114 730 1112 734 1112 l 644 1340 b 621 1352 642 1348 634 1352 b 589 1348 610 1352 600 1351 b 540 1324 565 1342 549 1334 b 456 1216 494 1267 467 1231 b 433 1149 441 1188 433 1166 b 465 1086 433 1123 444 1103 z "},"":{"ha":867,"x_min":0,"x_max":0,"o":"m 673 -189 b 724 -173 689 -189 706 -184 b 711 -138 717 -163 712 -151 b 709 -106 709 -125 709 -114 b 728 33 709 -71 715 -25 b 863 505 750 136 795 293 b 946 778 901 621 928 711 b 974 919 964 844 974 892 b 815 1036 974 997 921 1036 l 790 1036 b 795 1014 793 1032 795 1025 b 780 928 795 996 790 968 b 589 422 745 800 682 631 b 456 153 543 321 498 231 b 275 -95 382 18 321 -64 b 307 70 277 -52 288 3 b 370 269 322 125 343 191 b 440 484 397 347 420 418 b 490 768 473 598 490 692 b 477 880 490 810 486 847 b 248 1038 450 985 373 1038 b 101 994 189 1038 140 1023 b 18 880 64 965 36 927 b -6 750 2 839 -6 795 b 1 681 -6 726 -3 703 b 89 552 17 613 46 570 b 136 542 105 545 121 542 b 171 546 148 542 159 543 b 151 650 157 572 151 606 b 160 735 151 675 154 703 b 199 867 170 784 182 827 b 267 958 224 927 247 958 l 269 958 b 317 854 301 949 317 915 b 304 726 317 820 313 777 b 227 406 290 650 264 543 b 168 174 197 290 177 213 b 134 -52 145 74 134 -1 b 155 -147 134 -96 141 -128 b 210 -186 172 -171 190 -184 b 227 -188 218 -187 223 -188 b 463 45 290 -188 369 -111 b 694 536 536 165 613 329 b 579 -32 618 264 579 75 b 605 -147 579 -85 588 -124 b 659 -188 624 -172 642 -185 b 673 -189 666 -189 671 -189 z m 466 1105 b 494 1117 478 1105 488 1109 b 513 1158 501 1125 507 1139 l 520 1187 b 561 1298 531 1235 545 1272 b 458 1335 524 1323 490 1335 b 414 1318 441 1335 425 1329 b 382 1265 401 1306 391 1289 b 366 1185 371 1236 366 1210 b 423 1116 366 1158 385 1135 b 466 1105 437 1109 452 1105 z m 671 1105 b 699 1117 683 1105 692 1109 b 718 1158 706 1125 711 1139 l 725 1187 b 766 1298 736 1235 749 1272 b 663 1335 728 1323 694 1335 b 619 1318 646 1335 631 1330 b 587 1265 608 1308 597 1290 b 570 1185 576 1238 570 1211 b 628 1116 570 1158 589 1135 b 671 1105 642 1109 656 1105 z "},"":{"ha":867,"x_min":0,"x_max":0,"o":"m 576 -322 b 633 -311 594 -321 613 -317 b 705 -277 661 -302 685 -291 b 660 -243 692 -255 677 -243 b 625 -256 653 -243 642 -248 b 581 -270 605 -265 590 -270 b 562 -243 568 -270 562 -261 b 611 -155 562 -214 578 -184 b 659 -188 628 -175 644 -186 b 673 -189 666 -189 671 -189 b 724 -173 689 -189 706 -184 b 711 -138 717 -163 712 -151 b 709 -106 709 -125 709 -114 b 728 33 709 -71 715 -25 b 863 505 750 136 795 293 b 946 778 901 621 928 711 b 974 919 964 844 974 892 b 815 1036 974 997 921 1036 l 790 1036 b 795 1014 793 1032 795 1025 b 780 928 795 996 790 968 b 589 422 745 800 682 631 b 456 153 543 321 498 231 b 275 -95 382 18 321 -64 b 307 70 277 -52 288 3 b 370 269 322 125 343 191 b 440 484 397 347 420 418 b 490 774 473 599 490 696 b 248 1038 490 950 410 1038 b 101 994 189 1038 140 1023 b 18 880 64 965 36 927 b -6 750 2 839 -6 795 b 1 681 -6 726 -3 703 b 89 552 17 613 46 570 b 136 542 105 545 121 542 b 171 546 150 542 161 543 b 151 645 158 572 151 605 b 160 735 151 675 154 705 b 199 867 170 784 182 827 b 267 958 224 927 247 958 l 269 958 b 317 854 301 949 317 915 b 304 726 317 820 313 777 b 227 406 290 650 264 543 b 168 174 197 290 177 213 b 134 -56 145 75 134 -2 b 155 -147 134 -98 141 -128 b 210 -186 172 -171 190 -184 b 225 -188 217 -187 222 -188 b 281 -172 243 -188 262 -182 b 463 45 332 -143 393 -71 b 694 536 536 165 613 329 b 579 -31 618 264 579 75 b 590 -118 579 -68 583 -98 b 505 -180 563 -124 534 -144 b 477 -243 486 -203 477 -224 b 503 -290 477 -260 486 -276 b 552 -319 525 -307 541 -317 b 576 -322 558 -321 566 -322 z "},"":{"ha":995,"x_min":0,"x_max":0,"o":"m 269 -189 b 335 -175 290 -189 312 -184 l 335 -173 b 417 30 335 -152 362 -84 b 528 276 465 132 503 214 b 620 549 569 375 600 466 b 600 372 618 527 611 468 b 572 62 582 230 572 127 b 636 -166 572 -52 593 -129 b 686 -186 650 -180 667 -186 b 745 -164 705 -186 725 -179 b 744 -144 744 -158 744 -152 b 781 12 744 -107 756 -55 b 902 280 810 90 850 180 b 1067 570 951 376 1006 473 b 1234 810 1128 668 1183 748 b 1360 930 1287 878 1329 917 l 1360 935 b 1328 1036 1360 977 1350 1011 b 1251 1072 1306 1059 1280 1072 b 1200 1056 1232 1071 1215 1066 b 962 676 1142 1018 1063 891 b 839 393 920 585 878 491 b 706 33 783 254 739 134 b 722 176 709 57 714 105 b 758 688 746 414 758 585 b 726 843 758 760 747 811 b 679 882 710 867 694 880 b 648 885 663 884 653 885 b 570 863 625 885 599 878 l 570 863 b 557 693 569 803 565 747 b 311 -12 526 457 443 222 b 309 39 309 5 309 22 b 322 199 309 86 313 139 b 361 414 329 245 342 317 b 402 634 380 505 394 578 b 410 753 407 674 410 714 b 382 914 410 816 400 869 b 290 1017 359 967 328 1002 b 203 1033 264 1027 235 1033 b 106 1019 170 1033 138 1028 b -12 949 58 1005 19 981 b -93 727 -66 891 -93 817 b -75 621 -93 688 -87 653 b -26 542 -62 586 -46 560 b 48 510 -5 520 20 510 b 111 524 69 510 90 515 b 76 667 87 555 76 603 b 86 779 76 702 79 739 b 120 899 94 826 105 866 b 161 950 134 933 148 950 b 224 804 203 949 224 900 b 182 406 224 724 210 591 b 139 3 153 215 139 81 b 153 -104 139 -43 144 -79 b 269 -189 174 -161 213 -189 z m 555 1048 b 710 1231 648 1156 699 1217 b 754 1130 728 1188 742 1154 b 785 1084 764 1107 775 1092 b 815 1074 795 1077 805 1074 b 829 1075 820 1074 825 1074 l 734 1301 b 711 1314 732 1310 724 1314 b 679 1310 701 1314 690 1312 b 630 1286 655 1303 639 1295 b 547 1177 585 1229 557 1192 b 524 1110 531 1149 524 1127 b 555 1048 524 1084 534 1064 z "},"":{"ha":854,"x_min":0,"x_max":0,"o":"m 370 -288 b 475 -266 406 -288 441 -281 b 608 -142 528 -242 572 -201 b 735 149 637 -96 680 1 b 883 571 789 292 838 433 b 973 917 943 760 973 875 b 886 1029 973 977 944 1015 b 815 1036 866 1034 842 1036 l 790 1036 b 796 1015 794 1031 796 1025 b 783 946 796 1000 791 977 b 714 764 768 897 745 836 b 481 319 645 605 568 456 b 307 111 411 210 353 140 b 337 263 309 157 319 208 b 397 425 353 310 372 364 b 465 608 427 499 450 560 b 494 781 484 673 494 730 b 481 874 494 812 490 844 b 408 994 467 929 441 969 b 248 1038 365 1023 312 1038 b 100 994 189 1038 139 1023 b 18 880 64 964 36 927 b -6 751 2 839 -6 795 b 1 681 -6 726 -3 703 b 89 552 17 613 46 570 b 136 542 105 545 121 542 b 171 546 148 542 159 543 b 151 648 157 572 151 606 b 160 735 151 674 154 703 b 199 866 168 781 181 825 b 266 958 224 927 247 958 l 269 958 b 319 862 302 949 319 917 b 299 720 319 827 312 779 b 245 517 290 682 272 614 b 191 311 218 422 200 353 b 166 144 174 240 166 184 b 176 74 166 115 169 92 b 257 18 188 37 215 18 b 380 65 298 18 338 33 b 580 334 441 113 508 203 l 621 408 b 694 536 654 470 679 513 b 687 510 692 528 689 519 b 636 333 665 431 648 372 b 245 -140 536 18 406 -140 b 141 -121 211 -140 176 -134 b 162 -178 144 -141 151 -160 b 203 -227 173 -196 186 -212 b 260 -263 220 -241 239 -253 b 319 -283 281 -273 300 -280 b 370 -288 338 -287 355 -288 z m 576 1109 b 601 1132 587 1109 595 1117 b 644 1211 612 1159 627 1185 b 705 1276 663 1240 683 1261 b 688 1291 701 1282 696 1286 b 659 1303 680 1296 670 1299 b 625 1307 648 1305 637 1307 b 548 1242 591 1307 565 1285 b 534 1173 539 1221 534 1197 b 546 1130 534 1157 538 1143 b 572 1109 554 1118 563 1111 z "},"":{"ha":854,"x_min":0,"x_max":0,"o":"m 370 -288 b 475 -266 406 -288 441 -281 b 608 -142 528 -242 572 -201 b 735 149 637 -96 680 1 b 883 571 789 292 838 433 b 973 917 943 760 973 875 b 886 1029 973 977 944 1015 b 815 1036 866 1034 842 1036 l 790 1036 b 796 1015 794 1031 796 1025 b 783 946 796 1000 791 977 b 714 764 768 897 745 836 b 481 319 645 605 568 456 b 307 111 411 210 353 140 b 337 263 309 157 319 208 b 397 425 353 310 372 364 b 465 608 427 499 450 560 b 494 781 484 673 494 730 b 481 874 494 812 490 844 b 408 994 467 929 441 969 b 248 1038 365 1023 312 1038 b 100 994 189 1038 139 1023 b 18 880 64 964 36 927 b -6 751 2 839 -6 795 b 1 681 -6 726 -3 703 b 89 552 17 613 46 570 b 136 542 105 545 121 542 b 171 546 148 542 159 543 b 151 648 157 572 151 606 b 160 735 151 674 154 703 b 199 866 168 781 181 825 b 266 958 224 927 247 958 l 269 958 b 319 862 302 949 319 917 b 299 720 319 827 312 779 b 245 517 290 682 272 614 b 191 311 218 422 200 353 b 166 144 174 240 166 184 b 176 74 166 115 169 92 b 257 18 188 37 215 18 b 380 65 298 18 338 33 b 580 334 441 113 508 203 l 621 408 b 694 536 654 470 679 513 b 687 510 692 528 689 519 b 636 333 665 431 648 372 b 245 -140 536 18 406 -140 b 141 -121 211 -140 176 -134 b 162 -178 144 -141 151 -160 b 203 -227 173 -196 186 -212 b 260 -263 220 -241 239 -253 b 319 -283 281 -273 300 -280 b 370 -288 338 -287 355 -288 z m 481 1105 b 510 1117 494 1105 503 1109 b 528 1158 517 1125 522 1139 l 536 1187 b 576 1298 547 1235 560 1272 b 474 1335 539 1323 505 1335 b 429 1318 456 1335 441 1329 b 397 1265 417 1306 406 1289 b 381 1185 387 1236 381 1210 b 439 1116 381 1158 400 1135 b 481 1105 453 1109 467 1105 z m 686 1105 b 715 1117 699 1105 708 1109 b 733 1158 722 1125 727 1139 l 741 1187 b 781 1298 751 1235 765 1272 b 679 1335 744 1323 710 1335 b 635 1318 661 1335 646 1330 b 603 1265 623 1308 612 1290 b 586 1185 591 1238 586 1211 b 644 1116 586 1158 605 1135 b 686 1105 658 1109 672 1105 z "},"":{"ha":854,"x_min":0,"x_max":0,"o":"m 370 -288 b 475 -266 406 -288 441 -281 b 608 -142 528 -242 572 -201 b 735 149 637 -96 680 1 b 883 571 789 292 838 433 b 973 917 943 760 973 875 b 886 1029 973 977 944 1015 b 815 1036 866 1034 842 1036 l 790 1036 b 796 1015 794 1031 796 1025 b 783 946 796 1000 791 977 b 714 764 768 897 745 836 b 481 319 645 605 568 456 b 307 111 411 210 353 140 b 337 263 309 157 319 208 b 397 425 353 310 372 364 b 465 608 427 499 450 560 b 494 781 484 673 494 730 b 481 874 494 812 490 844 b 408 994 467 929 441 969 b 248 1038 365 1023 312 1038 b 100 994 189 1038 139 1023 b 18 880 64 964 36 927 b -6 751 2 839 -6 795 b 1 681 -6 726 -3 703 b 89 552 17 613 46 570 b 136 542 105 545 121 542 b 171 546 148 542 159 543 b 151 648 157 572 151 606 b 160 735 151 674 154 703 b 199 866 168 781 181 825 b 266 958 224 927 247 958 l 269 958 b 319 862 302 949 319 917 b 299 720 319 827 312 779 b 245 517 290 682 272 614 b 191 311 218 422 200 353 b 166 144 174 240 166 184 b 176 74 166 115 169 92 b 257 18 188 37 215 18 b 380 65 298 18 338 33 b 580 334 441 113 508 203 l 621 408 b 694 536 654 470 679 513 b 687 510 692 528 689 519 b 636 333 665 431 648 372 b 245 -140 536 18 406 -140 b 141 -121 211 -140 176 -134 b 162 -178 144 -141 151 -160 b 203 -227 173 -196 186 -212 b 260 -263 220 -241 239 -253 b 319 -283 281 -273 300 -280 b 370 -288 338 -287 355 -288 z m 468 1092 b 623 1275 560 1200 612 1261 b 667 1174 640 1232 654 1198 b 697 1128 677 1151 688 1136 b 728 1118 707 1121 718 1118 b 741 1119 732 1118 737 1118 l 647 1345 b 624 1358 644 1354 637 1358 b 591 1354 613 1358 602 1356 b 543 1330 568 1348 551 1339 b 459 1221 497 1273 469 1236 b 436 1154 444 1194 436 1171 b 468 1092 436 1128 447 1108 z "},"":{"ha":727,"x_min":0,"x_max":0,"o":"m 76 -245 b 186 -234 107 -245 144 -241 b 354 -198 226 -227 281 -215 b 519 -161 423 -180 478 -169 b 602 -155 549 -157 576 -155 b 720 -221 668 -155 707 -176 b 746 -147 734 -189 743 -164 b 750 -110 749 -131 750 -119 b 717 -38 750 -78 739 -54 b 597 -10 691 -20 651 -11 b 515 -14 572 -10 545 -12 b 424 -25 486 -17 456 -20 b 328 -40 392 -30 360 -35 l 393 18 b 648 356 467 97 552 209 b 777 575 698 433 741 505 b 887 892 850 715 887 821 b 882 931 887 907 885 920 b 740 1021 869 972 821 1002 b 612 1037 693 1031 650 1037 b 429 996 549 1037 488 1023 b 280 897 373 970 323 938 b 188 779 239 859 208 819 b 161 685 170 744 161 712 b 254 578 161 631 193 595 b 276 574 260 576 268 574 b 321 650 279 590 294 615 b 419 753 346 680 378 715 b 538 855 456 789 496 822 b 648 922 578 885 615 907 b 690 932 665 929 679 932 b 724 892 713 932 724 919 b 711 826 724 876 720 853 b 538 485 681 741 623 627 b 395 270 492 408 445 336 b 65 -43 273 107 163 3 b -1 -65 37 -56 16 -63 b -37 -68 -18 -67 -31 -68 b -92 -60 -56 -68 -75 -66 b -94 -90 -93 -70 -94 -80 b -63 -195 -94 -134 -83 -170 b 31 -242 -41 -222 -9 -237 b 76 -245 48 -244 63 -245 z m 576 1109 b 601 1132 587 1109 595 1117 b 644 1211 612 1159 627 1185 b 705 1276 663 1240 683 1261 b 688 1291 701 1282 696 1286 b 659 1303 680 1296 670 1299 b 625 1307 648 1305 637 1307 b 548 1242 591 1307 565 1285 b 534 1173 539 1221 534 1197 b 546 1130 534 1157 538 1143 b 572 1109 554 1118 563 1111 z "},"":{"ha":727,"x_min":0,"x_max":0,"o":"m 76 -245 b 186 -234 107 -245 144 -241 b 354 -198 226 -227 281 -215 b 519 -161 423 -180 478 -169 b 602 -155 549 -157 576 -155 b 720 -221 668 -155 707 -176 b 746 -147 734 -189 743 -164 b 750 -110 749 -131 750 -119 b 717 -38 750 -78 739 -54 b 597 -10 691 -20 651 -11 b 515 -14 572 -10 545 -12 b 424 -25 486 -17 456 -20 b 328 -40 392 -30 360 -35 l 393 18 b 648 356 467 97 552 209 b 777 575 698 433 741 505 b 887 892 850 715 887 821 b 882 931 887 907 885 920 b 740 1021 869 972 821 1002 b 612 1037 693 1031 650 1037 b 429 996 549 1037 488 1023 b 280 897 373 970 323 938 b 188 779 239 859 208 819 b 161 685 170 744 161 712 b 254 578 161 631 193 595 b 276 574 260 576 268 574 b 321 650 279 590 294 615 b 419 753 346 680 378 715 b 538 855 456 789 496 822 b 648 922 578 885 615 907 b 690 932 665 929 679 932 b 724 892 713 932 724 919 b 711 826 724 876 720 853 b 538 485 681 741 623 627 b 395 270 492 408 445 336 b 65 -43 273 107 163 3 b -1 -65 37 -56 16 -63 b -37 -68 -18 -67 -31 -68 b -92 -60 -56 -68 -75 -66 b -94 -90 -93 -70 -94 -80 b -63 -195 -94 -134 -83 -170 b 31 -242 -41 -222 -9 -237 b 76 -245 48 -244 63 -245 z m 666 1086 b 724 1101 687 1088 706 1093 b 744 1115 733 1105 739 1110 b 827 1223 791 1175 819 1211 b 850 1291 843 1251 850 1274 b 819 1352 850 1317 840 1337 b 664 1170 732 1253 680 1192 b 620 1272 646 1215 631 1249 b 589 1316 608 1295 597 1310 b 554 1327 579 1323 568 1326 l 545 1326 b 640 1099 606 1179 637 1103 b 666 1086 642 1090 651 1086 z "},"":{"ha":610,"x_min":0,"x_max":0,"o":"m 107 -5 b 149 3 123 -5 136 -2 b 146 41 146 12 146 25 b 159 185 146 73 150 121 b 304 107 193 134 241 107 b 401 135 338 107 370 117 b 494 232 437 156 468 189 b 554 314 518 250 538 277 b 582 456 572 358 582 406 b 569 553 582 490 578 522 b 415 696 546 635 494 682 b 370 701 399 699 385 701 b 290 682 343 701 316 694 b 370 811 317 746 343 789 b 268 846 340 834 306 846 b 186 822 236 845 209 837 b 68 581 146 795 107 714 b 21 385 50 517 34 452 b -5 151 3 291 -5 213 b 4 62 -5 113 -3 83 b 66 2 12 35 33 15 b 107 -5 80 -3 94 -5 z m 287 172 b 241 191 269 172 254 178 b 201 335 214 216 201 264 b 214 447 201 371 205 408 b 251 557 224 490 236 526 b 336 637 276 609 304 635 b 367 625 346 637 357 633 b 404 515 391 608 404 571 b 399 443 404 492 402 468 b 369 326 393 404 383 365 b 321 239 355 288 339 258 b 354 223 325 233 336 227 b 330 190 347 209 338 198 b 306 174 321 182 313 176 b 287 172 298 172 292 172 z "},"":{"ha":928,"x_min":0,"x_max":0,"o":"m 165 -342 b 338 -316 214 -342 272 -334 b 568 -222 417 -295 494 -264 b 746 -83 644 -180 703 -134 b 848 173 814 1 848 86 b 821 298 848 217 839 259 b 703 428 795 352 755 395 b 616 465 676 444 648 456 b 753 575 665 493 711 530 b 856 717 795 620 829 667 b 900 875 885 772 900 825 b 862 985 900 918 887 954 b 718 1057 831 1021 784 1045 b 673 1062 703 1061 688 1062 b 513 1007 616 1061 563 1043 b 415 899 469 977 437 941 b 349 743 394 860 372 808 b 218 299 299 609 256 460 b 172 -7 187 165 172 63 b 189 -85 172 -47 177 -73 b 269 -120 214 -109 241 -120 b 312 -111 283 -120 298 -117 l 312 -105 b 330 12 312 -88 317 -50 b 399 328 347 102 370 208 b 459 336 420 334 439 336 b 530 323 484 336 507 332 b 623 250 570 307 600 283 b 658 142 646 217 658 181 b 646 73 658 119 654 96 b 551 -52 630 28 599 -14 b 379 -155 509 -85 452 -119 b 254 -208 332 -178 290 -196 b 146 -229 208 -222 172 -229 l 128 -229 b 80 -222 111 -229 95 -227 b 39 -200 64 -218 51 -210 b 7 -159 26 -190 16 -176 b -5 -198 0 -176 -4 -189 b -5 -216 -5 -208 -5 -213 b 28 -296 -5 -246 5 -273 b 127 -340 53 -322 85 -337 b 165 -342 139 -342 152 -342 z m 437 477 l 460 564 b 610 901 508 747 557 859 b 654 916 622 911 637 916 b 698 903 671 915 686 911 b 723 871 709 896 718 885 b 731 823 728 857 731 841 b 696 699 731 785 720 744 b 597 571 672 651 640 608 b 437 477 551 528 497 497 z "},"":{"ha":576,"x_min":0,"x_max":0,"o":"m 427 -6 b 591 138 486 -6 541 42 b 629 221 602 158 614 186 b 654 268 638 241 646 257 b 635 272 648 270 642 271 b 617 273 629 273 623 273 b 575 243 596 271 583 262 b 526 144 567 219 550 186 b 477 73 507 111 491 87 b 455 59 468 64 460 59 b 448 76 450 59 448 64 b 471 204 448 100 456 142 b 484 266 479 233 484 253 b 472 309 484 281 479 296 b 419 352 460 328 443 342 b 340 366 395 361 369 366 l 341 353 b 327 269 341 330 336 302 b 292 175 317 235 306 204 b 217 77 268 125 243 93 b 195 71 208 73 201 71 b 180 81 190 71 184 74 b 161 151 167 98 161 122 b 189 269 161 184 170 223 b 240 367 202 303 219 336 b 374 498 279 426 323 469 b 418 514 394 509 408 514 b 431 507 425 514 429 511 b 435 491 433 502 435 497 b 423 438 434 477 430 459 b 416 408 418 425 416 415 b 420 392 416 401 418 396 b 458 372 426 384 438 377 b 493 499 481 419 493 461 b 489 533 493 511 492 523 b 430 578 481 558 462 573 l 416 580 b 333 587 385 585 357 587 b 281 582 312 587 294 585 b 204 549 256 576 231 565 b 117 478 173 530 144 507 b 9 292 66 425 30 362 b -6 191 -1 258 -6 224 b 9 104 -6 159 -1 130 b 54 47 18 83 33 64 b 122 8 74 30 96 17 b 195 -6 148 -1 172 -6 b 310 72 238 -4 277 22 b 345 27 318 55 330 40 b 415 -5 372 7 395 -4 z m 359 654 b 389 675 371 655 380 662 b 401 718 397 687 401 701 b 372 817 401 755 391 788 b 310 852 356 840 336 852 b 277 848 298 852 288 850 b 248 836 265 844 256 841 b 230 821 239 831 233 827 b 291 757 252 807 272 786 b 334 677 311 728 325 701 b 359 654 340 662 349 654 z "},"":{"ha":576,"x_min":0,"x_max":0,"o":"m 427 -6 b 591 138 486 -6 541 42 b 629 221 602 158 614 186 b 654 268 638 241 646 257 b 635 272 648 270 642 271 b 617 273 629 273 623 273 b 575 243 596 271 583 262 b 526 144 567 219 550 186 b 477 73 507 111 491 87 b 455 59 468 64 460 59 b 448 76 450 59 448 64 b 471 204 448 100 456 142 b 484 266 479 233 484 253 b 472 309 484 281 479 296 b 419 352 460 328 443 342 b 340 366 395 361 369 366 l 341 353 b 327 269 341 330 336 302 b 292 175 317 235 306 204 b 217 77 268 125 243 93 b 195 71 208 73 201 71 b 180 81 190 71 184 74 b 161 151 167 98 161 122 b 189 269 161 184 170 223 b 240 367 202 303 219 336 b 374 498 279 426 323 469 b 418 514 394 509 408 514 b 431 507 425 514 429 511 b 435 491 433 502 435 497 b 423 438 434 477 430 459 b 416 408 418 425 416 415 b 420 392 416 401 418 396 b 458 372 426 384 438 377 b 493 499 481 419 493 461 b 489 533 493 511 492 523 b 430 578 481 558 462 573 l 416 580 b 333 587 385 585 357 587 b 281 582 312 587 294 585 b 204 549 256 576 231 565 b 117 478 173 530 144 507 b 9 292 66 425 30 362 b -6 191 -1 258 -6 224 b 9 104 -6 159 -1 130 b 54 47 18 83 33 64 b 122 8 74 30 96 17 b 195 -6 148 -1 172 -6 b 310 72 238 -4 277 22 b 345 27 318 55 330 40 b 415 -5 372 7 395 -4 z m 330 642 b 354 665 340 642 349 650 b 397 743 366 692 380 718 b 458 808 416 772 436 794 b 441 824 454 814 449 819 b 412 836 433 829 423 832 b 378 840 401 838 390 840 b 301 775 344 840 318 818 b 288 705 292 753 288 730 b 299 663 288 690 292 675 b 325 642 307 650 316 644 z "},"":{"ha":576,"x_min":0,"x_max":0,"o":"m 427 -6 b 591 138 486 -6 541 42 b 629 221 602 158 614 186 b 654 268 638 241 646 257 b 635 272 648 270 642 271 b 617 273 629 273 623 273 b 575 243 596 271 583 262 b 526 144 567 219 550 186 b 477 73 507 111 491 87 b 455 59 468 64 460 59 b 448 76 450 59 448 64 b 471 204 448 100 456 142 b 484 266 479 233 484 253 b 472 309 484 281 479 296 b 419 352 460 328 443 342 b 340 366 395 361 369 366 l 341 353 b 327 269 341 330 336 302 b 292 175 317 235 306 204 b 217 77 268 125 243 93 b 195 71 208 73 201 71 b 180 81 190 71 184 74 b 161 151 167 98 161 122 b 189 269 161 184 170 223 b 240 367 202 303 219 336 b 374 498 279 426 323 469 b 418 514 394 509 408 514 b 431 507 425 514 429 511 b 435 491 433 502 435 497 b 423 438 434 477 430 459 b 416 408 418 425 416 415 b 420 392 416 401 418 396 b 458 372 426 384 438 377 b 493 499 481 419 493 461 b 489 533 493 511 492 523 b 430 578 481 558 462 573 l 416 580 b 333 587 385 585 357 587 b 281 582 312 587 294 585 b 204 549 256 576 231 565 b 117 478 173 530 144 507 b 9 292 66 425 30 362 b -6 191 -1 258 -6 224 b 9 104 -6 159 -1 130 b 54 47 18 83 33 64 b 122 8 74 30 96 17 b 195 -6 148 -1 172 -6 b 310 72 238 -4 277 22 b 345 27 318 55 330 40 b 415 -5 372 7 395 -4 z m 211 655 b 366 838 303 763 355 824 b 410 737 383 795 397 762 b 440 692 420 714 431 699 b 471 681 450 684 460 681 b 484 682 475 681 480 681 l 390 909 b 367 921 387 917 380 921 b 334 917 356 921 345 920 b 286 893 311 911 294 903 b 202 785 240 836 212 800 b 179 718 186 757 179 734 b 211 655 179 692 190 671 z "},"":{"ha":576,"x_min":0,"x_max":0,"o":"m 427 -6 b 591 138 486 -6 541 42 b 629 221 602 158 614 186 b 654 268 638 241 646 257 b 635 272 648 270 642 271 b 617 273 629 273 623 273 b 575 243 596 271 583 262 b 526 144 567 219 550 186 b 477 73 507 111 491 87 b 455 59 468 64 460 59 b 448 76 450 59 448 64 b 471 204 448 100 456 142 b 484 266 479 233 484 253 b 472 309 484 281 479 296 b 419 352 460 328 443 342 b 340 366 395 361 369 366 l 341 353 b 327 269 341 330 336 302 b 292 175 317 235 306 204 b 217 77 268 125 243 93 b 195 71 208 73 201 71 b 180 81 190 71 184 74 b 161 151 167 98 161 122 b 189 269 161 184 170 223 b 240 367 202 303 219 336 b 374 498 279 426 323 469 b 418 514 394 509 408 514 b 431 507 425 514 429 511 b 435 491 433 502 435 497 b 423 438 434 477 430 459 b 416 408 418 425 416 415 b 420 392 416 401 418 396 b 458 372 426 384 438 377 b 493 499 481 419 493 461 b 489 533 493 511 492 523 b 430 578 481 558 462 573 l 416 580 b 333 587 385 585 357 587 b 281 582 312 587 294 585 b 204 549 256 576 231 565 b 117 478 173 530 144 507 b 9 292 66 425 30 362 b -6 191 -1 258 -6 224 b 9 104 -6 159 -1 130 b 54 47 18 83 33 64 b 122 8 74 30 96 17 b 195 -6 148 -1 172 -6 b 310 72 238 -4 277 22 b 345 27 318 55 330 40 b 415 -5 372 7 395 -4 z m 260 654 b 282 656 267 654 275 655 b 322 661 295 656 308 659 b 364 670 336 664 350 667 b 407 680 378 673 393 676 b 442 685 421 682 433 684 b 466 686 452 686 460 686 b 512 675 485 686 500 682 b 517 713 515 690 517 702 b 512 745 517 726 515 736 b 440 774 502 764 477 774 b 347 764 418 774 387 770 b 256 754 310 758 279 755 b 195 767 236 754 215 758 b 190 724 191 751 190 736 b 242 656 190 683 208 660 b 260 654 250 655 256 654 z "},"":{"ha":576,"x_min":0,"x_max":0,"o":"m 427 -6 b 591 138 486 -6 541 42 b 629 221 602 158 614 186 b 654 268 638 241 646 257 b 635 272 648 270 642 271 b 617 273 629 273 623 273 b 575 243 596 271 583 262 b 526 144 567 219 550 186 b 477 73 507 111 491 87 b 455 59 468 64 460 59 b 448 76 450 59 448 64 b 471 204 448 100 456 142 b 484 266 479 233 484 253 b 472 309 484 281 479 296 b 419 352 460 328 443 342 b 340 366 395 361 369 366 l 341 353 b 327 269 341 330 336 302 b 292 175 317 235 306 204 b 217 77 268 125 243 93 b 195 71 208 73 201 71 b 180 81 190 71 184 74 b 161 151 167 98 161 122 b 189 269 161 184 170 223 b 240 367 202 303 219 336 b 374 498 279 426 323 469 b 418 514 394 509 408 514 b 431 507 425 514 429 511 b 435 491 433 502 435 497 b 423 438 434 477 430 459 b 416 408 418 425 416 415 b 420 392 416 401 418 396 b 458 372 426 384 438 377 b 493 499 481 419 493 461 b 489 533 493 511 492 523 b 430 578 481 558 462 573 l 416 580 b 333 587 385 585 357 587 b 281 582 312 587 294 585 b 204 549 256 576 231 565 b 117 478 173 530 144 507 b 9 292 66 425 30 362 b -6 191 -1 258 -6 224 b 9 104 -6 159 -1 130 b 54 47 18 83 33 64 b 122 8 74 30 96 17 b 195 -6 148 -1 172 -6 b 310 72 238 -4 277 22 b 345 27 318 55 330 40 b 415 -5 372 7 395 -4 z m 237 635 b 266 647 250 635 259 640 b 284 688 273 655 278 669 l 292 717 b 332 828 302 765 316 802 b 230 865 295 853 261 865 b 185 848 212 865 197 859 b 153 795 173 836 162 819 b 137 715 142 766 137 740 b 195 646 137 688 156 665 b 237 635 209 639 223 635 z m 442 635 b 471 647 454 635 464 640 b 489 688 477 655 483 669 l 496 717 b 537 828 507 765 521 802 b 435 865 500 853 466 865 b 391 848 417 865 402 860 b 359 795 379 838 368 820 b 342 715 347 768 342 741 b 399 646 342 688 361 665 b 442 635 414 639 428 635 z "},"":{"ha":576,"x_min":0,"x_max":0,"o":"m 427 -6 b 591 138 486 -6 541 42 b 629 221 602 158 614 186 b 654 268 638 241 646 257 b 635 272 648 270 642 271 b 617 273 629 273 623 273 b 575 243 596 271 583 262 b 526 144 567 219 550 186 b 477 73 507 111 491 87 b 455 59 468 64 460 59 b 448 76 450 59 448 64 b 471 204 448 100 456 142 b 484 266 479 233 484 253 b 472 309 484 281 479 296 b 419 352 460 328 443 342 b 340 366 395 361 369 366 l 341 353 b 327 269 341 330 336 302 b 292 175 317 235 306 204 b 217 77 268 125 243 93 b 195 71 208 73 201 71 b 180 81 190 71 184 74 b 161 151 167 98 161 122 b 189 269 161 184 170 223 b 240 367 202 303 219 336 b 374 498 279 426 323 469 b 418 514 394 509 408 514 b 431 507 425 514 429 511 b 435 491 433 502 435 497 b 423 438 434 477 430 459 b 416 408 418 425 416 415 b 420 392 416 401 418 396 b 458 372 426 384 438 377 b 493 499 481 419 493 461 b 489 533 493 511 492 523 b 430 578 481 558 462 573 l 416 580 b 333 587 385 585 357 587 b 281 582 312 587 294 585 b 204 549 256 576 231 565 b 117 478 173 530 144 507 b 9 292 66 425 30 362 b -6 191 -1 258 -6 224 b 9 104 -6 159 -1 130 b 54 47 18 83 33 64 b 122 8 74 30 96 17 b 195 -6 148 -1 172 -6 b 310 72 238 -4 277 22 b 345 27 318 55 330 40 b 415 -5 372 7 395 -4 z m 403 617 b 441 635 416 617 429 623 b 469 679 452 645 461 659 b 482 728 477 696 481 713 b 481 760 482 743 482 753 b 470 792 479 773 475 784 b 452 808 467 798 460 802 b 394 825 431 819 412 825 b 340 804 373 825 355 818 b 300 709 313 780 300 748 b 345 632 300 677 315 651 b 395 617 361 622 378 617 z m 404 650 b 385 664 396 650 390 654 b 378 701 380 673 378 686 b 391 751 378 721 382 737 b 427 774 401 766 413 774 b 450 743 443 774 450 764 b 446 714 450 735 449 726 b 404 650 434 671 420 650 z "}}}
